<svg width="22" height="22" viewBox="0 0 22 22" fill="none" xmlns="http://www.w3.org/2000/svg">
<path d="M11 13.75C12.5188 13.75 13.75 12.5188 13.75 11C13.75 9.48122 12.5188 8.25 11 8.25C9.48122 8.25 8.25 9.48122 8.25 11C8.25 12.5188 9.48122 13.75 11 13.75Z" stroke="black" stroke-width="1.5" stroke-miterlimit="10" stroke-linecap="round" stroke-linejoin="round"/>
<path d="M1.83331 11.8067V10.1933C1.83331 9.24 2.61248 8.45167 3.57498 8.45167C5.23415 8.45167 5.91248 7.27833 5.07831 5.83917C4.60165 5.01417 4.88581 3.94167 5.71998 3.465L7.30581 2.5575C8.02998 2.12667 8.96498 2.38333 9.39581 3.1075L9.49665 3.28167C10.3216 4.72083 11.6783 4.72083 12.5125 3.28167L12.6133 3.1075C13.0441 2.38333 13.9791 2.12667 14.7033 2.5575L16.2891 3.465C17.1233 3.94167 17.4075 5.01417 16.9308 5.83917C16.0966 7.27833 16.775 8.45167 18.4341 8.45167C19.3875 8.45167 20.1758 9.23083 20.1758 10.1933V11.8067C20.1758 12.76 19.3966 13.5483 18.4341 13.5483C16.775 13.5483 16.0966 14.7217 16.9308 16.1608C17.4075 16.995 17.1233 18.0583 16.2891 18.535L14.7033 19.4425C13.9791 19.8733 13.0441 19.6167 12.6133 18.8925L12.5125 18.7183C11.6875 17.2792 10.3308 17.2792 9.49665 18.7183L9.39581 18.8925C8.96498 19.6167 8.02998 19.8733 7.30581 19.4425L5.71998 18.535C4.88581 18.0583 4.60165 16.9858 5.07831 16.1608C5.91248 14.7217 5.23415 13.5483 3.57498 13.5483C2.61248 13.5483 1.83331 12.76 1.83331 11.8067Z" stroke="black" stroke-width="1.5" stroke-miterlimit="10" stroke-linecap="round" stroke-linejoin="round"/>
</svg>
