<svg width="22" height="22" viewBox="0 0 22 22" fill="none" xmlns="http://www.w3.org/2000/svg">
<path d="M8.24998 20.1667H13.75C18.3333 20.1667 20.1666 18.3333 20.1666 13.75V8.25C20.1666 3.66667 18.3333 1.83334 13.75 1.83334H8.24998C3.66665 1.83334 1.83331 3.66667 1.83331 8.25V13.75C1.83331 18.3333 3.66665 20.1667 8.24998 20.1667Z" stroke="black" stroke-width="1.5" stroke-linecap="round" stroke-linejoin="round"/>
<path d="M14.2083 16.9583C15.2167 16.9583 16.0417 16.1333 16.0417 15.125V6.875C16.0417 5.86666 15.2167 5.04166 14.2083 5.04166C13.2 5.04166 12.375 5.86666 12.375 6.875V15.125C12.375 16.1333 13.1908 16.9583 14.2083 16.9583Z" stroke="black" stroke-width="1.5" stroke-linecap="round" stroke-linejoin="round"/>
<path d="M7.79165 16.9583C8.79998 16.9583 9.62498 16.1333 9.62498 15.125V11.9167C9.62498 10.9083 8.79998 10.0833 7.79165 10.0833C6.78331 10.0833 5.95831 10.9083 5.95831 11.9167V15.125C5.95831 16.1333 6.77415 16.9583 7.79165 16.9583Z" stroke="black" stroke-width="1.5" stroke-linecap="round" stroke-linejoin="round"/>
</svg>
