<svg width="22" height="22" viewBox="0 0 22 22" fill="none" xmlns="http://www.w3.org/2000/svg">
<path d="M18.3334 7.56249V16.5C18.3334 19.25 16.6925 20.1667 14.6667 20.1667H7.33335C5.30752 20.1667 3.66669 19.25 3.66669 16.5V7.56249C3.66669 4.58333 5.30752 3.89583 7.33335 3.89583C7.33335 4.46416 7.5625 4.97749 7.93833 5.35332C8.31416 5.72916 8.82752 5.95833 9.39585 5.95833H12.6042C13.7409 5.95833 14.6667 5.03249 14.6667 3.89583C16.6925 3.89583 18.3334 4.58333 18.3334 7.56249Z" stroke="black" stroke-width="1.5" stroke-linecap="round" stroke-linejoin="round"/>
<path d="M14.6666 3.89583C14.6666 5.03249 13.7408 5.95833 12.6041 5.95833H9.39581C8.82748 5.95833 8.31412 5.72916 7.93829 5.35332C7.56246 4.97749 7.33331 4.46416 7.33331 3.89583C7.33331 2.75916 8.25915 1.83333 9.39581 1.83333H12.6041C13.1725 1.83333 13.6858 2.0625 14.0617 2.43833C14.4375 2.81416 14.6666 3.32749 14.6666 3.89583Z" stroke="black" stroke-width="1.5" stroke-linecap="round" stroke-linejoin="round"/>
<path d="M7.33331 11.9167H11" stroke="black" stroke-width="1.5" stroke-linecap="round" stroke-linejoin="round"/>
<path d="M7.33331 15.5833H14.6666" stroke="black" stroke-width="1.5" stroke-linecap="round" stroke-linejoin="round"/>
</svg>
