<svg xmlns="http://www.w3.org/2000/svg" viewBox="0 0 25 25" id="logout">
  <path d="M20.139,17.47a3.505,3.505,0,0,1-3.5,3.5H6.7a3.505,3.505,0,0,1-3.5-3.5V7.53a3.505,3.505,0,0,1,3.5-3.5h9.941a3.505,3.505,0,0,1,3.5,3.5.5.5,0,1,1-1,0,2.5,2.5,0,0,0-2.5-2.5H6.7a2.5,2.5,0,0,0-2.5,2.5v9.94a2.5,2.5,0,0,0,2.5,2.5h9.941a2.5,2.5,0,0,0,2.5-2.5.5.5,0,0,1,1,0Zm1.552-4.657-4.13,5.131a.5.5,0,0,1-.89-.313V15.265H8.32a.5.5,0,0,1-.5-.5v-4.53a.5.5,0,0,1,.5-.5h8.351V7.369a.5.5,0,0,1,.89-.313l4.13,5.131A.5.5,0,0,1,21.691,12.813ZM20.66,12.5,17.671,8.787v1.448a.5.5,0,0,1-.5.5H8.82v3.53h8.351a.5.5,0,0,1,.5.5v1.448Z"></path>
</svg>
