<svg width="115" height="40" viewBox="0 0 115 40" fill="none" xmlns="http://www.w3.org/2000/svg">
<path d="M90.5479 11.0179C89.4383 10.3544 88.0718 10.0226 86.4486 10.0226C85.2727 10.0195 84.1099 10.2687 83.0386 10.7534C81.9966 11.2126 81.0524 11.8674 80.2571 12.6824C80.1207 12.8234 79.9945 12.969 79.8728 13.1155L79.7502 10.4696H73.5754V32.0252H80.0701V19.1162C80.0665 18.6256 80.1723 18.1405 80.3797 17.696C80.5827 17.2627 80.8639 16.8706 81.2092 16.5393C81.5692 16.1961 81.998 15.9332 82.4672 15.7679C82.9757 15.5889 83.5114 15.4997 84.0505 15.5043C84.781 15.4779 85.3955 15.6063 85.8937 15.8896C86.3986 16.1789 86.7917 16.6294 87.0098 17.1688C87.2556 17.7365 87.3785 18.4535 87.3785 19.3198V32.0252H93.9137V18.7918C93.9137 16.8975 93.6295 15.2939 93.0612 13.9809C92.4928 12.6679 91.6551 11.6803 90.5479 11.0179ZM113.948 23.1169C113.738 22.5294 113.406 21.9929 112.974 21.5428C112.433 20.9585 111.702 20.4534 110.782 20.0276C109.72 19.5525 108.62 19.1659 107.494 18.8719C106.465 18.5801 105.653 18.3343 105.058 18.1346C104.462 17.935 104.03 17.7556 103.759 17.5964C103.503 17.4518 103.287 17.2464 103.13 16.9983C102.985 16.7723 102.907 16.5094 102.907 16.2407C102.901 15.9985 102.957 15.7587 103.069 15.544C103.186 15.3339 103.353 15.1558 103.556 15.0251C103.797 14.8695 104.066 14.7613 104.347 14.7062C104.702 14.6362 105.062 14.6029 105.424 14.6067H113.144V10.0226H105.218C104.126 10.0213 103.04 10.1765 101.993 10.4834C101 10.7641 100.064 11.216 99.2277 11.8188C98.4575 12.3728 97.8083 13.0781 97.3199 13.8915C96.8428 14.7005 96.597 15.625 96.6094 16.5642C96.5963 17.3511 96.7486 18.132 97.0564 18.8563C97.3608 19.5447 97.787 20.1725 98.3144 20.7096C98.9097 21.2952 99.6744 21.8067 100.608 22.2441C101.672 22.7281 102.78 23.1086 103.917 23.3805C104.81 23.6201 105.54 23.8327 106.108 24.0182C106.527 24.1443 106.934 24.3042 107.327 24.4966C107.813 24.7896 108.057 25.2016 108.058 25.7325C108.062 25.9749 108.007 26.2147 107.895 26.4301C107.781 26.6359 107.621 26.813 107.428 26.9481C107.201 27.1057 106.946 27.2204 106.677 27.2863C106.346 27.3704 106.005 27.4106 105.663 27.4061H96.6103V32.0299H105.297C107.029 32.0299 108.572 31.7309 109.926 31.1331C111.279 30.5353 112.342 29.7117 113.113 28.6623C113.886 27.6182 114.295 26.3493 114.277 25.0505C114.281 24.3917 114.17 23.7372 113.948 23.1169ZM59.7383 21.8764C59.5171 22.5169 59.3134 23.1151 59.1254 23.6763C59.0646 23.4717 59 23.2653 58.9263 23.0542C58.71 22.4312 58.4799 21.8494 58.236 21.3087L53.6897 10.4696H46.3426L55.9578 31.428L52.3193 39.9991H58.7411L61.9289 32.0252L71.1027 10.4696H63.7169L59.7383 21.8764ZM43.7021 14.3671V10.4696H26.5886V9.22538H25.8421V10.4732H24.3454V11.2198H25.8421V15.7467H26.7518L30.2539 11.2161H31.6179L28.6955 15.0002L28.1185 15.7467H35.6168L25.8421 28.2945V32.0289H44.0699V26.7481H34.286L43.7021 14.3671ZM26.5886 11.2198H26.9997L26.5905 11.7488L26.5886 11.2198ZM26.5886 14.7366V12.9708L27.9434 11.2198H29.3083L26.5886 14.7366ZM31.0004 15.0002H29.6355L32.5589 11.2161H33.9229L31.0004 15.0002ZM33.3045 15.0002H31.9405L34.8629 11.2161H36.2269L33.3045 15.0002ZM35.2463 15.0002H34.251L37.1734 11.2161H38.1973L35.2463 15.0002ZM21.2285 1.98516H16.7817V0.000915527H16.0324V1.98608H14.0408V2.73259H16.0324V12.581C15.8188 12.3651 15.5926 12.1619 15.3551 11.9727C15.2334 11.8759 15.109 11.7801 14.979 11.6889C14.2308 11.1662 13.4102 10.7557 12.5432 10.4705C12.4962 10.4548 12.451 10.4438 12.4004 10.429C12.1423 10.3479 11.8806 10.2815 11.6161 10.2244C11.2112 10.1366 10.8007 10.0772 10.3875 10.0465C10.1746 10.0318 9.95991 10.0217 9.74241 10.0217C8.94909 10.0195 8.15852 10.1151 7.3886 10.3064H7.37846C7.18585 10.3553 6.99507 10.4097 6.80798 10.4705C6.06476 10.7099 5.35824 11.0511 4.70854 11.4843C3.24747 12.4587 2.0976 13.792 1.25893 15.4841C0.60394 16.829 0.201879 18.2829 0.0728085 19.7733C0.0728085 19.812 0.0672782 19.8516 0.0635918 19.8903C0.0460811 20.0875 0.0294923 20.2848 0.0193546 20.4857C0.00737355 20.7437 0 21.0046 0 21.2691C0 21.7621 0.0258057 22.2414 0.0709649 22.7086C0.0709649 22.7372 0.0755731 22.7667 0.078338 22.7953C0.0961559 22.9716 0.116738 23.1458 0.140086 23.3178L0.794434 22.4699H0.799043V22.4626L9.83088 10.7718C10.2595 10.7756 10.6871 10.8123 11.1101 10.8815L0.419336 24.7288C0.49583 25.0311 0.579697 25.3279 0.677389 25.6172L6.11493 18.577C5.88013 19.3118 5.74922 20.0759 5.726 20.847L1.14373 26.7812C1.1852 26.8734 1.22299 26.9656 1.26722 27.0513C1.51352 27.5539 1.79726 28.0372 2.11603 28.4973C2.26533 28.7102 2.42109 28.9166 2.58237 29.1139C2.81265 29.3973 3.05881 29.6675 3.31966 29.923C3.49846 30.0972 3.68831 30.2631 3.87724 30.4226C4.13567 30.6392 4.40548 30.842 4.6855 31.0299C4.70485 31.0428 4.72513 31.0529 4.74448 31.0658C4.86153 31.1423 4.98134 31.2142 5.10207 31.2843C5.51631 31.5293 5.95111 31.7378 6.40155 31.9073H6.40984C6.56007 31.9635 6.71398 32.0133 6.87065 32.0603C7.35219 32.2092 7.84548 32.3171 8.34524 32.3828C8.49915 32.4031 8.65582 32.4179 8.81342 32.4298C9.0899 32.4529 9.37376 32.4685 9.66131 32.4685C9.98848 32.4685 10.3064 32.4473 10.6244 32.4169C11.2689 32.3584 11.9055 32.2327 12.5238 32.0418C12.857 31.9355 13.1846 31.8124 13.5054 31.6732C13.7137 31.581 13.9146 31.4889 14.11 31.3875C14.168 31.358 14.227 31.3285 14.2851 31.2953C14.3431 31.2621 14.4242 31.2179 14.4924 31.1783C14.6454 31.0861 14.7956 30.9995 14.9394 30.9018C15.0196 30.8474 15.0942 30.7903 15.1717 30.7341C15.6039 30.4226 15.9983 30.0616 16.3467 29.6585L16.4573 31.1497L16.5191 31.9792V32.0206H21.822V34.0187H22.5759V32.0252H23.8238V31.2787H22.5759V7.98949L15.7126 16.8665C15.4994 16.5672 15.2557 16.2908 14.9855 16.0417L22.5759 6.22275V5.00161L16.7863 12.4971V10.7313L22.5759 3.23487V2.73167H23.9786V1.98516H21.2285ZM1.93171 15.8149C2.70771 14.2482 3.78324 13.0022 5.12787 12.1054C5.37483 11.9432 5.63084 11.7952 5.89466 11.6621L1.20455 17.7347C1.38546 17.0731 1.62895 16.4303 1.93171 15.8149ZM0.752039 21.3087C0.752039 21.2949 0.752039 21.281 0.752039 21.2681C0.752228 20.6369 0.794409 20.0063 0.878302 19.3807L7.26326 11.1128C7.78367 10.963 8.31729 10.8637 8.85674 10.8161L0.752039 21.3087ZM14.5542 12.298C14.5717 12.31 14.5864 12.3238 14.6039 12.3358L12.6805 14.8242C12.2681 14.7316 11.847 14.6828 11.4244 14.6786L13.6731 11.7672C13.976 11.9258 14.2687 12.1031 14.5496 12.298H14.5542ZM11.9101 11.0603C12.0437 11.0972 12.1773 11.1313 12.3073 11.1746C12.5395 11.252 12.7681 11.3405 12.9865 11.4345L10.4355 14.7366C9.77856 14.8261 9.14603 15.0454 8.57472 15.3818L11.9101 11.0603ZM2.0082 26.8725L5.73983 22.0405C5.77643 22.5317 5.85693 23.0188 5.98037 23.4957L2.59527 27.878C2.38111 27.5539 2.18512 27.2183 2.0082 26.8725ZM3.78232 29.3286C3.5231 29.0694 3.27967 28.7949 3.05332 28.5065L6.26331 24.3463C6.30294 24.4385 6.34164 24.5371 6.38496 24.6293C6.51003 24.8958 6.65353 25.1532 6.81443 25.3997L3.78232 29.3286ZM5.10115 30.4087C4.83595 30.2308 4.58089 30.0382 4.33713 29.8318L7.27708 26.02C7.51335 26.2955 7.77706 26.5463 8.06415 26.7683L5.20253 30.4723C5.17211 30.4502 5.13617 30.4318 5.10115 30.4087ZM5.86148 30.8465L8.69177 27.1812C9.01906 27.3629 9.36639 27.5057 9.72674 27.607L6.89001 31.2815C6.53704 31.1617 6.19329 31.0163 5.86148 30.8465ZM8.88162 31.6898C8.47134 31.6572 8.06389 31.5956 7.66232 31.5055L10.5442 27.7738C10.8035 27.8062 11.0645 27.8225 11.3257 27.8227C11.5193 27.8227 11.7064 27.8116 11.8916 27.7959L8.88162 31.6898ZM21.8248 31.2787H21.6783L21.8248 31.0898V31.2787ZM21.8248 29.8687L20.7327 31.2787H19.3687L21.822 28.1028L21.8248 29.8687ZM21.8248 26.8808L18.4286 31.2787H17.2149L17.202 31.0999L21.8248 25.115V26.8808ZM21.8248 23.8938L17.119 29.9857L17.0914 29.6106L16.9992 28.3747L21.8248 22.1271V23.8938ZM21.8248 20.9059L14.65 30.2004C14.6085 30.2299 14.5689 30.2613 14.5265 30.2926C13.8826 30.7161 13.1841 31.0501 12.4501 31.2852L21.8248 19.1401V20.9059ZM21.8248 17.9181L11.2751 31.5783C10.7882 31.6655 10.295 31.713 9.80047 31.7202L12.9911 27.5877C13.4689 27.4488 13.9228 27.2385 14.3376 26.9637C15.1968 26.3833 15.8731 25.5704 16.2877 24.6201C16.5755 23.9715 16.767 23.2844 16.8564 22.5805L21.8248 16.1486V17.9181ZM21.8248 14.9311L16.9402 21.2506C16.9406 20.7153 16.8971 20.1808 16.8103 19.6525L21.8211 13.1644L21.8248 14.9311ZM21.8248 10.1765V11.9432L16.5974 18.7097C16.5135 18.4244 16.4104 18.1451 16.2887 17.8738C16.2389 17.7623 16.1845 17.6554 16.1292 17.5494L21.8248 10.1765ZM15.2316 17.4923C15.2988 17.5964 15.3624 17.7042 15.4242 17.8148L15.4325 17.8296C15.4942 17.9429 15.5532 18.0609 15.6085 18.1826C15.7913 18.5925 15.9288 19.0211 16.0186 19.4608C16.0901 19.8007 16.1393 20.1449 16.1661 20.4912C16.1864 20.7419 16.1974 21 16.1974 21.2681C16.1975 21.6099 16.1784 21.9515 16.1403 22.2911C16.077 22.9003 15.9322 23.4983 15.7099 24.0689C15.6776 24.151 15.6444 24.233 15.6085 24.3122C15.2626 25.1086 14.7035 25.794 13.9929 26.2928C13.9699 26.3085 13.9477 26.326 13.9238 26.3416C13.8252 26.408 13.7229 26.4697 13.6178 26.526L13.5597 26.5545C13.4676 26.6025 13.3754 26.6467 13.2833 26.6882L13.2427 26.7048C13.1395 26.7481 13.0344 26.7886 12.9266 26.8236L12.9118 26.8292C12.7957 26.867 12.6759 26.9011 12.5543 26.9306C12.1511 27.0259 11.7381 27.0732 11.3239 27.0716C11.2437 27.0716 11.1654 27.0716 11.087 27.0642C10.7968 27.0542 10.5079 27.0197 10.2235 26.961C9.85125 26.8831 9.49131 26.755 9.1535 26.5803C9.08898 26.5462 9.02539 26.5112 8.9618 26.4753C8.89821 26.4393 8.81803 26.3896 8.74891 26.3426C8.67241 26.291 8.59776 26.2357 8.52495 26.1785C8.23705 25.9564 7.97656 25.7008 7.74895 25.4173C7.66969 25.3186 7.59412 25.2163 7.52131 25.1104L7.5121 25.0965C7.44021 24.9915 7.37109 24.8818 7.30566 24.7694C7.22087 24.6228 7.13884 24.4726 7.06419 24.3132C6.96413 24.0984 6.87733 23.8777 6.8043 23.6524C6.75637 23.5067 6.71213 23.3565 6.67711 23.2035V23.1906C6.64025 23.0383 6.60953 22.8831 6.58495 22.7252C6.50223 22.2443 6.46152 21.7571 6.4633 21.2691C6.4633 21.2156 6.4633 21.164 6.4633 21.1115C6.46885 20.6461 6.512 20.1819 6.59232 19.7235C6.68432 19.1918 6.84446 18.6742 7.0688 18.1835C7.43499 17.3667 8.01757 16.6655 8.75352 16.1559C9.05223 15.9541 9.3768 15.7935 9.71845 15.6785C10.0812 15.5563 10.4576 15.4789 10.8391 15.4481C10.9995 15.4343 11.1626 15.4251 11.3313 15.4251C11.6124 15.425 11.8931 15.4466 12.1709 15.4896C12.3054 15.5099 12.4372 15.5366 12.5662 15.567L12.5874 15.5725C12.7165 15.6039 12.8418 15.6407 12.9653 15.6831C13.3059 15.7979 13.63 15.9568 13.9293 16.1559C13.9376 16.1605 13.9441 16.167 13.9524 16.1716C14.0547 16.2407 14.1533 16.3145 14.2491 16.3919L14.2602 16.4011C14.3523 16.4776 14.4445 16.5568 14.5367 16.6407C14.8014 16.8958 15.0347 17.1817 15.2316 17.4923ZM14.4021 15.5781C14.3809 15.5633 14.3606 15.5467 14.3385 15.532C14.0552 15.3445 13.7531 15.187 13.4372 15.062L15.1799 12.8049C15.2896 12.9035 15.4011 13.0003 15.5034 13.1045L15.9569 13.5653L14.4021 15.5781ZM16.7817 2.73167H17.402L16.7817 3.53439V2.73167ZM16.7817 4.75922L18.3485 2.73167H19.7125L16.7854 6.52227L16.7817 4.75922ZM16.7817 9.51292V7.74249L20.6525 2.73074H22.0165L16.7817 9.51292Z" fill="#231F20"/>
</svg>
