<svg width="32" height="33" viewBox="0 0 32 33" fill="none" xmlns="http://www.w3.org/2000/svg">
<g clip-path="url(#clip0_123_2816)">
<path d="M0 16.5C0 25.3366 7.16344 32.5 16 32.5C24.8366 32.5 32 25.3366 32 16.5C32 7.66344 24.8366 0.5 16 0.5C7.16344 0.5 0 7.66344 0 16.5Z" fill="#F00073"/>
<path d="M16 9.7002C18.2 9.7002 18.5 9.7002 19.4 9.7002C20.2 9.7002 20.6 9.9002 20.9 10.0002C21.3 10.2002 21.6 10.3002 21.9 10.6002C22.2 10.9002 22.4 11.2002 22.5 11.6002C22.6 11.9002 22.7 12.3002 22.8 13.1002C22.8 14.0002 22.8 14.2002 22.8 16.5002C22.8 18.8002 22.8 19.0002 22.8 19.9002C22.8 20.7002 22.6 21.1002 22.5 21.4002C22.3 21.8002 22.2 22.1002 21.9 22.4002C21.6 22.7002 21.3 22.9002 20.9 23.0002C20.6 23.1002 20.2 23.2002 19.4 23.3002C18.5 23.3002 18.3 23.3002 16 23.3002C13.7 23.3002 13.5 23.3002 12.6 23.3002C11.8 23.3002 11.4 23.1002 11.1 23.0002C10.7 22.8002 10.4 22.7002 10.1 22.4002C9.79995 22.1002 9.59995 21.8002 9.49995 21.4002C9.39995 21.1002 9.29995 20.7002 9.19995 19.9002C9.19995 19.0002 9.19995 18.8002 9.19995 16.5002C9.19995 14.2002 9.19995 14.0002 9.19995 13.1002C9.19995 12.3002 9.39995 11.9002 9.49995 11.6002C9.69995 11.2002 9.79995 10.9002 10.1 10.6002C10.4 10.3002 10.7 10.1002 11.1 10.0002C11.4 9.9002 11.8 9.8002 12.6 9.7002C13.5 9.7002 13.8 9.7002 16 9.7002ZM16 8.2002C13.7 8.2002 13.5 8.2002 12.6 8.2002C11.7 8.2002 11.1 8.4002 10.6 8.6002C10.1 8.8002 9.59995 9.1002 9.09995 9.6002C8.59995 10.1002 8.39995 10.5002 8.09995 11.1002C7.89995 11.6002 7.79995 12.2002 7.69995 13.1002C7.69995 14.0002 7.69995 14.3002 7.69995 16.5002C7.69995 18.8002 7.69995 19.0002 7.69995 19.9002C7.69995 20.8002 7.89995 21.4002 8.09995 21.9002C8.29995 22.4002 8.59995 22.9002 9.09995 23.4002C9.59995 23.9002 9.99995 24.1002 10.6 24.4002C11.1 24.6002 11.7 24.7002 12.6 24.8002C13.5 24.8002 13.8 24.8002 16 24.8002C18.2 24.8002 18.5 24.8002 19.4 24.8002C20.3 24.8002 20.9 24.6002 21.4 24.4002C21.9 24.2002 22.4 23.9002 22.9 23.4002C23.4 22.9002 23.6 22.5002 23.9 21.9002C24.1 21.4002 24.1999 20.8002 24.2999 19.9002C24.2999 19.0002 24.2999 18.7002 24.2999 16.5002C24.2999 14.3002 24.2999 14.0002 24.2999 13.1002C24.2999 12.2002 24.1 11.6002 23.9 11.1002C23.7 10.6002 23.4 10.1002 22.9 9.6002C22.4 9.1002 22 8.9002 21.4 8.6002C20.9 8.4002 20.3 8.3002 19.4 8.2002C18.5 8.2002 18.3 8.2002 16 8.2002Z" fill="#D3D3D3"/>
<path d="M16 12.2002C13.6 12.2002 11.7 14.1002 11.7 16.5002C11.7 18.9002 13.6 20.8002 16 20.8002C18.4 20.8002 20.3 18.9002 20.3 16.5002C20.3 14.1002 18.4 12.2002 16 12.2002ZM16 19.3002C14.5 19.3002 13.2 18.1002 13.2 16.5002C13.2 15.0002 14.4 13.7002 16 13.7002C17.5 13.7002 18.8 14.9002 18.8 16.5002C18.8 18.0002 17.5 19.3002 16 19.3002Z" fill="#D3D3D3"/>
<path d="M20.3999 13.0996C20.9522 13.0996 21.3999 12.6519 21.3999 12.0996C21.3999 11.5473 20.9522 11.0996 20.3999 11.0996C19.8476 11.0996 19.3999 11.5473 19.3999 12.0996C19.3999 12.6519 19.8476 13.0996 20.3999 13.0996Z" fill="#D3D3D3"/>
</g>
<defs>
<clipPath id="clip0_123_2816">
<rect width="32" height="32" fill="white" transform="translate(0 0.5)"/>
</clipPath>
</defs>
</svg>
