<svg width="32" height="33" viewBox="0 0 32 33" fill="none" xmlns="http://www.w3.org/2000/svg">
<g clip-path="url(#clip0_123_2821)">
<path d="M32 16.5C32 7.66344 24.8366 0.5 16 0.5C7.16344 0.5 0 7.66344 0 16.5C0 25.3366 7.16344 32.5 16 32.5C24.8366 32.5 32 25.3366 32 16.5Z" fill="black"/>
<path d="M15.9834 16.4997C15.9834 15.027 17.1773 13.833 18.65 13.833C20.1228 13.833 21.3167 15.027 21.3167 16.4997C21.3167 17.9725 20.1228 19.1664 18.65 19.1664C17.1773 19.1664 15.9834 17.9725 15.9834 16.4997Z" fill="#1ABCFE"/>
<path d="M10.6499 21.8336C10.6499 20.3609 11.8438 19.167 13.3166 19.167H15.9833V21.8336C15.9833 23.3064 14.7894 24.5003 13.3166 24.5003C11.8438 24.5003 10.6499 23.3064 10.6499 21.8336Z" fill="#0ACF83"/>
<path d="M15.9834 8.5V13.8333H18.65C20.1228 13.8333 21.3167 12.6394 21.3167 11.1667C21.3167 9.69391 20.1228 8.5 18.65 8.5H15.9834Z" fill="#FF7262"/>
<path d="M10.6499 11.1667C10.6499 12.6394 11.8438 13.8333 13.3166 13.8333H15.9833V8.5H13.3166C11.8438 8.5 10.6499 9.69391 10.6499 11.1667Z" fill="#F24E1E"/>
<path d="M10.6499 16.4997C10.6499 17.9725 11.8438 19.1664 13.3166 19.1664H15.9833V13.833H13.3166C11.8438 13.833 10.6499 15.027 10.6499 16.4997Z" fill="#A259FF"/>
</g>
<defs>
<clipPath id="clip0_123_2821">
<rect width="32" height="32" fill="white" transform="translate(0 0.5)"/>
</clipPath>
</defs>
</svg>
