<svg width="32" height="33" viewBox="0 0 32 33" fill="none" xmlns="http://www.w3.org/2000/svg">
<g clip-path="url(#clip0_123_2810)">
<path d="M0 16.5C0 7.66344 7.16344 0.5 16 0.5C24.8366 0.5 32 7.66344 32 16.5C32 25.3366 24.8366 32.5 16 32.5C7.16344 32.5 0 25.3366 0 16.5Z" fill="#1157FF"/>
<path d="M12.6537 11.5C13.1155 11.5 13.5418 11.5355 13.9326 11.6421C14.3234 11.7131 14.6431 11.8552 14.9273 12.0329C15.2115 12.2105 15.4246 12.4592 15.5667 12.7789C15.7088 13.0986 15.7799 13.4894 15.7799 13.9157C15.7799 14.413 15.6733 14.8393 15.4246 15.159C15.2115 15.4788 14.8562 15.763 14.43 15.9761C15.0339 16.1537 15.4957 16.4734 15.7799 16.8997C16.0641 17.326 16.2417 17.8589 16.2417 18.4628C16.2417 18.9602 16.1351 19.3865 15.9575 19.7417C15.7799 20.0969 15.4957 20.4167 15.176 20.6298C14.8562 20.843 14.4655 21.0206 14.0392 21.1272C13.6129 21.2337 13.1866 21.3048 12.7603 21.3048H8V11.5H12.6537ZM12.3695 15.4788C12.7603 15.4788 13.08 15.3722 13.3287 15.1946C13.5774 15.0169 13.6839 14.6972 13.6839 14.3064C13.6839 14.0933 13.6484 13.8801 13.5774 13.738C13.5063 13.596 13.3997 13.4894 13.2576 13.3828C13.1155 13.3118 12.9734 13.2407 12.7958 13.2052C12.6182 13.1697 12.4406 13.1697 12.2274 13.1697H10.167V15.4788H12.3695ZM12.4761 19.6707C12.6892 19.6707 12.9024 19.6351 13.08 19.5996C13.2576 19.5641 13.4353 19.493 13.5774 19.3865C13.7195 19.2799 13.826 19.1733 13.9326 18.9957C14.0037 18.8181 14.0747 18.6049 14.0747 18.3562C14.0747 17.8589 13.9326 17.5037 13.6484 17.255C13.3642 17.0418 12.9734 16.9353 12.5116 16.9353H10.167V19.6707H12.4761ZM19.3323 19.6351C19.6165 19.9193 20.0428 20.0614 20.6112 20.0614C21.002 20.0614 21.3572 19.9549 21.6414 19.7772C21.9256 19.5641 22.1033 19.3509 22.1743 19.1378H23.915C23.6308 19.9904 23.2045 20.5943 22.6361 20.9851C22.0677 21.3403 21.3928 21.5535 20.5757 21.5535C20.0073 21.5535 19.51 21.4469 19.0481 21.2693C18.5863 21.0916 18.2311 20.843 17.9114 20.4877C17.5916 20.168 17.343 19.7772 17.2009 19.3154C17.0232 18.8536 16.9522 18.3562 16.9522 17.7879C16.9522 17.255 17.0232 16.7576 17.2009 16.2958C17.3785 15.834 17.6272 15.4432 17.9469 15.088C18.2666 14.7683 18.6574 14.4841 19.0837 14.3064C19.5455 14.1288 20.0073 14.0222 20.5757 14.0222C21.1796 14.0222 21.7125 14.1288 22.1743 14.3775C22.6361 14.6262 22.9914 14.9104 23.2756 15.3367C23.5598 15.7274 23.7729 16.1892 23.915 16.6866C23.9861 17.1839 24.0216 17.6813 23.9861 18.2497H18.835C18.835 18.8181 19.0481 19.3509 19.3323 19.6351ZM21.5704 15.905C21.3217 15.6564 20.9309 15.5143 20.4691 15.5143C20.1494 15.5143 19.9007 15.5853 19.6876 15.6919C19.4744 15.7985 19.3323 15.9406 19.1902 16.0827C19.0481 16.2248 18.9771 16.4024 18.9416 16.58C18.906 16.7576 18.8705 16.8997 18.8705 17.0418H22.0677C21.9967 16.509 21.8191 16.1537 21.5704 15.905ZM18.4442 12.175H22.423V13.1341H18.4442V12.175Z" fill="white"/>
</g>
<defs>
<clipPath id="clip0_123_2810">
<rect width="32" height="32" fill="white" transform="translate(0 0.5)"/>
</clipPath>
</defs>
</svg>
