<svg width="50" height="44" viewBox="0 0 50 44" fill="none" xmlns="http://www.w3.org/2000/svg">
<path d="M49.344 0.697209C48.9806 0.669799 48.6625 0.942726 48.6359 1.30576C48.6229 1.48299 47.1365 19.1784 34.1553 30.2893C26.456 36.8791 16.2819 39.8666 3.90539 39.2002L6.05639 37.9487C6.37071 37.765 6.47831 37.3622 6.29484 37.0458C6.11226 36.7306 5.7077 36.6236 5.39279 36.807L0.5 39.6541L4.9411 43.2646C5.22319 43.4947 5.63926 43.4517 5.86907 43.1687C5.90174 43.1288 5.92847 43.086 5.95046 43.041C6.08181 42.7716 6.01565 42.4376 5.77343 42.2401L3.63962 40.5055C16.4533 41.233 27.0069 38.145 35.0138 31.2918C39.6438 27.3288 42.8549 22.5578 45.0772 18.0014C49.2835 9.37743 49.9428 1.52458 49.9519 1.40495C49.9796 1.04249 49.7076 0.725502 49.344 0.697209Z" fill="black"/>
</svg>
