<svg width="31" height="30" viewBox="0 0 31 30" fill="none" xmlns="http://www.w3.org/2000/svg">
<path d="M30.1429 11.3429C29.7127 10.0204 28.7754 8.92272 27.5366 8.29064C26.2979 7.65857 24.859 7.54375 23.5358 7.97143L20.9929 8.8V6.1286C20.9929 4.73811 20.4405 3.40456 19.4573 2.42134C18.4741 1.43811 17.1405 0.885742 15.75 0.885742C14.3595 0.885742 13.026 1.43811 12.0428 2.42134C11.0596 3.40456 10.5071 4.73811 10.5071 6.1286V9.07857L7.52857 8.11429C6.85347 7.86864 6.13578 7.7615 5.41833 7.79929C4.70089 7.837 3.99839 8.01886 3.35276 8.334C2.70711 8.64907 2.13157 9.091 1.66043 9.63343C1.18928 10.1758 0.832198 10.8075 0.610488 11.4909C0.388778 12.1742 0.306981 12.8952 0.369966 13.6109C0.432952 14.3266 0.639428 15.0222 0.977091 15.6564C1.31476 16.2905 1.77668 16.8501 2.33532 17.3019C2.89396 17.7536 3.53786 18.0882 4.22861 18.2857L6.81432 19.1214L5.21431 21.3214C4.80158 21.8894 4.50478 22.5331 4.34083 23.2158C4.17687 23.8985 4.14896 24.6068 4.25873 25.3002C4.48043 26.7007 5.24938 27.9558 6.39645 28.7893C7.5435 29.6229 8.97471 29.9666 10.3752 29.7449C11.7757 29.5232 13.0308 28.7542 13.8643 27.6071L15.4643 25.4071L17.0644 27.6071C17.8979 28.7542 19.1529 29.5232 20.5534 29.7449C21.9539 29.9666 23.3851 29.6229 24.5321 28.7893C25.6792 27.9558 26.4482 26.7007 26.6699 25.3002C26.8916 23.8997 26.5479 22.4685 25.7143 21.3214L23.9071 18.8714L26.7643 17.95C28.0881 17.5213 29.1875 16.5846 29.821 15.3457C30.4545 14.1068 30.5703 12.6671 30.1429 11.3429Z" fill="#80DDFF"/>
</svg>
