<svg width="25" height="24" viewBox="0 0 25 24" fill="none" xmlns="http://www.w3.org/2000/svg">
<path d="M22.31 3.93988C20.77 7.77988 16.91 12.9999 13.68 15.5899L11.71 17.1699C11.46 17.3499 11.21 17.5099 10.93 17.6199C10.93 17.4399 10.92 17.2399 10.89 17.0499C10.78 16.2099 10.4 15.4299 9.73002 14.7599C9.05002 14.0799 8.22002 13.6799 7.37002 13.5699C7.17002 13.5599 6.97002 13.5399 6.77002 13.5599C6.88002 13.2499 7.05002 12.9599 7.26002 12.7199L8.82002 10.7499C11.4 7.51988 16.64 3.63988 20.47 2.10988C21.06 1.88988 21.63 2.04988 21.99 2.41988C22.37 2.78988 22.55 3.35988 22.31 3.93988Z" stroke="white" stroke-width="1.5" stroke-linecap="round" stroke-linejoin="round"/>
<path d="M10.93 17.6198C10.93 18.7198 10.51 19.7698 9.72003 20.5698C9.11003 21.1798 8.28003 21.5998 7.29003 21.7298L4.83003 21.9998C3.49003 22.1498 2.34003 21.0098 2.50003 19.6498L2.77003 17.1898C3.01003 14.9998 4.84003 13.5998 6.78003 13.5598C6.98003 13.5498 7.19003 13.5598 7.38003 13.5698C8.23003 13.6798 9.06003 14.0698 9.74003 14.7598C10.41 15.4298 10.79 16.2098 10.9 17.0498C10.91 17.2398 10.93 17.4298 10.93 17.6198Z" stroke="white" stroke-width="1.5" stroke-linecap="round" stroke-linejoin="round"/>
<path d="M14.74 14.4702C14.74 11.8602 12.62 9.74023 10.01 9.74023" stroke="white" stroke-width="1.5" stroke-linecap="round" stroke-linejoin="round"/>
</svg>
