<svg width="24" height="24" viewBox="0 0 24 24" fill="none" xmlns="http://www.w3.org/2000/svg">
<path d="M21.8095 3.94C20.2695 7.78 16.4095 13 13.1795 15.59L11.2095 17.17C10.9595 17.35 10.7095 17.51 10.4295 17.62C10.4295 17.44 10.4195 17.24 10.3895 17.05C10.2795 16.21 9.89953 15.43 9.22953 14.76C8.54953 14.08 7.71953 13.68 6.86953 13.57C6.66953 13.56 6.46953 13.54 6.26953 13.56C6.37953 13.25 6.54953 12.96 6.75953 12.72L8.31953 10.75C10.8995 7.52 16.1395 3.64 19.9695 2.11C20.5595 1.89 21.1295 2.05 21.4895 2.42C21.8695 2.79 22.0495 3.36 21.8095 3.94Z" stroke="black" stroke-width="1.5" stroke-linecap="round" stroke-linejoin="round"/>
<path d="M10.4293 17.62C10.4293 18.72 10.0093 19.77 9.2193 20.57C8.6093 21.18 7.7793 21.6 6.7893 21.73L4.3293 22C2.9893 22.15 1.8393 21.01 1.9993 19.65L2.2693 17.19C2.5093 15 4.3393 13.6 6.2793 13.56C6.4793 13.55 6.6893 13.56 6.8793 13.57C7.7293 13.68 8.5593 14.07 9.2393 14.76C9.9093 15.43 10.2893 16.21 10.3993 17.05C10.4093 17.24 10.4293 17.43 10.4293 17.62Z" stroke="black" stroke-width="1.5" stroke-linecap="round" stroke-linejoin="round"/>
<path d="M14.2398 14.47C14.2398 11.86 12.1198 9.74001 9.50977 9.74001" stroke="black" stroke-width="1.5" stroke-linecap="round" stroke-linejoin="round"/>
</svg>
