<svg width="18" height="19" viewBox="0 0 18 19" fill="none" xmlns="http://www.w3.org/2000/svg">
<path d="M13.5 17.9375C14.5443 17.9375 15.5458 17.5227 16.2843 16.7843C17.0227 16.0458 17.4375 15.0443 17.4375 14C17.4375 12.9557 17.0227 11.9542 16.2843 11.2158C15.5458 10.4774 14.5443 10.0625 13.5 10.0625H10.125C10.051 10.0618 9.97748 10.0758 9.9089 10.1038C9.84032 10.1319 9.77802 10.1733 9.72564 10.2256C9.67326 10.278 9.63185 10.3403 9.60384 10.4089C9.57584 10.4775 9.56179 10.551 9.56253 10.625V14C9.56366 15.044 9.97887 16.0448 10.717 16.783C11.4552 17.5212 12.4561 17.9364 13.5 17.9375Z" fill="#4A74C9"/>
<path d="M13.5 1.0625C12.4561 1.06363 11.4552 1.47884 10.717 2.21702C9.97887 2.9552 9.56366 3.95606 9.56253 5V8.375C9.56179 8.44907 9.57584 8.52255 9.60384 8.59113C9.63185 8.65971 9.67326 8.72201 9.72564 8.77439C9.77802 8.82677 9.84032 8.86818 9.9089 8.89618C9.97748 8.92419 10.051 8.93824 10.125 8.9375H13.5C14.5443 8.9375 15.5458 8.52266 16.2843 7.78423C17.0227 7.04581 17.4375 6.04429 17.4375 5C17.4375 3.95571 17.0227 2.95419 16.2843 2.21577C15.5458 1.47734 14.5443 1.0625 13.5 1.0625Z" fill="#4A74C9"/>
<path d="M4.5 17.9375C5.54394 17.9364 6.5448 17.5212 7.28298 16.783C8.02116 16.0448 8.43637 15.044 8.4375 14V10.625C8.43824 10.551 8.42419 10.4775 8.39618 10.4089C8.36818 10.3403 8.32677 10.278 8.27439 10.2256C8.22201 10.1733 8.15971 10.1319 8.09113 10.1038C8.02255 10.0758 7.94907 10.0618 7.875 10.0625H4.5C3.45571 10.0625 2.45419 10.4774 1.71577 11.2158C0.977343 11.9542 0.5625 12.9557 0.5625 14C0.5625 15.0443 0.977343 16.0458 1.71577 16.7843C2.45419 17.5227 3.45571 17.9375 4.5 17.9375Z" fill="#4A74C9"/>
<path d="M4.5 8.9375H7.875C7.94908 8.93824 8.02255 8.92419 8.09113 8.89618C8.15971 8.86818 8.22201 8.82677 8.27439 8.77439C8.32677 8.72201 8.36818 8.65971 8.39618 8.59113C8.42419 8.52255 8.43824 8.44908 8.4375 8.375V5C8.4375 4.22124 8.20657 3.45996 7.77391 2.81244C7.34126 2.16493 6.7263 1.66025 6.00682 1.36223C5.28733 1.06421 4.49563 0.98623 3.73183 1.13816C2.96803 1.29009 2.26644 1.6651 1.71577 2.21577C1.1651 2.76644 0.790089 3.46803 0.63816 4.23183C0.48623 4.99563 0.564206 5.78733 0.862226 6.50682C1.16025 7.2263 1.66493 7.84126 2.31244 8.27391C2.95996 8.70657 3.72124 8.9375 4.5 8.9375Z" fill="#4A74C9"/>
</svg>
