<svg width="18" height="18" viewBox="0 0 18 18" fill="none" xmlns="http://www.w3.org/2000/svg">
<path d="M16.8891 7.27656C16.3687 6.89336 16.1859 6.20781 16.4426 5.61367C16.6359 5.16719 16.6078 4.66797 16.3652 4.24609C16.1227 3.82422 15.7043 3.55 15.2191 3.49375C14.5758 3.41992 14.0766 2.9207 14.0027 2.27734C13.9465 1.79219 13.6723 1.37383 13.2504 1.13125C12.8285 0.888672 12.3293 0.860547 11.8828 1.05391C11.2887 1.31406 10.6066 1.12773 10.2199 0.607422C9.93516 0.217187 9.48867 -0.0078125 9 -0.0078125C8.51133 -0.0078125 8.06484 0.217188 7.77656 0.610938C7.39336 1.13125 6.70781 1.31406 6.11367 1.05742C5.66719 0.864062 5.16797 0.892187 4.74609 1.13477C4.32422 1.37734 4.05 1.79219 3.99375 2.27734C3.91992 2.9207 3.4207 3.41992 2.77734 3.49375C2.29219 3.55 1.87383 3.82422 1.63125 4.24609C1.38867 4.66797 1.36055 5.16719 1.55391 5.61367C1.81406 6.20781 1.62773 6.88984 1.10742 7.27656C0.717187 7.56484 0.492188 8.01133 0.492188 8.5C0.492188 8.98867 0.717188 9.43516 1.11094 9.72344C1.63125 10.1066 1.81406 10.7922 1.55742 11.3863C1.36406 11.8328 1.39219 12.332 1.63477 12.7539C1.87734 13.1758 2.2957 13.45 2.78086 13.5062C3.42422 13.5801 3.92344 14.0793 3.99727 14.7227C4.05352 15.2078 4.32773 15.6262 4.74961 15.8688C5.17148 16.1113 5.6707 16.1395 6.11719 15.9461C6.71133 15.6859 7.39336 15.8723 7.78008 16.3926C8.06836 16.7863 8.51484 17.0113 9.00352 17.0113C9.49219 17.0113 9.93867 16.7863 10.227 16.3926C10.6102 15.8723 11.2957 15.6895 11.8898 15.9461C12.3363 16.1395 12.8355 16.1113 13.2574 15.8688C13.6793 15.6262 13.9535 15.2078 14.0098 14.7227C14.0836 14.0793 14.5828 13.5801 15.2262 13.5062C15.7113 13.45 16.1297 13.1758 16.3723 12.7539C16.6148 12.332 16.643 11.8328 16.4496 11.3863C16.1895 10.7922 16.3758 10.1102 16.8961 9.72344C17.2898 9.43516 17.5148 8.98867 17.5148 8.5C17.5078 8.01133 17.2828 7.56484 16.8891 7.27656Z" fill="#E163DD"/>
</svg>
