<svg width="18" height="19" viewBox="0 0 18 19" fill="none" xmlns="http://www.w3.org/2000/svg">
<g clip-path="url(#clip0_123_2590)">
<path d="M10.327 4.97475C10.327 7.43615 9.75776 9.4308 9.0566 9.4308C8.35544 9.4308 7.78613 7.43615 7.78613 4.97475C7.78613 2.51334 8.35544 0.516602 9.0566 0.516602C9.75776 0.516602 10.327 2.51125 10.327 4.97475Z" fill="#8557DB"/>
<path d="M6.80228 5.38137C8.54368 7.12277 9.55252 8.93951 9.05647 9.43137C8.56042 9.92323 6.75414 8.91858 5.00647 7.17928C3.25879 5.43998 2.25624 3.62114 2.75228 3.12928C3.24833 2.63742 5.06298 3.64835 6.80228 5.38137Z" fill="#8557DB"/>
<path d="M4.59842 8.16016C7.05981 8.16016 9.05656 8.72946 9.05656 9.43062C9.05656 10.1318 7.05981 10.7032 4.59842 10.7032C2.13702 10.7032 0.152832 10.136 0.152832 9.43062C0.152832 8.72527 2.13702 8.16016 4.59842 8.16016Z" fill="#8557DB"/>
<path d="M6.80257 13.4808C8.54357 11.7398 9.55274 9.92621 9.05659 9.43006C8.56044 8.93391 6.74688 9.94308 5.00586 11.6841C3.26484 13.4251 2.25569 15.2387 2.75184 15.7348C3.24797 16.231 5.06155 15.2218 6.80257 13.4808Z" fill="#8557DB"/>
<path d="M7.78613 13.8888C7.78613 11.4274 8.35544 9.43066 9.0566 9.43066C9.75776 9.43066 10.327 11.4274 10.327 13.8888C10.327 16.3502 9.75776 18.3469 9.0566 18.3469C8.35544 18.3469 7.78613 16.3502 7.78613 13.8888Z" fill="#8557DB"/>
<path d="M15.3603 15.7358C15.8565 15.2396 14.8473 13.4261 13.1063 11.6851C11.3653 9.94404 9.5517 8.93489 9.05555 9.43104C8.5594 9.92717 9.56855 11.7408 11.3096 13.4818C13.0506 15.2228 14.8642 16.2319 15.3603 15.7358Z" fill="#8557DB"/>
<path d="M13.5145 10.7032C11.051 10.7032 9.0564 10.1339 9.0564 9.43062C9.0564 8.72737 11.051 8.16016 13.5145 8.16016C15.978 8.16016 17.9706 8.72946 17.9706 9.43062C17.9706 10.1318 15.9759 10.7032 13.5145 10.7032Z" fill="#8557DB"/>
<path d="M13.1065 7.17868C11.3651 8.91798 9.54836 9.92682 9.0565 9.43077C8.56464 8.93473 9.56929 7.12845 11.3086 5.38077C13.0479 3.6331 14.8667 2.63054 15.3607 3.12868C15.8546 3.62682 14.8479 5.43729 13.1065 7.17868Z" fill="#8557DB"/>
</g>
<defs>
<clipPath id="clip0_123_2590">
<rect width="18" height="18" fill="white" transform="translate(0 0.5)"/>
</clipPath>
</defs>
</svg>
