<svg width="19" height="19" viewBox="0 0 19 19" fill="none" xmlns="http://www.w3.org/2000/svg">
<path d="M18.0856 7.00571C17.8275 6.21226 17.2651 5.55363 16.5218 5.17439C15.7786 4.79514 14.9153 4.72625 14.1213 4.98286L12.5956 5.48V3.87716C12.5956 3.04286 12.2642 2.24274 11.6742 1.6528C11.0843 1.06287 10.2842 0.731445 9.44985 0.731445C8.61555 0.731445 7.81545 1.06287 7.22552 1.6528C6.6356 2.24274 6.30414 3.04286 6.30414 3.87716V5.64714L4.517 5.06857C4.11194 4.92119 3.68132 4.8569 3.25085 4.87957C2.82039 4.9022 2.39889 5.01131 2.01151 5.2004C1.62412 5.38944 1.2788 5.6546 0.99611 5.98006C0.713424 6.30547 0.499172 6.6845 0.366146 7.09451C0.23312 7.50453 0.184042 7.93713 0.221833 8.36656C0.259625 8.79594 0.383511 9.21333 0.586108 9.59381C0.788707 9.9743 1.06586 10.3101 1.40105 10.5812C1.73623 10.8522 2.12257 11.0529 2.53702 11.1714L4.08845 11.6729L3.12844 12.9929C2.8808 13.3337 2.70272 13.7199 2.60435 14.1295C2.50598 14.5391 2.48923 14.9641 2.55509 15.3801C2.68811 16.2204 3.14948 16.9735 3.83772 17.4736C4.52595 17.9737 5.38468 18.1799 6.22498 18.0469C7.06528 17.9139 7.81832 17.4525 8.31842 16.7643L9.27842 15.4443L10.2385 16.7643C10.7386 17.4525 11.4916 17.9139 12.3319 18.0469C13.1722 18.1799 14.0309 17.9737 14.7191 17.4736C15.4074 16.9735 15.8688 16.2204 16.0018 15.3801C16.1348 14.5398 15.9286 13.6811 15.4284 12.9929L14.3441 11.5229L16.0584 10.97C16.8527 10.7128 17.5124 10.1507 17.8925 9.40743C18.2726 8.66407 18.342 7.80024 18.0856 7.00571Z" fill="#FFC22F"/>
</svg>
