<svg width="50" height="50" viewBox="0 0 50 50" fill="none" xmlns="http://www.w3.org/2000/svg">
<path d="M49.0698 18.0715C48.3694 15.8674 46.8435 14.0379 44.827 12.9844C42.8105 11.931 40.468 11.7396 38.3139 12.4524L34.1744 13.8334V9.38104C34.1744 7.06355 33.2751 4.84098 31.6745 3.20227C30.0739 1.56356 27.903 0.642944 25.6394 0.642944C23.3758 0.642944 21.205 1.56356 19.6044 3.20227C18.0038 4.84098 17.1045 7.06355 17.1045 9.38104V14.2977L12.2557 12.6905C11.1567 12.2811 9.98834 12.1025 8.82041 12.1655C7.65248 12.2284 6.50888 12.5315 5.45784 13.0567C4.4068 13.5818 3.46987 14.3184 2.70289 15.2224C1.93591 16.1264 1.35461 17.1792 0.993688 18.3181C0.632763 19.4571 0.499606 20.6587 0.60214 21.8516C0.704675 23.0443 1.0408 24.2037 1.59048 25.2606C2.14017 26.3175 2.89215 27.2503 3.80155 28.0033C4.71096 28.7561 5.75917 29.3137 6.88365 29.6429L11.0929 31.0358L8.48827 34.7024C7.81639 35.6491 7.33324 36.7219 7.06633 37.8597C6.79943 38.9975 6.75399 40.178 6.93269 41.3337C7.29359 43.6679 8.54538 45.7597 10.4127 47.1488C12.28 48.5381 14.6099 49.111 16.8898 48.7415C19.1696 48.3721 21.2128 47.0904 22.5696 45.1786L25.1743 41.5119L27.7791 45.1786C29.1359 47.0904 31.1791 48.3721 33.4589 48.7415C35.7388 49.111 38.0687 48.5381 39.9359 47.1488C41.8032 45.7597 43.0551 43.6679 43.4159 41.3337C43.7768 38.9996 43.2173 36.6142 41.8603 34.7024L38.9185 30.6191L43.5696 29.0834C45.7246 28.3689 47.5144 26.8077 48.5457 24.7429C49.577 22.678 49.7655 20.2785 49.0698 18.0715Z" fill="#4AD75E"/>
</svg>
