<svg width="60" height="60" viewBox="0 0 60 60" fill="none" xmlns="http://www.w3.org/2000/svg">
<path d="M21 39.4996C21 34.3474 23.121 29.6836 26.5314 26.326C24.6936 25.4824 22.6566 25 20.5002 25C12.492 25 6 31.492 6 39.4996C6 47.5078 12.492 53.9998 20.5002 53.9998C22.6566 53.9998 24.693 53.5174 26.5314 52.6738C23.121 49.3162 21 44.6524 21 39.4996Z" fill="white"/>
<path d="M39.4998 39C34.3476 39 29.6838 36.879 26.3262 33.4668C25.4826 35.3064 25.0002 37.3434 25.0002 39.4998C25.0002 47.508 31.4922 54 39.4998 54C47.508 54 54 47.508 54 39.4998C54 37.3434 53.5176 35.307 52.674 33.4668C49.3164 36.879 44.6526 39 39.4998 39Z" fill="white"/>
<path d="M39.4998 6C37.3434 6 35.307 6.4824 33.4668 7.326C36.879 10.6836 39 15.3474 39 20.5002C39 25.6524 36.879 30.3162 33.4668 33.6738C35.3064 34.5174 37.3434 34.9998 39.4998 34.9998C47.508 34.9998 54 28.5078 54 20.5002C54 12.492 47.508 6 39.4998 6Z" fill="white"/>
<path d="M20.5002 21C25.6524 21 30.3162 23.121 33.6738 26.5314C34.5174 24.6936 34.9998 22.6566 34.9998 20.5002C34.9998 12.492 28.5078 6 20.5002 6C12.492 6 6 12.492 6 20.5002C6 22.6566 6.4824 24.693 7.326 26.5314C10.6836 23.121 15.3474 21 20.5002 21Z" fill="white"/>
</svg>
