<svg width="70" height="70" viewBox="0 0 70 70" fill="none" xmlns="http://www.w3.org/2000/svg">
<path d="M0.998508 50.2826C10.4665 57.2862 21.3811 63.6887 34.3672 69.8557C34.5178 69.9277 34.6836 69.9244 34.8243 69.8611C46.7152 64.5091 58.2069 58.1044 68.9818 50.8226C69.3189 50.5946 69.2971 50.0895 68.9381 49.892C64.4589 47.4375 59.972 45.0756 55.7414 42.8666C60.2338 40.2735 64.6847 37.4971 68.9818 34.5887C69.3211 34.3597 69.2938 33.8513 68.9371 33.6582C64.5789 31.2757 60.2534 28.9946 56.4985 27.0298C60.6549 24.6036 64.8483 21.9691 68.9807 19.1764C69.32 18.9473 69.2927 18.44 68.9371 18.2458C57.6756 12.0931 46.0978 6.33856 34.8025 0.157465C34.6443 0.0701922 34.4534 0.0680103 34.2909 0.150919C23.2661 5.81056 12.1116 12.0582 1.07378 17.7222C0.714872 17.9066 0.674508 18.4073 0.999599 18.6473C4.81233 21.464 8.89014 24.1957 13.1196 26.7876C8.88578 29.0491 5.00105 31.112 1.07487 33.1226C0.714872 33.308 0.674508 33.8055 0.999599 34.0476C5.03705 37.0324 9.36033 39.9156 13.8472 42.6386C9.00142 45.2382 4.91596 47.3884 1.07487 49.3586C0.713781 49.5418 0.674508 50.0404 0.998508 50.2826ZM55.1141 43.9018L54.9101 44.1058L54.4291 43.6258C54.4945 43.5887 54.5611 43.5527 54.6265 43.5157C54.8327 43.6237 55.0465 43.736 55.2549 43.844C55.2058 43.8538 55.1534 43.8626 55.1141 43.9018ZM53.1363 44.3469C53.4014 44.1975 53.6698 44.0524 53.9349 43.9018L54.5251 44.492L53.9032 45.1138L53.1363 44.3469ZM51.3287 46.1207L50.8378 45.6309C50.9174 45.5873 52.6072 44.6426 52.6411 44.624L52.7338 44.7167L51.3287 46.1207ZM50.6905 30.3298L50.3731 30.6473L50.2803 30.5546C50.4952 30.4378 50.6141 30.3713 50.6905 30.3298ZM34.5341 1.25274C45.4574 7.22547 56.6611 12.8087 67.6269 18.7738C63.4749 21.5567 59.2661 24.1826 55.1032 26.5869C48.5185 30.4193 41.6251 33.9647 34.6072 37.1273C23.3141 31.7437 12.464 25.6673 2.3556 18.2906C13.0771 12.7629 23.8814 6.73019 34.5341 1.25274ZM37.4338 37.0127L37.9858 37.5647L36.9832 38.5673L36.0658 37.6498C36.5229 37.4404 36.9778 37.2255 37.4338 37.0127ZM37.9596 36.7684C38.2672 36.6244 38.5749 36.4847 38.8825 36.3397L39.0472 36.5044L38.372 37.1797L37.9596 36.7684ZM39.4094 36.0942C39.4389 36.08 39.4683 36.0669 39.4978 36.0527L39.4334 36.1171L39.4094 36.0942ZM14.1952 27.4509C20.6425 31.3531 27.5905 34.9967 34.3672 38.2204C34.4403 38.2553 34.52 38.2727 34.5985 38.2727C34.6171 38.2793 34.7294 38.2684 34.8243 38.2258C35.0632 38.1178 35.2989 38.0022 35.5378 37.8942L36.5971 38.9535L36.4629 39.0877C36.356 39.1946 36.356 39.3669 36.4629 39.4738C36.5698 39.5807 36.7421 39.5807 36.8491 39.4738L36.9832 39.3397L37.4174 39.7738C37.5243 39.8807 37.6967 39.8807 37.8036 39.7738C37.9105 39.6669 37.9105 39.4946 37.8036 39.3876L37.3694 38.9535L38.372 37.9509L38.6251 38.204C38.732 38.3109 38.9043 38.3109 39.0112 38.204C39.1181 38.0971 39.1181 37.9247 39.0112 37.8178L38.7581 37.5647L39.4334 36.8895L40.2658 37.7218C40.3727 37.8287 40.5451 37.8287 40.652 37.7218C40.7589 37.6149 40.7589 37.4426 40.652 37.3357L39.8196 36.5033L40.6061 35.7167C40.6694 35.6535 40.6825 35.5717 40.6716 35.4898C41.0611 35.3011 41.4451 35.1036 41.8323 34.9127C41.8574 34.9007 41.8836 34.8876 41.9087 34.8746L42.3538 35.3196L41.444 36.2295C41.3371 36.3364 41.3371 36.5087 41.444 36.6157C41.5509 36.7226 41.7232 36.7226 41.8301 36.6157L42.74 35.7058L43.5276 36.4935C43.6345 36.6004 43.8069 36.6004 43.9138 36.4935C44.0207 36.3866 44.0207 36.2142 43.9138 36.1073L43.1261 35.3196L43.8352 34.6106C43.9421 34.5037 43.9421 34.3313 43.8352 34.2244C43.7283 34.1175 43.556 34.1175 43.4491 34.2244L42.74 34.9335L42.4247 34.6182C43.1632 34.2527 43.904 33.8927 44.6371 33.5196L45.2938 34.1764L44.8738 34.5964C44.7669 34.7033 44.7669 34.8757 44.8738 34.9826C44.9807 35.0895 45.1531 35.0895 45.26 34.9826L45.68 34.5626L45.8196 34.7022C45.9265 34.8091 46.0989 34.8091 46.2058 34.7022C46.3127 34.5953 46.3127 34.4229 46.2058 34.316L46.0661 34.1764L47.1407 33.1018C47.2476 32.9949 47.2476 32.8226 47.1407 32.7157C47.0338 32.6087 46.8614 32.6087 46.7545 32.7157L45.68 33.7902L45.1531 33.2633C45.8687 32.8967 46.1229 32.756 47.2138 32.1767L48.1018 33.0647C48.2087 33.1716 48.3811 33.1716 48.488 33.0647C48.5949 32.9578 48.5949 32.7855 48.488 32.6786L47.7189 31.9095C48.4051 31.5462 49.0956 31.1895 49.7774 30.8207L49.9891 31.0324L48.7127 32.3087C48.6058 32.4157 48.6058 32.588 48.7127 32.6949C48.8196 32.8018 48.992 32.8018 49.0989 32.6949L50.3752 31.4186L51.0811 32.1244C51.188 32.2313 51.3603 32.2313 51.4672 32.1244C51.5741 32.0175 51.5741 31.8451 51.4672 31.7382L50.7614 31.0324L51.3745 30.4193C51.4814 30.3124 51.4814 30.14 51.3745 30.0331C51.3494 30.008 51.3145 30.0091 51.284 29.9949C51.608 29.816 51.9254 29.6316 52.2472 29.4517L52.8069 30.0113L51.9789 30.8393C51.872 30.9462 51.872 31.1186 51.9789 31.2255C52.0858 31.3324 52.2581 31.3324 52.3651 31.2255L53.1931 30.3975L53.3676 30.5709C53.4745 30.6778 53.6469 30.6778 53.7538 30.5709C53.8607 30.464 53.8607 30.2917 53.7538 30.1847L53.5792 30.0102L54.4672 29.1222C54.5741 29.0153 54.5741 28.8429 54.4672 28.736C54.3603 28.6291 54.188 28.6291 54.0811 28.736L53.1931 29.624L52.7414 29.1724C53.3643 28.8233 53.9905 28.4775 54.6069 28.1229C54.6145 28.1807 54.6287 28.2397 54.6734 28.2844L55.2974 28.9073L54.7552 29.4495C54.6483 29.5564 54.6483 29.7287 54.7552 29.8357C54.8621 29.9426 55.0345 29.9426 55.1414 29.8357L55.6836 29.2935L56.0032 29.6131C56.1101 29.72 56.2825 29.72 56.3894 29.6131C56.4963 29.5062 56.4963 29.3338 56.3894 29.2269L56.0698 28.9073L56.2454 28.7316C56.3523 28.6247 56.3523 28.4524 56.2454 28.3455C56.1385 28.2386 55.9661 28.2386 55.8592 28.3455L55.6836 28.5211L55.0607 27.8982C55.052 27.8895 55.0389 27.8927 55.0291 27.8851C55.1501 27.8153 55.2745 27.7487 55.3956 27.6789C59.0578 29.5924 63.3178 31.8342 67.6323 34.1829C57.5283 40.9618 46.1578 47.312 34.6116 52.5244C27.9527 49.3564 21.5207 45.9811 15.2251 42.1989C14.48 42.1247 3.00251 34.1567 2.36105 33.6877C6.19996 31.7131 10.0138 29.684 14.1952 27.4509ZM47.9774 47.3458L46.796 48.5273L46.3127 48.044C46.3334 48.0331 47.456 47.444 47.8607 47.2291L47.9774 47.3458ZM43.5265 49.8342C43.4971 49.8473 43.4621 49.8462 43.4381 49.8713L41.9283 51.3811L41.1789 50.6317C41.3611 50.5433 42.6527 49.9051 43.2821 49.5898L43.5265 49.8342ZM37.8527 52.2189L38.1287 52.4949L36.7236 53.9L35.9349 53.1113C36.5752 52.8178 37.2134 52.5178 37.8527 52.2189ZM38.3796 51.9735C38.5476 51.8938 38.7167 51.8186 38.8847 51.7389L38.5149 52.1087L38.3796 51.9735ZM14.9251 43.2975C21.14 47.0175 27.7443 50.4778 34.3672 53.6218C34.5112 53.6873 34.6771 53.6927 34.8243 53.6262C35.0196 53.5378 35.2127 53.4429 35.408 53.3546L36.3374 54.284L36.0832 54.5382C35.9763 54.6451 35.9763 54.8175 36.0832 54.9244C36.1901 55.0313 36.3625 55.0313 36.4694 54.9244L36.7236 54.6702L36.7585 54.7051C36.8654 54.812 37.0378 54.812 37.1447 54.7051C37.2516 54.5982 37.2516 54.4258 37.1447 54.3189L37.1098 54.284L38.5149 52.8789L39.1705 53.5335C39.2774 53.6404 39.4498 53.6404 39.5567 53.5335C39.6636 53.4266 39.6636 53.2542 39.5567 53.1473L38.9011 52.4927L40.0585 51.3353C40.1098 51.284 40.1349 51.2153 40.136 51.1477C40.3127 51.0626 40.4872 50.9709 40.6651 50.8858L41.8585 52.0804C41.9654 52.1873 42.1378 52.1873 42.2447 52.0804C42.3232 52.0018 42.3243 51.8927 42.2861 51.7946L43.8254 50.2553C43.8494 50.2313 43.8494 50.1964 43.8625 50.1669L44.4243 50.7287C44.5312 50.8357 44.7036 50.8357 44.8105 50.7287C44.9174 50.6218 44.9174 50.4495 44.8105 50.3426L43.8003 49.3324C44.1734 49.1447 45.5131 48.4618 45.8109 48.308L46.4131 48.9102L45.4869 49.8364C45.38 49.9433 45.38 50.1157 45.4869 50.2226C45.5938 50.3295 45.7661 50.3295 45.8731 50.2226L46.7992 49.2964L46.9989 49.496C47.1058 49.6029 47.2781 49.6029 47.3851 49.496C47.492 49.3891 47.492 49.2167 47.3851 49.1098L47.1854 48.9102L48.3669 47.7287L48.8905 48.2524C48.9974 48.3593 49.1698 48.3593 49.2767 48.2524C49.3836 48.1455 49.3836 47.9731 49.2767 47.8662L48.3712 46.9597C49.4621 46.3782 48.7672 46.7655 50.3491 45.9037L50.948 46.5026L49.9661 47.4855C49.8592 47.5924 49.8592 47.7647 49.9661 47.8717C50.0731 47.9786 50.2454 47.9786 50.3523 47.8717L51.3363 46.8877C51.4487 46.9967 51.6156 46.988 51.7181 46.8855C51.824 46.7797 51.8229 46.6106 51.7203 46.5037L53.1265 45.0975L53.9501 45.9211C54.0571 46.028 54.2294 46.028 54.3363 45.9211C54.4432 45.8142 54.4432 45.6418 54.3363 45.5349L54.296 45.4946L54.9647 44.8258C55.052 44.8378 55.1098 44.8411 55.1916 44.7604C55.2538 44.6982 55.268 44.6153 55.2571 44.5335L55.508 44.2826C55.5898 44.2007 55.5887 44.0862 55.5451 43.9858C59.4341 46.0171 63.5316 48.1738 67.6356 50.4135C57.1967 57.4062 46.0934 63.5742 34.6149 68.7571C22.1087 62.8117 11.5465 56.6437 2.3556 49.9258C6.12687 47.984 10.1523 45.8611 14.9251 43.2975Z" fill="black"/>
<path d="M21.5403 16.7263L22.9378 15.3288L23.8116 16.2037C23.9185 16.3106 24.0909 16.3106 24.1978 16.2037C24.3047 16.0968 24.3047 15.9245 24.1978 15.8175L23.324 14.9426L24.8469 13.4197L25.316 13.8888C25.4229 13.9957 25.5952 13.9957 25.7022 13.8888C25.8091 13.7819 25.8091 13.6095 25.7022 13.5026L25.2331 13.0335L26.0556 12.211L27.1203 13.2757C27.2272 13.3826 27.3996 13.3826 27.5065 13.2757C27.6134 13.1688 27.6134 12.9965 27.5065 12.8895L26.4418 11.8248L27.6069 10.6597C27.7138 10.5528 27.7138 10.3805 27.6069 10.2735C27.5 10.1666 27.3276 10.1666 27.2207 10.2735L26.0556 11.4386L25.4851 10.8681C25.3782 10.7612 25.2058 10.7612 25.0989 10.8681C24.992 10.975 24.992 11.1474 25.0989 11.2543L25.6694 11.8248L24.8469 12.6474L24.212 12.0125C24.1051 11.9055 23.9327 11.9055 23.8258 12.0125C23.7189 12.1194 23.7189 12.2917 23.8258 12.3986L24.4607 13.0335L22.9378 14.5565L22.1763 13.795C22.0694 13.6881 21.8971 13.6881 21.7902 13.795C21.6832 13.9019 21.6832 14.0743 21.7902 14.1812L22.5516 14.9426L21.1542 16.3401C21.0472 16.447 21.0472 16.6194 21.1542 16.7263C21.2622 16.8332 21.4345 16.8332 21.5403 16.7263Z" fill="black"/>
<path d="M15.8098 35.1712L15.5578 35.4232C15.4509 35.5301 15.4509 35.7025 15.5578 35.8094C15.6647 35.9163 15.8371 35.9163 15.944 35.8094L16.196 35.5574L16.7011 36.0625L16.0673 36.6963C15.9604 36.8032 15.9604 36.9755 16.0673 37.0825C16.1742 37.1894 16.3466 37.1894 16.4535 37.0825L17.0873 36.4486L18.5469 37.9083L17.5946 38.8595C17.4876 38.9665 17.4876 39.1388 17.5946 39.2457C17.7015 39.3526 17.8738 39.3526 17.9807 39.2457L18.9331 38.2945L20.2673 39.6286C20.3742 39.7355 20.5466 39.7355 20.6535 39.6286C20.7604 39.5217 20.7604 39.3494 20.6535 39.2425L19.3193 37.9083L20.216 37.0115C20.3229 36.9046 20.3229 36.7323 20.216 36.6254C20.1091 36.5185 19.9367 36.5185 19.8298 36.6254L18.9331 37.5221L17.4735 36.0625L17.9807 35.5552C18.0876 35.4483 18.0876 35.2759 17.9807 35.169C17.8738 35.0621 17.7015 35.0621 17.5946 35.169L17.0873 35.6763L16.5822 35.1712L17.2226 34.5308C17.3295 34.4239 17.3295 34.2515 17.2226 34.1446C17.1156 34.0377 16.9433 34.0377 16.8364 34.1446L16.196 34.785L15.5622 34.1512C15.4553 34.0443 15.2829 34.0443 15.176 34.1512C15.0691 34.2581 15.0691 34.4305 15.176 34.5374L15.8098 35.1712Z" fill="black"/>
<path d="M26.8858 58.4532L27.4673 57.8707C27.5742 57.7638 27.5742 57.5914 27.4673 57.4845C27.3604 57.3776 27.188 57.3776 27.0811 57.4845L26.4997 58.067L25.0411 56.6085L26.1037 55.546C26.2106 55.439 26.2106 55.2667 26.1037 55.1598C25.9967 55.0529 25.8244 55.0529 25.7175 55.1598L24.6549 56.2223L23.7026 55.27C23.5957 55.163 23.4233 55.163 23.3164 55.27C23.2095 55.3769 23.2095 55.5492 23.3164 55.6561L24.2688 56.6085L23.5717 57.3067C23.4648 57.4136 23.4648 57.586 23.5717 57.6929C23.6786 57.7998 23.8509 57.7998 23.9578 57.6929L24.6549 56.9947L26.1135 58.4532L25.4797 59.0881C25.3728 59.195 25.3728 59.3674 25.4797 59.4743C25.5866 59.5812 25.7589 59.5812 25.8658 59.4743L26.4997 58.8394L27.9135 60.2532C28.0204 60.3601 28.1928 60.3601 28.2997 60.2532C28.4066 60.1463 28.4066 59.974 28.2997 59.867L26.8858 58.4532Z" fill="black"/>
<path d="M45.7138 59.7279L47.3022 58.1395L47.6829 58.5202C47.7898 58.6271 47.9622 58.6271 48.0691 58.5202C48.176 58.4133 48.176 58.241 48.0691 58.134L47.6883 57.7533L48.5753 56.8664C48.6822 56.9733 48.8534 56.9722 48.9603 56.8664C49.0673 56.7595 49.0662 56.5882 48.9603 56.4813L49.5931 55.8497L49.6553 55.9119C49.7622 56.0188 49.9345 56.0188 50.0414 55.9119C50.1483 55.805 50.1483 55.6326 50.0414 55.5257L49.9803 55.4635L50.8847 54.5591C50.9916 54.4522 50.9916 54.2799 50.8847 54.173C50.7778 54.066 50.6054 54.066 50.4985 54.173L49.5942 55.0773L49.0236 54.5068C48.9167 54.3999 48.7443 54.3999 48.6374 54.5068C48.5305 54.6137 48.5305 54.786 48.6374 54.893L49.208 55.4635L48.5753 56.0951L47.7505 55.2704C47.6436 55.1635 47.4713 55.1635 47.3643 55.2704C47.2574 55.3773 47.2574 55.5497 47.3643 55.6566L48.1891 56.4813L47.3022 57.3682L46.4774 56.5435C46.3705 56.4366 46.1982 56.4366 46.0913 56.5435C45.9843 56.6504 45.9843 56.8228 46.0913 56.9297L46.916 57.7544L45.3276 59.3428C45.2207 59.4497 45.2207 59.622 45.3276 59.729C45.4345 59.8348 45.6069 59.8348 45.7138 59.7279Z" fill="black"/>
</svg>
