<svg width="57" height="58" viewBox="0 0 57 58" fill="none" xmlns="http://www.w3.org/2000/svg">
<path d="M54.7969 24.9219C53.0625 23.6445 52.4531 21.3594 53.3086 19.3789C53.9531 17.8906 53.8594 16.2266 53.0508 14.8203C52.2422 13.4141 50.8477 12.5 49.2305 12.3125C47.0859 12.0664 45.4219 10.4023 45.1758 8.25781C44.9883 6.64062 44.0742 5.24609 42.668 4.4375C41.2617 3.62891 39.5977 3.53516 38.1094 4.17969C36.1289 5.04688 33.8555 4.42578 32.5664 2.69141C31.6172 1.39062 30.1289 0.640625 28.5 0.640625C26.8711 0.640625 25.3828 1.39063 24.4219 2.70312C23.1445 4.4375 20.8594 5.04688 18.8789 4.19141C17.3906 3.54688 15.7266 3.64062 14.3203 4.44922C12.9141 5.25781 12 6.64062 11.8125 8.25781C11.5664 10.4023 9.90234 12.0664 7.75781 12.3125C6.14062 12.5 4.74609 13.4141 3.9375 14.8203C3.12891 16.2266 3.03516 17.8906 3.67969 19.3789C4.54688 21.3594 3.92578 23.6328 2.19141 24.9219C0.890625 25.8828 0.140625 27.3711 0.140625 29C0.140625 30.6289 0.890625 32.1172 2.20312 33.0781C3.9375 34.3555 4.54688 36.6406 3.69141 38.6211C3.04688 40.1094 3.14062 41.7734 3.94922 43.1797C4.75781 44.5859 6.15234 45.5 7.76953 45.6875C9.91406 45.9336 11.5781 47.5977 11.8242 49.7422C12.0117 51.3594 12.9258 52.7539 14.332 53.5625C15.7383 54.3711 17.4023 54.4648 18.8906 53.8203C20.8711 52.9531 23.1445 53.5742 24.4336 55.3086C25.3945 56.6211 26.8828 57.3711 28.5117 57.3711C30.1406 57.3711 31.6289 56.6211 32.5898 55.3086C33.8672 53.5742 36.1523 52.9648 38.1328 53.8203C39.6211 54.4648 41.2852 54.3711 42.6914 53.5625C44.0977 52.7539 45.0117 51.3594 45.1992 49.7422C45.4453 47.5977 47.1094 45.9336 49.2539 45.6875C50.8711 45.5 52.2656 44.5859 53.0742 43.1797C53.8828 41.7734 53.9766 40.1094 53.332 38.6211C52.4648 36.6406 53.0859 34.3672 54.8203 33.0781C56.1328 32.1172 56.8828 30.6289 56.8828 29C56.8594 27.3711 56.1094 25.8828 54.7969 24.9219Z" fill="white"/>
</svg>
