<svg width="58" height="58" viewBox="0 0 58 58" fill="none" xmlns="http://www.w3.org/2000/svg">
<path fill-rule="evenodd" clip-rule="evenodd" d="M27.7985 1.02826C27.892 0.713973 28.1816 0.49707 28.5102 0.49707C28.8388 0.49707 29.1284 0.713973 29.2219 1.02826C29.2219 1.02826 30.5246 5.39468 31.9208 10.078C34.1455 17.5394 39.9822 23.376 47.4435 25.6008C52.1268 26.997 56.4933 28.2996 56.4933 28.2996C56.8076 28.3931 57.0244 28.6827 57.0244 29.0113C57.0244 29.3399 56.8076 29.6295 56.4933 29.723C56.4933 29.723 52.1268 31.0257 47.4435 32.4219C39.9822 34.6466 34.1455 40.4833 31.9208 47.9446C30.5246 52.6279 29.2219 56.9944 29.2219 56.9944C29.1284 57.3087 28.8388 57.5256 28.5102 57.5256C28.1816 57.5256 27.892 57.3087 27.7985 56.9944C27.7985 56.9944 26.4958 52.6279 25.0997 47.9446C22.8749 40.4833 17.0383 34.6466 9.57689 32.4219C4.89359 31.0257 0.52716 29.723 0.52716 29.723C0.212855 29.6295 -0.00402832 29.3399 -0.00402832 29.0113C-0.00402832 28.6827 0.212855 28.3931 0.52716 28.2996C0.52716 28.2996 4.89359 26.997 9.57689 25.6008C17.0383 23.376 22.8749 17.5394 25.0997 10.078C26.4958 5.39468 27.7985 1.02826 27.7985 1.02826Z" fill="white"/>
</svg>
