<svg width="32" height="33" viewBox="0 0 32 33" fill="none" xmlns="http://www.w3.org/2000/svg">
<g clip-path="url(#clip0_123_2813)">
<path d="M0 16.5C0 25.3366 7.16344 32.5 16 32.5C24.8366 32.5 32 25.3366 32 16.5C32 7.66344 24.8366 0.5 16 0.5C7.16344 0.5 0 7.66344 0 16.5Z" fill="#EA4C89"/>
<path d="M16 8.5C11.584 8.5 8 12.084 8 16.5C8 20.916 11.584 24.5 16 24.5C20.4 24.5 24 20.916 24 16.5C24 12.084 20.4 8.5 16 8.5ZM21.28 12.18C22.24 13.348 22.8 14.82 22.832 16.436C22.608 16.388 20.352 15.94 18.08 16.212C18.032 16.1 17.984 15.972 17.936 15.86C17.792 15.524 17.648 15.188 17.488 14.868C19.984 13.86 21.136 12.372 21.28 12.18ZM16 9.684C17.728 9.684 19.328 10.34 20.528 11.396C20.4 11.572 19.376 12.948 16.944 13.86C15.824 11.796 14.576 10.116 14.4 9.86C14.912 9.748 15.44 9.684 16 9.684ZM13.088 10.324C13.264 10.564 14.48 12.26 15.616 14.276C12.416 15.124 9.6 15.108 9.296 15.108C9.76 12.98 11.184 11.22 13.088 10.324ZM9.168 16.516C9.168 16.452 9.168 16.372 9.168 16.308C9.456 16.324 12.784 16.356 16.192 15.332C16.384 15.716 16.576 16.1 16.752 16.5C16.672 16.532 16.576 16.548 16.48 16.58C12.96 17.716 11.088 20.82 10.928 21.076C9.824 19.86 9.168 18.26 9.168 16.516ZM16 23.332C14.416 23.332 12.96 22.788 11.808 21.892C11.936 21.636 13.312 18.964 17.168 17.62C17.184 17.604 17.2 17.604 17.216 17.604C18.176 20.1 18.576 22.18 18.672 22.788C17.856 23.14 16.944 23.332 16 23.332ZM19.808 22.164C19.744 21.748 19.376 19.748 18.48 17.3C20.624 16.964 22.496 17.524 22.736 17.588C22.432 19.492 21.344 21.14 19.808 22.164Z" fill="white"/>
</g>
<defs>
<clipPath id="clip0_123_2813">
<rect width="32" height="32" fill="white" transform="translate(0 0.5)"/>
</clipPath>
</defs>
</svg>
