<svg width="19" height="19" viewBox="0 0 19 19" fill="none" xmlns="http://www.w3.org/2000/svg">
<path d="M13.6551 6.7325C14.674 6.7325 15.5001 5.90646 15.5001 4.8875C15.5001 3.86853 14.674 3.0425 13.6551 3.0425C12.6361 3.0425 11.8101 3.86853 11.8101 4.8875C11.8101 5.90646 12.6361 6.7325 13.6551 6.7325Z" fill="white" stroke="white" stroke-width="1.5" stroke-miterlimit="10" stroke-linecap="round" stroke-linejoin="round"/>
<path d="M5.34501 6.7325C6.36397 6.7325 7.19 5.90646 7.19 4.8875C7.19 3.86853 6.36397 3.0425 5.34501 3.0425C4.32604 3.0425 3.5 3.86853 3.5 4.8875C3.5 5.90646 4.32604 6.7325 5.34501 6.7325Z" fill="white" stroke="white" stroke-width="1.5" stroke-miterlimit="10" stroke-linecap="round" stroke-linejoin="round"/>
<path d="M13.6551 15.9575C14.674 15.9575 15.5001 15.1315 15.5001 14.1125C15.5001 13.0935 14.674 12.2675 13.6551 12.2675C12.6361 12.2675 11.8101 13.0935 11.8101 14.1125C11.8101 15.1315 12.6361 15.9575 13.6551 15.9575Z" fill="white" stroke="white" stroke-width="1.5" stroke-miterlimit="10" stroke-linecap="round" stroke-linejoin="round"/>
<path d="M5.34501 15.9575C6.36397 15.9575 7.19 15.1315 7.19 14.1125C7.19 13.0935 6.36397 12.2675 5.34501 12.2675C4.32604 12.2675 3.5 13.0935 3.5 14.1125C3.5 15.1315 4.32604 15.9575 5.34501 15.9575Z" fill="white" stroke="white" stroke-width="1.5" stroke-miterlimit="10" stroke-linecap="round" stroke-linejoin="round"/>
</svg>
