<svg width="70" height="68" viewBox="0 0 70 68" fill="none" xmlns="http://www.w3.org/2000/svg">
<path d="M0.177044 57.3729C-0.00950126 65.1816 2.71668 66.7678 8.57268 66.8333C26.0621 66.9511 43.5505 67.082 61.0498 67.2129C67.532 67.2522 69.7541 65.666 69.7541 59.4271C69.8261 25.8576 69.8305 18.8562 69.8305 18.8562C69.8305 11.8482 67.8363 9.1667 59.565 9.13507C58.4305 9.13507 57.3025 9.13289 56.1701 9.12525C55.9258 6.78089 55.3476 4.15725 53.745 2.44561C51.8458 0.418704 47.3119 -0.934023 45.4269 5.7358C45.0636 7.0198 44.8323 8.10307 44.6981 9.11325C34.9847 9.09907 31.6378 9.0958 27.3145 9.08161C27.2807 7.85652 27.1432 6.39907 26.5803 5.03325C24.801 0.676158 19.953 0.308522 17.5552 4.00779C16.7065 5.3267 16.2778 6.98598 16.2341 9.06961L11.1745 9.0587C3.49232 9.0587 0.845771 12.254 1.03341 19.4551C1.09559 21.9402 1.05304 19.5434 0.177044 57.3729ZM68.6643 59.426C68.6643 64.6187 67.3814 66.1591 61.0585 66.122C43.5581 65.9911 26.0698 65.8613 8.5825 65.7423C3.28504 65.6834 1.09668 64.5456 1.26795 57.3991C1.49595 47.5449 1.69559 39.5845 2.00432 26.8503C29.8629 25.6711 40.3956 26.0671 68.7265 28.1278C68.7167 35.8962 68.7025 41.6496 68.6643 59.426ZM51.4094 18.6925L49.9858 17.2689L51.0625 16.1922L52.6389 17.7685L51.465 18.9423C51.4858 18.854 51.4781 18.7612 51.4094 18.6925ZM51.0232 19.0787C51.1149 19.1703 51.2349 19.19 51.368 19.0951C51.3352 19.1758 51.3385 19.2565 51.3854 19.3318C51.333 19.3351 51.2807 19.3558 51.2283 19.3558C51.2141 19.3558 51.201 19.3558 51.188 19.3558C50.4559 19.3416 49.7021 18.9096 48.9963 18.2572L49.5996 17.654L51.0232 19.0787ZM53.025 18.1536L53.264 18.3925C53.2847 18.4132 53.3141 18.4111 53.3392 18.4242C52.9138 18.8234 52.4294 19.1082 51.9298 19.2489L53.025 18.1536ZM53.6676 18.0511C53.6578 18.038 53.6621 18.0194 53.649 18.0074L53.4101 17.7685L54.309 16.8685C54.3352 16.8423 54.3341 16.8063 54.3483 16.7747C54.3843 16.7616 54.4236 16.7605 54.452 16.7322C54.4858 16.6983 54.4901 16.6536 54.5021 16.61C54.3603 16.9798 54.1956 17.3431 53.9741 17.6802C53.8825 17.8187 53.7701 17.9289 53.6676 18.0511ZM54.5294 16.5336C54.5272 16.466 54.5032 16.3983 54.452 16.3471L53.2563 15.1525L54.6025 13.8063L54.873 14.0769C54.9265 14.1303 54.9963 14.1565 55.0661 14.1565C54.9701 14.9616 54.8098 15.7722 54.5294 16.5336ZM55.1098 13.5412L53.7178 12.1493L54.2174 11.6496L54.777 12.2092C54.9025 12.3347 55.125 12.3358 55.2079 12.1012C55.197 12.5856 55.1523 13.0634 55.1098 13.5412ZM52.9498 3.1907C54.4378 4.77907 54.9625 7.5478 55.1392 9.71543C55.2036 10.4627 55.2287 11.21 55.2167 11.9529C55.1752 11.7947 54.7192 11.3802 54.6036 11.2634L54.9112 10.9558C55.0181 10.8489 55.0181 10.6765 54.9112 10.5696C54.8043 10.4627 54.6319 10.4627 54.525 10.5696L54.2174 10.8772L53.4865 10.1463C53.3796 10.0394 53.2072 10.0394 53.1003 10.1463C52.9934 10.2532 52.9934 10.4256 53.1003 10.5325L53.8312 11.2634L53.1778 11.9169C53.0709 12.0238 53.0709 12.1962 53.1778 12.3031C53.1985 12.3238 53.229 12.3216 53.2541 12.3347C53.2519 12.4067 53.276 12.4787 53.3316 12.5343L54.2163 13.4191L52.8701 14.7652L52.0236 13.9187C51.9167 13.8118 51.7443 13.8118 51.6374 13.9187C51.5305 14.0256 51.5305 14.198 51.6374 14.3049L53.8694 16.5358L53.0239 17.3813L51.4476 15.8049L52.0378 15.2147C52.1447 15.1078 52.1447 14.9354 52.0378 14.8285C51.9309 14.7216 51.7585 14.7216 51.6516 14.8285L51.0614 15.4187L50.5618 14.9191C50.4549 14.8122 50.2825 14.8122 50.1756 14.9191C50.0687 15.026 50.0687 15.1983 50.1756 15.3052L50.6752 15.8049L49.5985 16.8816L49.0989 16.382C48.9919 16.2751 48.8196 16.2751 48.7127 16.382C48.6058 16.4889 48.6058 16.6613 48.7127 16.7682L49.2123 17.2678L48.609 17.8711C47.1549 16.322 45.9778 13.9198 45.7596 12.4416C45.6439 11.5983 45.6298 10.6798 45.7192 9.70998C45.8294 8.63107 46.0694 7.46161 46.4752 6.03143C47.9959 0.661977 51.2872 1.41361 52.9498 3.1907ZM25.8669 14.5798C25.8603 14.5209 25.844 14.462 25.7992 14.4162L24.8698 13.4878L25.6945 12.6631C25.7469 12.6107 25.773 12.5409 25.773 12.4722L26.0992 12.7983C26.1156 12.8147 26.1396 12.8114 26.1581 12.8223C26.1047 13.4158 26.0087 14.0038 25.8669 14.5798ZM26.2498 10.3569C26.2498 10.9394 26.2367 11.5351 26.205 12.1329L25.2636 11.1914L26.2476 10.2074C26.2476 10.2565 26.2498 10.3078 26.2498 10.3569ZM17.3152 9.20816C17.3392 7.27616 17.7189 5.76852 18.4705 4.59907C20.372 1.66779 24.116 1.88489 25.5701 5.4467C26.1461 6.84198 26.229 8.41507 26.2389 9.64998C26.241 9.68925 26.2389 9.72634 26.241 9.76452C26.1352 9.69252 25.9945 9.68925 25.8996 9.78307L24.5534 11.1282C24.4465 11.2351 24.4465 11.4074 24.5534 11.5143C24.6712 11.6322 24.752 11.5951 24.8523 11.5503L25.4992 12.1983C25.4305 12.1994 25.3607 12.2245 25.3083 12.2769L24.4836 13.1016L24.4138 13.0318C24.3069 12.9249 24.1345 12.9249 24.0276 13.0318C23.9207 13.1387 23.9207 13.3111 24.0276 13.418L24.0974 13.4878L23.5683 14.0169C23.4614 14.1238 23.4614 14.2962 23.5683 14.4031C23.6752 14.51 23.8476 14.51 23.9545 14.4031L24.4836 13.874L25.413 14.8023C25.5309 14.9202 25.7403 14.9376 25.8374 14.7096C25.653 15.4176 25.436 16.0002 24.9472 16.7616C24.9341 16.7354 24.9363 16.7038 24.9145 16.682L24.477 16.2445L24.7443 15.9772C24.8512 15.8703 24.8512 15.698 24.7443 15.5911C24.6374 15.4842 24.465 15.4842 24.3581 15.5911L24.0909 15.8583L22.9705 14.738C22.8636 14.6311 22.6912 14.6311 22.5843 14.738C22.4774 14.8449 22.4774 15.0172 22.5843 15.1242L23.7047 16.2445L22.8101 17.1391L21.7847 16.1136L22.4261 15.4722C22.533 15.3653 22.533 15.1929 22.4261 15.086C22.3192 14.9791 22.1469 14.9791 22.04 15.086L21.3985 15.7274L21.1312 15.4602C21.0243 15.3532 20.852 15.3532 20.745 15.4602C20.6381 15.5671 20.6381 15.7394 20.745 15.8463L21.0123 16.1136L20.2825 16.8434L19.9509 16.5118C19.844 16.4049 19.6716 16.4049 19.5647 16.5118C19.4578 16.6187 19.4578 16.7911 19.5647 16.898L19.8963 17.2296L19.1763 17.9496C19.0869 17.8525 18.993 17.7663 18.9101 17.6551C17.3796 15.5867 17.3152 11.7238 17.3152 9.20816ZM21.9101 18.4689L20.6698 17.2285L21.3996 16.4987L22.425 17.5242L22.389 17.5602C22.2821 17.6671 22.2821 17.8394 22.389 17.9463C22.496 18.0532 22.6683 18.0532 22.7752 17.9463L22.8123 17.9093L23.312 18.4089C23.2989 18.4165 23.289 18.4285 23.276 18.4351C22.8112 18.7002 22.3018 18.8529 21.7945 18.9031C22.0334 18.8289 22.0367 18.5954 21.9101 18.4689ZM21.6636 18.9118C20.8901 18.9609 20.1407 18.7602 19.5723 18.326L20.2847 17.6136C20.4014 17.7314 21.5021 18.8769 21.6636 18.9118ZM23.1963 17.5242L24.0909 16.6296L24.5283 17.0671C24.5752 17.114 24.6363 17.1314 24.6985 17.1369C24.4181 17.5078 24.0974 17.8143 23.7538 18.0805L23.1963 17.5242ZM11.1734 10.1485L16.2243 10.1594C16.3018 23.8612 25.0203 21.3402 26.828 15.266C27.3014 13.6394 27.3407 11.9485 27.3407 10.3569C27.3407 10.2958 27.3407 10.2347 27.3407 10.1736C32.0883 10.1889 35.1527 10.19 44.5901 10.2031C44.5607 10.7747 44.5738 11.8231 44.6807 12.5965C45.0298 14.9627 47.841 20.3834 51.1672 20.4467C52.6825 20.4467 54.0483 19.5391 54.8829 18.2823C56.2236 16.25 56.4123 12.6282 56.2694 10.2183C57.369 10.2249 58.4599 10.2249 59.5639 10.2249C67.3792 10.2543 68.7407 12.6238 68.7407 18.8529C68.733 22.0002 68.733 24.0925 68.7287 27.0314C40.4327 24.9762 29.8672 24.5802 2.03159 25.754C2.15923 20.522 2.16359 21.0096 2.12213 19.4245C1.9585 13.0427 3.91777 10.1485 11.1734 10.1485Z" fill="black"/>
<path d="M19.4883 34.6231C18.2599 32.9387 16.4643 33.1536 14.8792 33.3413C12.4563 33.6271 10.2406 33.098 8.73627 35.1718C7.33772 37.1016 7.4239 42.4296 9.033 44.2166C10.4294 45.7656 12.7061 45.7362 14.7788 45.5409C16.6454 45.3631 18.6712 44.9595 19.545 43.3056C20.1134 42.2311 20.0381 40.8336 20.1755 38.3278C20.2497 36.9751 20.253 35.6747 19.4883 34.6231C19.4883 34.6242 19.4883 34.6242 19.4883 34.6231ZM9.61881 35.8133C10.773 34.2227 12.489 34.7235 15.0079 34.4256C16.4839 34.2489 17.7559 34.0995 18.6057 35.2667C18.753 35.4685 18.8566 35.6976 18.933 35.942C18.8883 35.954 18.8414 35.9595 18.8065 35.9944L17.7777 37.0231C17.7581 37.0427 17.7603 37.0711 17.7483 37.0951L17.5868 36.9336C17.4799 36.8267 17.3075 36.8267 17.2006 36.9336C17.0937 37.0405 17.0937 37.2129 17.2006 37.3198L17.8726 37.9929L17.4439 38.4216C17.3381 38.3551 17.2028 38.3518 17.1112 38.4435C17.0195 38.5351 17.0228 38.6704 17.0894 38.7762L16.6672 39.1984C16.5603 39.3053 16.5603 39.4776 16.6672 39.5846C16.7206 39.638 16.7905 39.6642 16.8603 39.6642C16.9301 39.6642 16.9999 39.638 17.0534 39.5846L17.4592 39.1787L18.3101 40.0296C18.3635 40.0831 18.4334 40.1093 18.5032 40.1093C18.573 40.1093 18.6428 40.0831 18.6963 40.0296C18.8032 39.9227 18.8032 39.7504 18.6963 39.6435L17.8454 38.7926L18.2577 38.3802L18.6254 38.7478C18.7323 38.8547 18.9046 38.8547 19.0115 38.7478C19.0475 38.7118 19.0541 38.6627 19.0661 38.6169C19.0355 39.1733 18.9308 41.4107 18.8479 41.9256L18.0221 41.0998L18.5675 40.5544C18.6745 40.4475 18.6745 40.2751 18.5675 40.1682C18.4606 40.0613 18.2883 40.0613 18.1814 40.1682L17.6359 40.7136L16.7425 39.8202C16.6355 39.7133 16.4632 39.7133 16.3563 39.8202C16.2494 39.9271 16.2494 40.0995 16.3563 40.2064L17.2497 41.0998L16.8439 41.5056C16.737 41.6126 16.737 41.7849 16.8439 41.8918C16.9508 41.9987 17.1232 41.9987 17.2301 41.8918L17.6359 41.486L18.2708 42.1209L17.3261 43.0667L16.3388 42.0729L16.7675 41.6442C16.8745 41.5373 16.8745 41.3649 16.7675 41.258C16.6606 41.1511 16.4883 41.1511 16.3814 41.258L15.9526 41.6867L15.4137 41.1478C15.3068 41.0409 15.1345 41.0409 15.0275 41.1478C14.9206 41.2547 14.9206 41.4271 15.0275 41.534L15.5665 42.0729L14.8214 42.8191L13.905 41.9027C13.7981 41.7958 13.6257 41.7958 13.5188 41.9027C13.4119 42.0096 13.4119 42.182 13.5188 42.2889L14.4352 43.2053L13.3257 44.3147C13.3235 44.2482 13.3006 44.1816 13.2494 44.1315L12.2337 43.1158L13.8308 41.5187C13.9377 41.4118 13.9377 41.2395 13.8308 41.1325C13.7239 41.0256 13.5515 41.0256 13.4446 41.1325L11.8475 42.7296L11.7297 42.6118C11.6228 42.5049 11.4505 42.5049 11.3435 42.6118C11.2366 42.7187 11.2366 42.8911 11.3435 42.998L11.4614 43.1158L10.5505 44.0267C10.2886 43.8816 10.0443 43.7115 9.84136 43.4856C8.60863 42.1144 8.52136 37.3264 9.61881 35.8133ZM12.9155 44.5373C12.2555 44.5275 11.6348 44.4489 11.0872 44.2624L11.8486 43.5009L12.8643 44.5166C12.8785 44.5307 12.8992 44.5275 12.9155 44.5373ZM14.6752 44.4533C14.4145 44.4784 14.1548 44.4991 13.8963 44.5144L14.8214 43.5893L15.4203 44.1882C15.6745 44.4424 16.0628 44.0595 15.8065 43.802L15.2075 43.2031L15.9526 42.4569L16.9421 43.4464L16.3137 44.0747C16.2745 44.114 16.2646 44.1675 16.2537 44.2187C15.753 44.33 15.2185 44.402 14.6752 44.4533ZM17.3283 43.8347L17.3588 43.8653C17.3239 43.8816 17.2879 43.8958 17.2519 43.9111L17.3283 43.8347ZM17.853 43.5882L17.7134 43.4486L18.7235 42.4384C18.6832 42.5616 18.6395 42.6827 18.5806 42.7962C18.4072 43.1235 18.1552 43.3787 17.853 43.5882ZM19.0868 38.2678L19.0737 38.5067C19.0639 38.4544 19.0541 38.4009 19.0137 38.3606L18.093 37.4387C18.117 37.4267 18.1454 37.4289 18.165 37.4093L19.0563 36.518C19.1305 37.058 19.1206 37.6525 19.0868 38.2678Z" fill="black"/>
<path d="M34.1654 34.6231C32.937 32.9387 31.1425 33.1536 29.5563 33.3413C27.1323 33.6271 24.9178 33.098 23.4134 35.1718C21.9963 37.1246 22.1152 42.4449 23.7101 44.2166C25.101 45.7602 27.3647 45.7384 29.4559 45.5409C31.3214 45.3631 33.3472 44.9595 34.2221 43.3056C34.7905 42.2311 34.7152 40.8336 34.8527 38.3278C34.9268 36.9751 34.9301 35.6747 34.1654 34.6231C34.1654 34.6242 34.1654 34.6242 34.1654 34.6231ZM33.7639 38.2678L33.7552 38.4184L32.9294 37.5925L33.7618 36.7602C33.8032 37.2358 33.7923 37.7431 33.7639 38.2678ZM24.2959 35.8133C25.449 34.2227 27.1672 34.7235 29.685 34.4256C31.0868 34.2576 33.1301 33.9424 33.6581 36.1667C33.6145 36.1787 33.5676 36.1842 33.5327 36.2191L32.5279 37.2238C32.4221 37.1573 32.2868 37.154 32.1952 37.2456C32.0883 37.3525 32.0883 37.5249 32.1952 37.6318L32.2105 37.6471C32.2061 37.7213 32.2279 37.7966 32.2847 37.8544C32.3381 37.9078 32.4079 37.934 32.4778 37.934C32.4832 37.934 32.4865 37.9286 32.4919 37.9286L33.5741 39.0107C33.6145 39.0511 33.6679 39.062 33.7203 39.0718L33.6821 39.7678L33.0407 39.1264L33.1596 39.0075C33.2665 38.9006 33.2665 38.7282 33.1596 38.6213C33.0527 38.5144 32.8803 38.5144 32.7734 38.6213L32.6479 38.7467C32.541 38.6584 32.385 38.6551 32.2847 38.7555C32.1843 38.8558 32.1865 39.0118 32.2759 39.1187L31.0727 40.3198C30.9974 40.3155 30.9232 40.3362 30.8654 40.394C30.8076 40.4518 30.7868 40.526 30.7912 40.6013L30.5992 40.7933C30.4923 40.9002 30.4923 41.0726 30.5992 41.1795C30.7061 41.2864 30.8785 41.2864 30.9854 41.1795L31.125 41.0398L32.6687 42.5845L31.9236 43.3307L31.2887 42.6958L31.6759 42.3086C31.7828 42.2016 31.7828 42.0293 31.6759 41.9224C31.569 41.8155 31.3967 41.8155 31.2898 41.9224L30.9025 42.3096L28.7665 40.1736C28.6596 40.0667 28.4872 40.0667 28.3803 40.1736C28.2734 40.2806 28.2734 40.4529 28.3803 40.5598L28.4981 40.6776L27.4356 41.7402C27.4105 41.7533 27.381 41.7511 27.3603 41.7718C27.3396 41.7926 27.3418 41.822 27.3287 41.8471L26.3763 42.7995L26.2814 42.7046C26.1745 42.5976 26.0021 42.5976 25.8952 42.7046C25.7883 42.8115 25.7883 42.9838 25.8952 43.0907L25.9901 43.1856L25.185 43.9907C25.1818 43.994 25.1828 43.9995 25.1796 44.0027C24.9363 43.8631 24.7094 43.7006 24.5185 43.4889C23.2858 42.1144 23.1974 37.3264 24.2959 35.8133ZM31.7076 43.9296C31.7283 43.9504 31.7578 43.9482 31.7828 43.9613L31.7916 43.97C31.3018 44.1576 30.7443 44.2765 30.1596 44.3584C30.1748 44.2733 30.1628 44.1871 30.0974 44.1216L29.9796 44.0038L30.9025 43.0809L31.677 43.8555C31.689 43.8795 31.6868 43.9089 31.7076 43.9296ZM29.5934 44.3889L29.6283 44.4238C29.6021 44.4271 29.5759 44.4293 29.5498 44.4326L29.5934 44.3889ZM30.5163 42.6936L29.5934 43.6165L27.9614 41.9835L28.8843 41.0606L30.5163 42.6936ZM26.3774 43.5675L27.345 44.534C26.7516 44.51 26.1985 44.4195 25.7043 44.2406L26.3774 43.5675ZM27.813 44.5405C27.8796 44.4358 27.8828 44.3006 27.7912 44.2089L26.7636 43.1824L27.5763 42.3696L29.2094 44.0027L29.0916 44.1206C28.9934 44.2187 28.9956 44.3693 29.0796 44.4762C28.6508 44.5133 28.2265 44.5384 27.813 44.5405ZM32.3141 43.7213L32.3076 43.7147L33.0996 42.9227C33.1116 42.9249 33.1214 42.9369 33.1345 42.9369C33.1476 42.9369 33.1574 42.9238 33.1705 42.9216C32.961 43.2566 32.6687 43.5184 32.3141 43.7213ZM33.4618 42.2213C33.4541 42.2115 33.4574 42.1973 33.4487 42.1886C33.3418 42.0816 33.1694 42.0816 33.0625 42.1886L33.0538 42.1973L31.5101 40.6536L32.6545 39.5093L33.3047 40.1595C33.3963 40.2511 33.5272 40.274 33.6592 40.1726C33.6254 40.7911 33.6025 41.6464 33.4618 42.2213Z" fill="black"/>
<path d="M44.2334 33.3415C40.7098 33.7571 36.9243 32.7502 37.1632 39.8815C37.2167 41.5091 37.3519 43.0658 38.3872 44.2168C39.3909 45.3306 40.8494 45.6349 42.417 45.6349C48.489 45.6349 49.2439 43.5502 49.3847 40.9757L49.5298 38.3269C49.7665 34.0604 48.0167 32.8888 44.2334 33.3415ZM38.253 39.8455C38.0479 33.6698 40.9007 34.8349 44.3632 34.4248C47.2323 34.0811 48.5949 34.5775 48.4519 37.9353L48.3385 38.0487L47.2978 37.008C47.1909 36.9011 47.0185 36.9011 46.9116 37.008C46.8047 37.1149 46.8047 37.2873 46.9116 37.3942L47.9523 38.4349L46.9116 39.4757C46.8047 39.5826 46.8047 39.7549 46.9116 39.8618C47.0185 39.9688 47.1909 39.9688 47.2978 39.8618L48.3385 38.8211L48.4061 38.8888L48.2949 40.9168C48.285 41.1022 48.2709 41.2964 48.2534 41.4906L46.0487 39.2858C46.0825 39.1898 46.0814 39.084 46.0039 39.0077C45.9069 38.9106 45.7596 38.9138 45.6527 38.9935C45.5763 38.988 45.501 39.0088 45.4421 39.0666C45.3876 39.1211 45.3625 39.192 45.3636 39.2629L44.4309 40.1957L43.4785 39.2433C43.3716 39.1364 43.1992 39.1364 43.0923 39.2433C42.9854 39.3502 42.9854 39.5226 43.0923 39.6295L44.0447 40.5818L43.4447 41.1818C43.3378 41.2888 43.3378 41.4611 43.4447 41.568C43.5516 41.6749 43.7239 41.6749 43.8309 41.568L44.4309 40.968L45.249 41.7862L44.049 42.9873L42.6134 41.5517L43.545 40.62C43.6519 40.5131 43.6519 40.3408 43.545 40.2338C43.4381 40.1269 43.2658 40.1269 43.1589 40.2338L42.1967 41.196C42.1007 41.1622 41.9949 41.1633 41.9174 41.2408C41.8399 41.3182 41.8389 41.424 41.8727 41.52L40.6727 42.7178L39.8381 41.8833C39.7312 41.7764 39.5589 41.7764 39.4519 41.8833C39.345 41.9902 39.345 42.1626 39.4519 42.2695L40.2865 43.104L39.7454 43.6451C39.6734 43.7171 39.6679 43.8131 39.693 43.9047C39.513 43.7847 39.345 43.6495 39.1967 43.4848C38.4079 42.6088 38.2999 41.2637 38.253 39.8455ZM47.5432 43.3047L47.5192 43.2808L47.7789 43.0211C47.7079 43.1215 47.6305 43.2175 47.5432 43.3047ZM45.0494 43.9822L44.4363 43.3691L45.6363 42.168L46.7479 43.2797L46.2069 43.8207C46.1359 43.8917 46.1305 43.9855 46.1523 44.076C45.8119 44.1818 45.4476 44.2615 45.0669 44.3226C45.1399 44.2178 45.1432 44.076 45.0494 43.9822ZM46.2647 41.1546C46.1578 41.0477 45.9854 41.0477 45.8785 41.1546L45.6363 41.3967L44.8181 40.5786L45.6952 39.7015L47.9807 41.9869C47.9927 41.9989 48.0112 41.9957 48.0243 42.0055L47.1341 42.8957L46.0225 41.784L46.2647 41.5418C46.3716 41.4338 46.3716 41.2615 46.2647 41.1546ZM40.0061 44.0826C40.0498 44.0706 40.0967 44.0651 40.1316 44.0302L40.6727 43.4891L41.457 44.2735C41.5639 44.3804 41.7363 44.3804 41.8432 44.2735C41.9501 44.1666 41.9501 43.9942 41.8432 43.8873L41.0589 43.1029L42.2294 41.9324L43.665 43.368L43.329 43.704C43.2221 43.8109 43.2221 43.9833 43.329 44.0902C43.4359 44.1971 43.6083 44.1971 43.7152 44.0902L44.0512 43.7542L44.6643 44.3673C44.6719 44.3749 44.685 44.3728 44.6938 44.3793C43.2669 44.5647 41.2836 44.7262 40.0061 44.0826Z" fill="black"/>
<path d="M63.5196 34.6231C62.2912 32.9387 60.4967 33.1515 58.9105 33.3413C55.7719 33.7111 51.5948 32.5504 51.8403 39.8813C51.9516 43.2718 52.8221 45.6336 57.0941 45.6336C63.177 45.6336 63.9221 43.5391 64.0617 40.9744L64.2068 38.3256C64.281 36.9751 64.2843 35.6747 63.5196 34.6231C63.5196 34.6242 63.5196 34.6242 63.5196 34.6231ZM62.8759 35.738C63.0636 36.1929 63.1345 36.7176 63.141 37.286L62.2345 36.3795L62.8759 35.738ZM52.9301 39.8453C52.725 33.6555 55.617 34.8304 59.0403 34.4245C60.4857 34.2511 61.7534 34.0951 62.6119 35.2384C62.4974 35.3398 61.4708 36.3707 61.3617 36.4787C61.2548 36.5856 61.2548 36.758 61.3617 36.8649C61.4687 36.9718 61.641 36.9718 61.7479 36.8649L61.8494 36.7635L62.7788 37.6929C62.8323 37.7464 62.9021 37.7725 62.9719 37.7725C63.0319 37.7725 63.0887 37.7431 63.1388 37.7038C63.1334 37.8904 63.1301 38.0758 63.1192 38.2656L63.0647 39.2616L62.4123 38.6093L62.6032 38.4184C62.7101 38.3115 62.7101 38.1391 62.6032 38.0322C62.4963 37.9253 62.3239 37.9253 62.217 38.0322L62.0261 38.2231L61.4545 37.6515C61.3476 37.5445 61.1752 37.5445 61.0683 37.6515C60.9614 37.7584 60.9614 37.9307 61.0683 38.0376L61.6388 38.6082L60.4803 39.7656C60.3734 39.8725 60.3734 40.0449 60.4803 40.1518C60.5872 40.2587 60.7596 40.2587 60.8665 40.1518L62.025 38.9944L62.7177 39.6871C62.8301 39.7995 62.9305 39.7755 63.0396 39.7133L62.9741 40.9144C62.9588 41.1816 62.9403 41.4511 62.9076 41.7162C62.8072 41.6704 62.6916 41.6693 62.6087 41.7522L62.0577 42.3031C62.1145 42.1995 62.1167 42.074 62.0294 41.9867L60.9985 40.9558C60.9854 40.9209 60.9843 40.8827 60.9559 40.8544C60.9276 40.826 60.8894 40.826 60.8545 40.8118L59.5748 39.5333C59.4679 39.4264 59.2956 39.4264 59.1887 39.5333C59.0817 39.6402 59.0817 39.8125 59.1887 39.9195L60.3472 41.0769L59.6174 41.8078L58.2112 40.4016L58.6977 39.9151C58.8047 39.8082 58.8047 39.6358 58.6977 39.5289C58.5908 39.422 58.4185 39.422 58.3116 39.5289L57.825 40.0155L57.2839 39.4744C57.177 39.3675 57.0047 39.3675 56.8977 39.4744C56.7908 39.5813 56.7908 39.7536 56.8977 39.8605L57.4388 40.4016L56.4439 41.3965L55.9912 40.9438C55.8843 40.8369 55.7119 40.8369 55.605 40.9438C55.4981 41.0507 55.4981 41.2231 55.605 41.33L56.0577 41.7827L55.0923 42.7482L54.4628 42.1187C54.3559 42.0118 54.1836 42.0118 54.0767 42.1187C53.9697 42.2256 53.9697 42.398 54.0767 42.5049L54.7061 43.1344L54.1279 43.7125C53.0567 42.7984 52.9781 41.2918 52.9301 39.8453ZM61.6421 42.3729C61.6956 42.4264 61.7654 42.4525 61.8352 42.4525C61.8799 42.4525 61.9192 42.4231 61.9596 42.4013L61.0847 43.2762L60.0014 42.1929L60.7323 41.462L61.6421 42.3729ZM59.2301 42.194L58.2363 43.1889L56.8301 41.7827L57.825 40.7878L59.2301 42.194ZM55.0934 43.5195L56.0545 44.4805C55.5112 44.4107 55.0159 44.2645 54.585 44.0278L55.0934 43.5195ZM56.5814 44.5296C56.6403 44.426 56.6436 44.2973 56.5541 44.2089L55.4785 43.1333L56.4439 42.1678L57.8501 43.574L57.6614 43.7627C57.5545 43.8696 57.5545 44.042 57.6614 44.1489C57.7683 44.2558 57.9407 44.2558 58.0476 44.1489L58.2363 43.9602L58.5057 44.2296C58.6127 44.3365 58.785 44.3365 58.8919 44.2296C58.9988 44.1227 58.9988 43.9504 58.8919 43.8435L58.6225 43.574L59.6174 42.5791L60.6996 43.6613L60.3636 43.9973C60.3025 44.0584 60.2861 44.138 60.2948 44.2176C59.3119 44.4347 57.6559 44.5885 56.5814 44.5296ZM61.569 43.7824C61.5603 43.7715 61.5636 43.7551 61.5537 43.7453L61.4708 43.6624L62.7897 42.3435C62.6174 42.9413 62.265 43.4169 61.569 43.7824Z" fill="black"/>
<path d="M19.4883 49.6898C18.2599 48.0055 16.4643 48.2171 14.8781 48.4069C13.9181 48.5204 13.8505 48.5138 13.2396 48.5269C9.41373 48.6055 7.63664 49.8175 7.80791 54.948C7.91701 58.2742 8.73955 60.7004 13.0617 60.7004C15.3505 60.7004 18.4792 60.3862 19.5439 58.3713C20.1123 57.2967 20.037 55.8993 20.1745 53.3935C20.2497 52.0429 20.253 50.7415 19.4883 49.6898C19.4883 49.6909 19.4883 49.6909 19.4883 49.6898ZM19.0988 52.1324L18.8217 51.8553L19.0617 51.6153C19.0846 51.7822 19.0923 51.9567 19.0988 52.1324ZM8.89882 54.912C8.74828 50.3662 10.0868 49.6822 13.2625 49.6178C13.8876 49.6047 14.0054 49.6091 15.0079 49.4902C16.4806 49.3135 17.7548 49.1629 18.6068 50.3324C18.7519 50.5309 18.8545 50.7556 18.9319 50.9956C18.921 51.0033 18.9068 51 18.897 51.0098L18.3199 51.5869C18.2828 51.6 18.2425 51.6011 18.213 51.6306C18.1836 51.66 18.1825 51.7004 18.1694 51.7375L17.8999 52.0069C17.793 52.1138 17.793 52.2862 17.8999 52.3931C18.1072 52.6004 18.2621 52.4171 18.4377 52.2415L19.1021 52.9058C19.0966 53.0487 19.0956 53.1884 19.0868 53.3346L19.0192 54.5629L18.1639 53.7076L18.7552 53.1164C18.8621 53.0095 18.8621 52.8371 18.7552 52.7302C18.4792 52.4542 18.0766 53.0236 17.7777 53.3215L17.2803 52.824C17.1734 52.7171 17.001 52.7171 16.8941 52.824C16.7872 52.9309 16.7872 53.1033 16.8941 53.2102L17.3916 53.7076L16.209 54.8902L16.0879 54.7691C15.981 54.6622 15.8086 54.6622 15.7017 54.7691C15.5948 54.876 15.5948 55.0484 15.7017 55.1553L17.8301 57.2836L16.9606 58.1531L16.2177 57.4102L16.809 56.8189C16.9159 56.712 16.9159 56.5396 16.809 56.4327C16.7021 56.3258 16.5297 56.3258 16.4228 56.4327L15.8316 57.024L14.6479 55.8404L14.6763 55.812C14.7832 55.7051 14.7832 55.5327 14.6763 55.4258C14.5694 55.3189 14.397 55.3189 14.2901 55.4258L14.2617 55.4542L13.8908 55.0833C13.7839 54.9764 13.6115 54.9764 13.5046 55.0833C13.3977 55.1902 13.3977 55.3626 13.5046 55.4695L13.8755 55.8404L12.4421 57.2738L11.9457 56.7775C11.8388 56.6706 11.6665 56.6706 11.5595 56.7775C11.4526 56.8844 11.4526 57.0567 11.5595 57.1636L12.0559 57.66L11.1865 58.5295L10.5014 57.8444C10.3945 57.7375 10.2221 57.7375 10.1152 57.8444C10.0083 57.9513 10.0083 58.1236 10.1152 58.2305L10.8003 58.9156L10.5941 59.1218C9.10391 58.3287 8.95882 56.7262 8.89882 54.912ZM18.9101 56.4742C18.8086 56.4262 18.6897 56.424 18.6057 56.508L18.2174 56.8964L16.5952 55.2742L17.7777 54.0916L18.9341 55.248C18.9472 55.2611 18.9657 55.2578 18.9799 55.2676C18.9668 55.5218 18.9286 56.2375 18.9101 56.4742ZM14.0206 58.9069C14.0076 58.8731 14.0065 58.8349 13.9792 58.8076L12.8305 57.6589L14.2639 56.2255L15.4475 57.4091L14.0719 58.7847C14.0381 58.8175 14.0326 58.8644 14.0206 58.9069ZM11.1908 59.2996L11.2945 59.4033C11.241 59.388 11.193 59.3662 11.1417 59.3487L11.1908 59.2996ZM12.1312 59.5582C12.1225 59.5036 12.1105 59.448 12.0679 59.4066L11.5759 58.9146L12.4454 58.0451L13.5941 59.1938C13.7239 59.3236 13.9606 59.3182 14.0305 59.0705C14.0436 59.1044 14.0446 59.1425 14.0719 59.1698C14.1788 59.2767 14.3512 59.2767 14.4581 59.1698L15.8337 57.7942L17.0872 59.0476C15.8337 59.52 13.3857 59.6989 12.1312 59.5582ZM17.613 58.8033L17.3479 58.5382L18.3101 57.576C18.3603 57.5662 18.4126 57.5564 18.4519 57.5171C18.4912 57.4778 18.4999 57.4255 18.5108 57.3753L18.837 57.0491C18.7868 57.3382 18.7116 57.6153 18.5806 57.864C18.3636 58.2731 18.0243 58.572 17.613 58.8033Z" fill="black"/>
<path d="M34.1654 49.6896C32.6076 47.5514 30.2621 48.4765 27.9167 48.5278C24.0898 48.6063 22.3138 49.8238 22.485 54.9489C22.5963 58.3318 23.4592 60.7012 27.7389 60.7012C34.4338 60.7012 34.604 57.9434 34.7065 56.042L34.8516 53.3932C34.9269 52.0427 34.9301 50.7412 34.1654 49.6896C34.1654 49.6907 34.1654 49.6907 34.1654 49.6896ZM25.497 59.235L25.7458 58.9863L26.2181 59.4587C25.965 59.402 25.7218 59.3321 25.497 59.235ZM27.0112 59.5765C27.0047 59.5176 26.9883 59.4576 26.9436 59.4118L26.1309 58.6001L27.4705 57.2605L28.5909 58.3809L27.7487 59.223C27.6429 59.3289 27.6429 59.5012 27.7487 59.607C27.4967 59.607 27.2512 59.5961 27.0112 59.5765ZM30.1912 56.7805L28.977 57.9947L27.8567 56.8743L29.0709 55.6601L30.1912 56.7805ZM28.1414 59.6016L28.977 58.767L29.4745 59.2645C29.7287 59.5187 30.117 59.1358 29.8607 58.8783L29.3632 58.3809L30.5774 57.1667L31.5723 58.1605L30.824 58.9089C30.717 59.0158 30.717 59.1881 30.824 59.295C30.8305 59.3016 30.8414 59.2994 30.849 59.3049C30.021 59.4772 28.9563 59.5743 28.1414 59.6016ZM31.9574 58.5467L32.2432 58.8325C31.9629 58.983 31.6476 59.0998 31.3105 59.1936L31.9574 58.5467ZM32.7036 58.5216L32.3425 58.1605L33.225 57.278C33.3363 57.1667 33.3505 56.9801 33.1683 56.8689C33.4225 56.858 33.5098 56.5667 33.3505 56.4074L31.9978 55.0547L32.6927 54.3598C32.7996 54.2529 32.7996 54.0805 32.6927 53.9736C32.5858 53.8667 32.4134 53.8667 32.3065 53.9736L31.6116 54.6685L31.208 54.2649C31.101 54.158 30.9287 54.158 30.8218 54.2649C30.7149 54.3718 30.7149 54.5441 30.8218 54.651L31.2243 55.0536L31.0727 55.2052C30.9658 55.3121 30.9658 55.4845 31.0727 55.5914C31.1796 55.6983 31.352 55.6983 31.4589 55.5914L31.6105 55.4398L32.9632 56.7925C32.9785 56.8078 33.0025 56.8045 33.02 56.8165C32.9545 56.8198 32.888 56.8416 32.8378 56.8918L31.9552 57.7743L30.8785 56.6976C30.8709 56.6409 30.8567 56.5841 30.813 56.5405C30.7694 56.4969 30.7127 56.4838 30.656 56.475L28.508 54.327C28.401 54.2201 28.2287 54.2201 28.1218 54.327C28.0149 54.434 28.0149 54.6063 28.1218 54.7132L28.6814 55.2729L27.4672 56.487L27.0647 56.0845C26.9578 55.9776 26.7854 55.9776 26.6785 56.0845C26.5716 56.1914 26.5716 56.3638 26.6785 56.4707L27.0821 56.8743L25.7425 58.214L24.8065 57.278C24.6996 57.1711 24.5272 57.1711 24.4203 57.278C24.3134 57.3849 24.3134 57.5572 24.4203 57.6641L25.3563 58.6001L24.9952 58.9612C23.7581 58.1201 23.6283 56.5776 23.5727 54.9118C23.4221 50.366 24.7618 49.682 27.9363 49.6176C28.9334 49.5958 30.6189 49.3689 31.1447 49.3689C33.5818 49.3689 33.8774 51.194 33.7607 53.3332L33.752 53.487L32.7156 52.4507L33.2458 51.9205C33.3527 51.8136 33.3527 51.6412 33.2458 51.5343C33.1389 51.4274 32.9665 51.4274 32.8596 51.5343L32.3294 52.0645L32.2716 52.0067C32.1647 51.8998 31.9923 51.8998 31.8854 52.0067C31.7785 52.1136 31.7785 52.286 31.8854 52.3929L31.9432 52.4507L31.8854 52.5085C31.7785 52.6154 31.7785 52.7878 31.8854 52.8947C31.9923 53.0016 32.1647 53.0016 32.2716 52.8947L32.3294 52.8369L33.4552 53.9627C33.5676 54.075 33.632 54.0391 33.7225 54.0118L33.6145 55.983C33.56 57.038 33.5043 57.8605 32.7036 58.5216Z" fill="black"/>
<path d="M44.2334 48.4067C43.2734 48.5201 43.2058 48.5136 42.5949 48.5267C38.768 48.6052 36.992 49.8227 37.1633 54.9478C37.2745 58.3307 38.1374 60.7001 42.4171 60.7001C44.7069 60.7001 47.8345 60.3859 48.8993 58.371C49.4687 57.2943 49.3967 55.8238 49.5298 53.3932C49.7644 49.1638 48.0625 47.9539 44.2334 48.4067ZM48.4498 52.059L48.1204 51.7296L48.3047 51.5452C48.3473 51.5027 48.3604 51.4459 48.3691 51.3914C48.4094 51.6052 48.4378 51.8278 48.4498 52.059ZM40.5931 59.3834L41.0534 58.923L41.6862 59.5558C41.7036 59.5732 41.7287 59.5699 41.7494 59.5819C41.3414 59.5514 40.952 59.4903 40.5931 59.3834ZM41.9644 59.6005C42.1989 59.5176 42.1956 59.294 42.0724 59.1707L41.4396 58.5379L42.152 57.8256L43.4196 59.0932C43.4174 59.1663 43.4404 59.2394 43.496 59.295C43.5494 59.3485 43.6193 59.3747 43.6891 59.3747C43.6924 59.3747 43.6945 59.3714 43.6978 59.3714L43.8614 59.535C43.2145 59.594 42.5709 59.6289 41.9644 59.6005ZM44.4778 59.3801L44.1374 59.0398L45.2894 57.8878L46.4469 59.0452C45.8731 59.2623 45.2065 59.3856 44.5149 59.4674C44.5007 59.438 44.5018 59.4041 44.4778 59.3801ZM43.7513 58.6536L42.5371 57.4394L43.6891 56.2874L44.9033 57.5016L43.7513 58.6536ZM46.9716 58.7998L45.6734 57.5016L46.4218 56.7532C46.4567 56.7183 46.4622 56.6714 46.4742 56.6267L47.5105 57.663C47.6174 57.77 47.7898 57.77 47.8967 57.663C48.0036 57.5561 48.0036 57.3838 47.8967 57.2769L45.512 54.8921C45.4051 54.7852 45.2327 54.7852 45.1258 54.8921C45.0189 54.999 45.0189 55.1714 45.1258 55.2783L46.1622 56.3147C46.1174 56.3267 46.0705 56.3321 46.0356 56.367L45.2873 57.1154L44.0731 55.9012L44.276 55.6983C44.3829 55.5914 44.3829 55.419 44.276 55.3121C44.1691 55.2052 43.9967 55.2052 43.8898 55.3121L43.6869 55.515L43.6291 55.4572C43.5222 55.3503 43.3498 55.3503 43.2429 55.4572C43.136 55.5641 43.136 55.7365 43.2429 55.8434L43.3007 55.9012L42.1487 57.0532L41.7451 56.6496C41.6382 56.5427 41.4658 56.5427 41.3589 56.6496C41.252 56.7565 41.252 56.9289 41.3589 57.0358L41.7625 57.4394L41.0502 58.1518L40.3018 57.4034C40.1949 57.2965 40.0225 57.2965 39.9156 57.4034C39.8087 57.5103 39.8087 57.6827 39.9156 57.7896L40.664 58.5379L40.0334 59.1685C38.4767 58.407 38.3109 56.7881 38.2487 54.9129C38.0982 50.367 39.4378 49.683 42.6124 49.6187C43.2374 49.6056 43.3553 49.6099 44.3578 49.491C45.6964 49.3307 47.8007 48.9958 48.3309 51.2332C48.3189 51.2092 48.3211 51.1809 48.3004 51.1601C48.1934 51.0532 48.0211 51.0532 47.9142 51.1601L47.7298 51.3445L47.7025 51.3172C47.5956 51.2103 47.4233 51.2103 47.3164 51.3172C47.2094 51.4241 47.2094 51.5965 47.3164 51.7034L47.3425 51.7296L47.2531 51.819C47.1462 51.9259 47.1462 52.0983 47.2531 52.2052C47.36 52.3121 47.5324 52.3121 47.6393 52.2052L47.7287 52.1158L48.452 52.839C48.4465 53.0038 48.4444 53.1663 48.4345 53.3343L48.3647 54.615L47.5814 53.8318L48.1422 53.271C48.2491 53.1641 48.2491 52.9918 48.1422 52.8849C48.0353 52.7779 47.8629 52.7779 47.756 52.8849L47.1953 53.4456L46.8233 53.0736C46.7164 52.9667 46.544 52.9667 46.4371 53.0736C46.3302 53.1805 46.3302 53.3529 46.4371 53.4598L46.8091 53.8318L45.9418 54.7056C45.8349 54.8125 45.8349 54.9849 45.9418 55.0918C46.0487 55.1987 46.2211 55.1987 46.328 55.0918L47.2018 54.2179L48.3276 55.3438C48.3287 55.3449 48.3298 55.3438 48.3309 55.3449C48.2393 57.0085 48.2818 58.0623 46.9716 58.7998Z" fill="black"/>
<path d="M63.5196 49.6895C61.9596 47.5502 59.6087 48.4764 57.2709 48.5277C53.4473 48.6062 51.668 49.816 51.8393 54.9488C51.9505 58.3393 52.8211 60.7011 57.0931 60.7011C59.3818 60.7011 62.5105 60.3869 63.5753 58.372C64.1305 57.3215 64.0618 56.0189 64.2058 53.3942C64.2811 52.0426 64.2844 50.7411 63.5196 49.6895C63.5196 49.6906 63.5196 49.6906 63.5196 49.6895ZM57.3244 58.8193L56.9207 59.2229C56.8149 59.3288 56.816 59.4979 56.9196 59.6048C56.5258 59.5982 56.1462 59.5666 55.7873 59.5022C56.0251 59.4226 56.024 59.1946 55.8996 59.0702L55.3989 58.5695L56.2367 57.7317L57.3244 58.8193ZM56.6218 57.3455L57.7727 56.1946L58.8615 57.2833L57.7105 58.4342L56.6218 57.3455ZM55.5015 59.4444C55.2429 59.3833 54.9964 59.3048 54.7684 59.1989L55.0116 58.9557L55.5015 59.4444ZM57.3036 59.6091C57.3047 59.608 57.3058 59.6091 57.3069 59.608L57.7105 59.2044L57.8316 59.3255C58.0858 59.5797 58.4742 59.1968 58.2178 58.9393L58.0967 58.8182L59.2476 57.6673L60.0233 58.4429L59.6829 58.7833C59.576 58.8902 59.576 59.0626 59.6829 59.1695C59.7898 59.2764 59.9622 59.2764 60.0691 59.1695L60.4095 58.8291L60.7487 59.1684C59.7669 59.4564 58.2625 59.5917 57.3036 59.6091ZM61.2767 57.1884L60.4073 58.0568L59.6316 57.2811L60.5011 56.4117L61.2767 57.1884ZM62.612 57.8626C62.3404 58.3764 61.8778 58.7189 61.3149 58.9633L60.7945 58.4429L61.664 57.5746L61.724 57.6346C61.9782 57.8888 62.3665 57.5059 62.1102 57.2484L62.0502 57.1884L62.4538 56.7848C62.5607 56.6779 62.5607 56.5055 62.4538 56.3986C62.3469 56.2917 62.1745 56.2917 62.0676 56.3986L61.664 56.8022L59.4418 54.58C59.3349 54.4731 59.1625 54.4731 59.0556 54.58C58.9487 54.6869 58.9487 54.8593 59.0556 54.9662L60.1171 56.0277L59.2476 56.8971L58.1589 55.8084L58.6651 55.3022C58.772 55.1953 58.772 55.0229 58.6651 54.916C58.5582 54.8091 58.3858 54.8091 58.2789 54.916L57.7727 55.4222L57.3702 55.0197C57.2633 54.9128 57.0909 54.9128 56.984 55.0197C56.8771 55.1266 56.8771 55.2989 56.984 55.4059L57.3865 55.8084L56.2356 56.9593L55.8636 56.5873C55.7567 56.4804 55.5844 56.4804 55.4775 56.5873C55.3705 56.6942 55.3705 56.8666 55.4775 56.9735L55.8495 57.3455L55.0116 58.1833L54.7335 57.9051C54.6265 57.7982 54.4542 57.7982 54.3473 57.9051C54.2404 58.012 54.2404 58.1844 54.3473 58.2913L54.6255 58.5695L54.2851 58.9099C54.2829 58.912 54.284 58.9142 54.2818 58.9164C53.0982 58.0579 52.9804 56.5022 52.928 54.9128C52.7775 50.368 54.116 49.6829 57.2916 49.6186C59.7036 49.5662 61.5025 48.7775 62.636 50.3331C63.0658 50.9222 63.1531 51.7142 63.1433 52.5749L62.0742 51.5069C61.9673 51.4 61.7949 51.4 61.688 51.5069C61.5811 51.6139 61.5811 51.7862 61.688 51.8931L62.7364 52.9404C62.6775 52.9469 62.6175 52.9633 62.5716 53.0091L61.8822 53.6986L61.1971 53.0124C61.0902 52.9055 60.9178 52.9055 60.8109 53.0124C60.704 53.1193 60.704 53.2917 60.8109 53.3986L61.496 54.0848L60.8109 54.7699C60.704 54.8768 60.704 55.0491 60.8109 55.156C60.9178 55.2629 61.0902 55.2629 61.1971 55.156L61.8822 54.4709L62.6 55.1855C62.7178 55.3033 62.9251 55.3142 63.0222 55.0982C62.9764 55.924 62.9775 57.1688 62.612 57.8626ZM63.032 54.9117C63.0189 54.8724 63.0167 54.8309 62.9862 54.8004L62.2695 54.0826L62.9589 53.3931C63.0047 53.3473 63.0211 53.2873 63.0276 53.2284L63.0713 53.272C63.0855 53.2862 63.1051 53.2819 63.1204 53.2928C63.1193 53.3069 63.1193 53.3211 63.1193 53.3353L63.032 54.9117Z" fill="black"/>
<path d="M46.2406 10.5643L46.9879 10.7422C46.9432 11.2058 46.9061 11.6705 46.8995 12.1331C46.8974 12.2705 46.9977 12.3872 47.133 12.4069C47.2628 12.4276 47.397 12.3458 47.4341 12.2105L47.5704 11.7218C47.6021 11.6094 47.5584 11.4949 47.4701 11.4283C47.481 11.2418 47.5094 11.0563 47.5268 10.8698L47.9414 10.9691C48.081 11.004 48.2337 10.9178 48.2697 10.7662C48.3046 10.62 48.2141 10.4727 48.0679 10.4378L47.5824 10.3222C47.6806 9.53779 47.8366 8.76216 48.0417 7.99743C48.1017 8.05634 48.1737 8.10107 48.2272 8.16543C48.321 8.28325 48.4923 8.3007 48.6112 8.20579C48.7279 8.11088 48.7464 7.93852 48.6504 7.82179C48.5217 7.66252 48.369 7.52288 48.2086 7.39416C48.369 6.8727 48.5479 6.35888 48.7574 5.85925C48.8566 5.6247 48.9668 5.38798 49.0923 5.16434C49.3464 5.37052 49.5919 5.5887 49.8144 5.83088C49.9159 5.94107 50.0894 5.94979 50.2006 5.84725C50.3119 5.74579 50.3184 5.57343 50.217 5.46216C49.9694 5.19379 49.6988 4.95052 49.4163 4.72252C49.4828 4.63961 49.533 4.54143 49.6094 4.46943C50.0054 4.09198 50.5334 3.92616 50.9523 4.05161C51.0941 4.09525 51.2479 4.01125 51.2904 3.86616C51.333 3.72107 51.2501 3.57052 51.105 3.52688C50.4963 3.35234 49.7774 3.55743 49.2352 4.07234C49.1272 4.17488 49.0334 4.28398 48.945 4.39634C48.7454 4.25998 48.5534 4.11488 48.3395 3.99816C48.2086 3.92834 48.0428 3.97525 47.9697 4.10725C47.8977 4.23925 47.9457 4.40507 48.0777 4.47816C48.2763 4.58616 48.4552 4.72143 48.6406 4.84907C48.4912 5.10979 48.3657 5.38252 48.2523 5.65198C48.0559 6.11998 47.8868 6.59998 47.7319 7.08652C47.577 7.00579 47.4177 6.93488 47.2519 6.88361C47.1079 6.84216 46.9552 6.91961 46.9104 7.0647C46.8668 7.2087 46.9475 7.36034 47.0915 7.40616C47.2628 7.45852 47.421 7.54688 47.5759 7.63743C47.3392 8.47743 47.1592 9.33379 47.0479 10.1978L46.3661 10.0352C46.2177 9.99707 46.0726 10.0909 46.0377 10.2382C46.0039 10.3822 46.0944 10.5294 46.2406 10.5643Z" fill="black"/>
<path d="M19.2265 11.5776C19.3913 11.0354 19.4316 10.4779 19.4305 9.92158C19.556 9.95867 19.6847 9.98594 19.808 10.035C19.9531 10.0918 20.108 10.0187 20.1625 9.8823C20.2182 9.74158 20.1494 9.5834 20.0098 9.52776C19.8178 9.4514 19.6193 9.4023 19.4207 9.35103C19.4131 9.17649 19.4044 9.00194 19.3945 8.82849L19.3814 8.60158C19.364 8.27212 19.3574 7.93721 19.3662 7.6034C19.5516 7.68849 19.7338 7.78449 19.8974 7.90776C20.0229 7.99939 20.192 7.97103 20.2793 7.85321C20.3698 7.73321 20.3458 7.56085 20.2258 7.4703C19.976 7.28267 19.6978 7.14085 19.4076 7.02849C19.4545 6.63249 19.5385 6.24412 19.7087 5.88521C19.7796 5.73576 19.8756 5.59067 19.9825 5.45321C20.1014 5.57103 20.2204 5.68776 20.3196 5.82085C20.4113 5.94412 20.5836 5.96594 20.7014 5.87867C20.8225 5.78921 20.8487 5.61903 20.7593 5.49685C20.6436 5.34085 20.504 5.20339 20.3644 5.06594C20.7505 4.75503 21.2305 4.57176 21.7247 4.68194C21.8753 4.71467 22.0182 4.62194 22.0498 4.47576C22.0814 4.32958 21.9898 4.1823 21.8425 4.14958C21.1411 3.99685 20.4604 4.26521 19.9422 4.7103C19.82 4.62085 19.7054 4.52158 19.5745 4.44739C19.4447 4.37321 19.2778 4.41685 19.2025 4.54885C19.1273 4.67976 19.1731 4.84558 19.304 4.92085C19.3967 4.9743 19.4774 5.04739 19.5658 5.10958C19.4273 5.28194 19.3051 5.46412 19.2156 5.65285C19.0291 6.04449 18.9364 6.46339 18.8796 6.88449C18.8131 6.8703 18.752 6.84085 18.6854 6.83103C18.5382 6.80376 18.3985 6.91176 18.3756 7.06121C18.3538 7.21067 18.4574 7.34921 18.6058 7.36994C18.6822 7.38085 18.752 7.41467 18.8273 7.43103C18.8087 7.84121 18.8153 8.24921 18.836 8.63212L18.8491 8.86121C18.8567 8.98885 18.8622 9.11758 18.8687 9.2463C18.6953 9.2223 18.524 9.19067 18.3484 9.1863C18.2054 9.18194 18.0734 9.30085 18.068 9.45139C18.0636 9.60194 18.1825 9.72739 18.3331 9.73176C18.5196 9.73721 18.7018 9.76667 18.884 9.79503C18.8916 10.3514 18.8611 10.9034 18.7051 11.4205C18.6614 11.5645 18.7433 11.7161 18.8873 11.7608C19.0433 11.8034 19.1862 11.7139 19.2265 11.5776Z" fill="black"/>
<path d="M6.59601 21.2388L7.63019 20.2047L8.14183 20.7163C8.24874 20.8232 8.4211 20.8232 8.52801 20.7163C8.63492 20.6094 8.63492 20.437 8.52801 20.3301L8.01637 19.8185L8.83565 18.9992L9.1651 19.3287C9.27201 19.4356 9.44437 19.4356 9.55128 19.3287C9.65819 19.2217 9.65819 19.0494 9.55128 18.9425L9.22183 18.613L9.76728 18.0676C9.8971 18.1974 10.1458 18.5017 10.3138 18.5017C10.5495 18.5007 10.7687 18.4974 10.7676 18.2257C10.7666 18.0763 10.6444 17.9552 10.4949 17.9552H10.4262L10.1535 17.6825L11.0786 16.7574C11.1855 16.6505 11.1855 16.4781 11.0786 16.3712C10.9716 16.2643 10.7993 16.2643 10.6924 16.3712L9.76728 17.2974L9.41492 16.945C9.30801 16.8381 9.13565 16.8381 9.02874 16.945C8.92183 17.0519 8.92183 17.2243 9.02874 17.3312L9.3811 17.6836L8.83565 18.229L8.32401 17.7174C8.2171 17.6105 8.04474 17.6105 7.93783 17.7174C7.83092 17.8243 7.83092 17.9967 7.93783 18.1036L8.44946 18.6152L7.63019 19.4345L6.77819 18.5814C6.67128 18.4745 6.49892 18.4745 6.39201 18.5814C6.2851 18.6883 6.2851 18.8607 6.39201 18.9676L7.2451 19.8185L6.21092 20.8537C6.10401 20.9607 6.10401 21.133 6.21092 21.2399C6.31674 21.3457 6.4891 21.3457 6.59601 21.2388Z" fill="black"/>
<path d="M58.832 20.3977L58.0476 21.1821C57.9407 21.289 57.9407 21.4614 58.0476 21.5683C58.1546 21.6752 58.3269 21.6752 58.4338 21.5683L59.2182 20.7839L59.9775 21.5432C60.0844 21.6501 60.2567 21.6501 60.3636 21.5432C60.4706 21.4363 60.4706 21.2639 60.3636 21.157L59.6044 20.3977L60.7182 19.2839L61.1786 19.7443C61.2855 19.8512 61.4578 19.8512 61.5647 19.7443C61.6716 19.6374 61.6716 19.465 61.5647 19.3581L61.1044 18.8977L61.892 18.1101L62.1909 18.409L62.2084 18.541C62.2269 18.6785 62.3436 18.7788 62.4789 18.7788C62.4909 18.7788 62.5029 18.7777 62.5149 18.7766C62.8498 18.7308 62.7876 18.2334 62.6436 18.0894L62.2793 17.7239L62.6851 17.3181C62.792 17.2112 62.792 17.0388 62.6851 16.9319C62.5782 16.825 62.4058 16.825 62.2989 16.9319L61.8931 17.3377L61.304 16.7486C61.1971 16.6417 61.0247 16.6417 60.9178 16.7486C60.8109 16.8555 60.8109 17.0279 60.9178 17.1348L61.5069 17.7239L60.7193 18.5115L60.1302 17.9225C60.0233 17.8155 59.8509 17.8155 59.744 17.9225C59.6371 18.0294 59.6371 18.2017 59.744 18.3086L60.3331 18.8977L59.2193 20.0115L58.304 19.0963C58.1971 18.9894 58.0247 18.9894 57.9178 19.0963C57.8109 19.2032 57.8109 19.3755 57.9178 19.4825L58.832 20.3977Z" fill="black"/>
</svg>
