<svg width="70" height="70" viewBox="0 0 70 70" fill="none" xmlns="http://www.w3.org/2000/svg">
<path d="M58.2057 0.534795C43.0934 0.170431 27.7912 0.572977 12.7192 1.72934C1.57227 2.58352 0.743184 6.80425 0.861002 14.7395C0.829365 14.8595 0.817366 14.8748 0.865366 15.033C1.31918 44.8432 1.63882 55.1872 1.82755 58.605C2.24973 66.2686 4.36718 69.2435 13.677 69.3057L57.7355 69.5948C66.4836 69.6635 68.4276 66.7083 68.5214 59.6752L69.1061 15.1115C69.1792 14.9599 69.1868 14.8104 69.1126 14.649C69.2261 6.06243 69.7868 0.811886 58.2057 0.534795ZM12.8032 2.81698C27.8381 1.66389 43.1043 1.26352 58.1806 1.6257C66.5555 1.82643 68.1123 4.50789 68.0719 10.6901C68.0065 10.5548 67.5254 10.0955 67.4086 9.97989L67.9661 9.42243C68.073 9.31552 68.073 9.14316 67.9661 9.03625C67.8592 8.92934 67.6868 8.92934 67.5799 9.03625L67.0225 9.59371L65.8225 8.3937C65.7156 8.2868 65.5432 8.2868 65.4363 8.3937C65.3294 8.50061 65.3294 8.67298 65.4363 8.77989L66.6363 9.97989L65.7756 10.8406C65.6686 10.9475 65.6686 11.1199 65.7756 11.2268C65.8825 11.3337 66.0548 11.3337 66.1617 11.2268L67.0225 10.3661L67.6519 10.9955C67.7654 11.109 67.9661 11.1275 68.0697 10.917C68.0599 11.8344 68.0926 9.33843 68.0261 14.3304H65.7101L65.0643 13.6846L66.2414 12.5075L67.341 13.6072C67.4479 13.7141 67.6203 13.7141 67.7272 13.6072C67.8341 13.5003 67.8341 13.3279 67.7272 13.221L66.6275 12.1213L66.777 11.9719C66.8839 11.865 66.8839 11.6926 66.777 11.5857C66.6701 11.4788 66.4977 11.4788 66.3908 11.5857L66.2414 11.7352L65.3021 10.7959L65.8716 10.2264C65.9785 10.1195 65.9785 9.94716 65.8716 9.84025C65.7646 9.73334 65.5923 9.73334 65.4854 9.84025L63.3537 11.973L62.7876 11.4068L63.6821 10.5123C63.789 10.4053 63.789 10.233 63.6821 10.1261C63.5752 10.0192 63.4028 10.0192 63.2959 10.1261L62.4014 11.0206L62.1526 10.7719C62.0457 10.665 61.8734 10.665 61.7665 10.7719C61.6595 10.8788 61.6595 11.0512 61.7665 11.1581L62.0152 11.4068L61.0192 12.4028C60.9123 12.5097 60.9123 12.6821 61.0192 12.789C61.1261 12.8959 61.2985 12.8959 61.4054 12.789L62.4014 11.793L62.9676 12.3592L61.6312 13.6955C61.5243 13.8024 61.5243 13.9748 61.6312 14.0817C61.7381 14.1886 61.9105 14.1886 62.0174 14.0817L63.3537 12.7453L64.293 13.6846L63.6701 14.3075C63.6635 14.3141 63.6657 14.3239 63.6603 14.3304H57.4868L59.0719 12.7443L60.1399 13.8123C60.2468 13.9192 60.4192 13.9192 60.5261 13.8123C60.633 13.7053 60.633 13.533 60.5261 13.4261L59.4581 12.3581L61.3497 10.4664C61.4566 10.3595 61.4566 10.1872 61.3497 10.0802C61.2428 9.97334 61.0705 9.97334 60.9636 10.0802L59.0719 11.9719L58.3705 11.2704L58.9988 10.6432C59.1057 10.5363 59.1057 10.3639 58.9988 10.257C58.8919 10.1501 58.7196 10.1501 58.6126 10.257L55.641 13.2286L54.6341 12.2217L55.0203 11.8355C55.1272 11.7286 55.1272 11.5563 55.0203 11.4493C54.9134 11.3424 54.741 11.3424 54.6341 11.4493L52.7523 13.3312L51.8916 12.4715C51.7846 12.3646 51.6123 12.3646 51.5054 12.4715C51.3985 12.5784 51.3985 12.7508 51.5054 12.8577L52.3661 13.7173L51.9134 14.1701C51.8697 14.2137 51.8545 14.2726 51.8468 14.3293H50.4941C50.481 14.2933 50.4799 14.2541 50.4505 14.2246L50.0108 13.785L51.6145 12.1813C51.7214 12.0744 51.7214 11.9021 51.6145 11.7952C51.5075 11.6883 51.3352 11.6883 51.2283 11.7952L49.6246 13.3988L49.1043 12.8784C48.9974 12.7715 48.825 12.7715 48.7181 12.8784C48.6112 12.9853 48.6112 13.1577 48.7181 13.2646L49.2385 13.785L48.8534 14.1701C48.8097 14.2137 48.7945 14.2726 48.7868 14.3293H47.2999C47.2868 14.2933 47.2857 14.2541 47.2574 14.2257L46.7141 13.6824L48.5752 11.8224C48.6821 11.7155 48.6821 11.5432 48.5752 11.4363C48.4683 11.3293 48.2959 11.3293 48.189 11.4363L46.3279 13.2963L45.9766 12.945C45.8697 12.8381 45.6974 12.8381 45.5905 12.945C45.4836 13.0519 45.4836 13.2243 45.5905 13.3312L45.9417 13.6824L45.5228 14.1003C45.4595 14.1635 45.4465 14.2464 45.4574 14.3283H1.94646C1.83846 7.21225 2.47446 3.60789 12.8032 2.81698ZM64.9399 14.3293H64.4185L64.6792 14.0686L64.9399 14.3293ZM64.917 11.181L65.8563 12.1203L64.6792 13.2973L63.7399 12.3581L64.917 11.181ZM53.6937 14.3293C53.6806 14.2955 53.6796 14.2573 53.6523 14.2301L53.1385 13.7173L54.2479 12.6079L55.2548 13.6148L55.1076 13.7621C55.0006 13.869 55.0006 14.0413 55.1076 14.1483C55.2145 14.2552 55.3868 14.2552 55.4937 14.1483L55.641 14.001L55.929 14.289C55.9563 14.3163 55.9934 14.3163 56.0272 14.3293H53.6937ZM52.9803 14.3293H52.5276L52.7545 14.1024L52.9803 14.3293ZM56.3152 13.9028L56.0272 13.6148L57.9854 11.6566L58.6868 12.3581L56.7396 14.3064C56.733 14.313 56.7352 14.3228 56.7297 14.3293H56.2181C56.2519 14.3163 56.289 14.3163 56.3163 14.289C56.4221 14.1821 56.4221 14.0097 56.3152 13.9028ZM49.7872 14.3293H49.4697L49.629 14.1701L49.7872 14.3293ZM46.593 14.3293H46.0715L46.3323 14.0686L46.593 14.3293ZM57.7443 68.5028L13.6857 68.2137C5.09046 68.1581 3.31555 65.7559 2.91737 58.545C2.73082 55.1523 2.41337 44.8966 1.96391 15.4203H68.013L67.4326 59.6599C67.3475 66.0821 65.8683 68.5672 57.7443 68.5028Z" fill="black"/>
<path d="M9.69079 38.0305C26.8715 38.2673 43.7359 38.0676 60.8348 38.3055H60.8424C61.1512 38.3055 61.3999 38.048 61.3879 37.7393C61.2035 32.8553 60.9297 27.8109 60.7432 22.8996C60.7322 22.6084 60.4955 22.3782 60.2053 22.3749L10.4446 21.6724C10.4424 21.6724 10.4402 21.6724 10.437 21.6724C10.1479 21.6724 9.90789 21.8982 9.89152 22.1884C9.61443 27.3058 9.4257 32.432 9.15298 37.4545C9.13552 37.7655 9.38098 38.0262 9.69079 38.0305ZM10.9541 22.772L59.673 23.4593C59.8519 28.04 60.0995 32.6818 60.2762 37.208C43.6213 36.9844 26.9893 37.1709 10.2744 36.9484C10.5253 32.1724 10.7064 27.416 10.9541 22.772Z" fill="black"/>
<path d="M28.1577 43.2766L10.101 42.6864C9.849 42.6755 9.57082 42.8904 9.54137 43.1752C8.86828 49.5973 9.10173 56.3533 9.41918 62.1144C9.43446 62.4024 9.67118 62.6282 9.96027 62.6304C15.789 62.6675 21.6395 62.5257 27.3799 62.5617C27.6799 62.5508 27.9232 62.325 27.9286 62.0272C28.0421 56.1144 28.5701 49.8079 28.6857 43.8319C28.6901 43.5341 28.4555 43.2864 28.1577 43.2766ZM26.8486 61.4686C21.5894 61.4457 16.0628 61.5635 10.4795 61.5428C10.1883 56.0915 9.99191 49.7992 10.5745 43.7926L27.5828 44.349C27.4519 49.9737 26.9785 55.821 26.8486 61.4686Z" fill="black"/>
<path d="M60.645 51.6429H60.6483C60.9035 51.6429 61.125 51.4662 61.1806 51.2153C61.8493 48.2142 62.0108 45.5284 61.7021 42.5098C61.6737 42.2284 61.4108 42.0309 61.1533 42.02L32.5323 42.3647C32.2246 42.3691 31.9857 42.6222 31.9933 42.9244L32.1984 50.9327C32.2061 51.2273 32.4461 51.4607 32.7406 51.4629L60.645 51.6429ZM60.6624 43.1164C60.8806 45.6724 60.7377 48.0015 60.2075 50.5487L33.273 50.3753L33.0963 43.4491L60.6624 43.1164Z" fill="black"/>
<path d="M61.4162 54.0178C51.886 54.2829 42.9874 54.2382 33.3591 54.5022C33.0733 54.5109 32.8431 54.7367 32.8289 55.0215L32.4831 62.1844C32.4678 62.504 32.722 62.7724 33.0765 62.7538C41.4482 61.9956 50.3751 62.0207 61.1696 62.8356C61.1838 62.8367 61.1969 62.8367 61.2111 62.8367C61.4991 62.8367 61.7423 62.6098 61.7565 62.3153C61.8776 59.672 61.8558 57.2207 61.9758 54.5862C61.9911 54.2622 61.7173 54.0015 61.4162 54.0178ZM60.6907 61.7055C51.6329 61.0411 42.6471 60.8371 33.6034 61.6116L33.8947 55.5789C43.1707 55.3324 51.6918 55.3662 60.862 55.124C60.7758 57.3495 60.7769 59.4811 60.6907 61.7055Z" fill="black"/>
<path d="M13.0193 11.4286C14.2465 10.9508 15.1204 9.85229 15.1956 8.69592C15.3494 6.30683 12.4913 4.68574 10.2178 6.22829C9.2109 6.9112 8.59454 8.05229 8.64799 9.13338C8.74399 11.0708 10.9378 12.2403 13.0193 11.4286ZM10.0738 7.93447L11.024 8.88465C11.0251 8.88574 11.0262 8.88465 11.0273 8.88574L10.508 9.40501L9.78254 8.67956C9.83054 8.42429 9.92654 8.17338 10.0738 7.93447ZM10.1229 9.7912L10.04 9.87301C9.94836 9.7541 9.87199 9.62865 9.8229 9.4912L10.1229 9.7912ZM14.1069 8.62501C14.0513 9.48138 13.3214 10.1392 12.6233 10.4119C11.9164 10.6868 11.1211 10.6934 10.4458 10.2396L10.5102 10.1752C10.6236 10.2843 10.7905 10.2745 10.8909 10.173C10.9967 10.0672 10.9956 9.8981 10.8931 9.7912L11.6447 9.03956C11.7516 8.93265 11.7516 8.76029 11.6447 8.65338C11.5891 8.59774 11.516 8.57483 11.4429 8.57701C11.4298 8.55083 11.432 8.5192 11.4102 8.49738L11.0404 8.12756L11.8073 7.36065L12.5665 8.11992C12.6734 8.22683 12.8458 8.22683 12.9527 8.11992C13.0596 8.01301 13.0596 7.84065 12.9527 7.73374L12.1433 6.92429C12.1487 6.85556 12.128 6.7912 12.0833 6.73556C13.3684 6.68974 14.1669 7.6901 14.1069 8.62501ZM11.324 6.87956L11.42 6.97556L10.6531 7.74247L10.4065 7.49592C10.5342 7.36283 10.6727 7.23629 10.8276 7.13156C10.9847 7.02683 11.1516 6.94392 11.324 6.87956Z" fill="black"/>
<path d="M21.6582 11.4285C24.4662 10.3332 24.4793 6.96337 22.0924 5.89864C21.0844 5.44482 19.8145 5.57791 18.8556 6.22919C17.8498 6.9121 17.2335 8.05319 17.2869 9.13428C17.3829 11.0652 19.5713 12.2423 21.6582 11.4285ZM19.4676 7.13137C19.5189 7.09646 19.5778 7.07791 19.6313 7.04846L19.6902 7.10737L19.3138 7.48373C19.2069 7.59064 19.2069 7.763 19.3138 7.86991C19.4207 7.97682 19.5931 7.97682 19.7 7.86991L20.0764 7.49355L20.5684 7.98555C20.6753 8.09246 20.8476 8.09246 20.9545 7.98555C21.0615 7.87864 21.0615 7.70628 20.9545 7.59937L20.4625 7.10737L20.6415 6.92846C20.6949 6.87501 20.7211 6.80628 20.7211 6.73646C21.044 6.72446 21.3636 6.76591 21.6484 6.89355C23.1473 7.56446 23.1767 9.66446 21.2622 10.4128C20.552 10.6888 19.7644 10.6899 19.0989 10.2503L20.2815 9.06882C20.3884 8.96191 20.3884 8.78955 20.2815 8.68264C20.1745 8.57573 20.0022 8.57573 19.8953 8.68264L18.6909 9.88482C18.5055 9.65137 18.392 9.38301 18.3767 9.07864C18.3604 8.75137 18.4564 8.40664 18.6244 8.08373L19.2898 8.74919C19.3967 8.8561 19.5691 8.8561 19.676 8.74919C19.7829 8.64228 19.7829 8.46991 19.676 8.36301L18.9364 7.62337C19.0913 7.44119 19.2636 7.26991 19.4676 7.13137Z" fill="black"/>
<path d="M30.9416 11.4285C33.73 10.3408 33.7791 6.97101 31.3758 5.89864C30.3689 5.44482 29.0991 5.57791 28.1391 6.22919C27.1333 6.9121 26.5169 8.05319 26.5704 9.13428C26.6664 11.0674 28.858 12.2412 30.9416 11.4285ZM27.7616 8.44046L28.5024 9.18119C28.5405 9.21937 28.5918 9.2281 28.642 9.239L27.9842 9.89682C27.7922 9.66119 27.6754 9.38846 27.6602 9.07864C27.6493 8.86919 27.6929 8.65428 27.7616 8.44046ZM29.0336 6.98737C29.0685 6.96991 29.1024 6.95028 29.1373 6.93391L29.0587 7.01246L29.0336 6.98737ZM28.5667 7.29064L28.6736 7.39755L28.3856 7.68555C28.2787 7.79246 28.2787 7.96482 28.3856 8.07173C28.4925 8.17864 28.6649 8.17864 28.7718 8.07173L29.0598 7.78373L29.494 8.21791C29.6009 8.32482 29.7733 8.32482 29.8802 8.21791C29.9871 8.11101 29.9871 7.93864 29.8802 7.83173L29.446 7.39755L30.0307 6.81282C30.0525 6.79101 30.0504 6.76155 30.0624 6.73537C30.3645 6.7321 30.6645 6.77246 30.9318 6.89137C32.4307 7.56228 32.4602 9.66228 30.5456 10.4106C29.8496 10.6812 29.0642 10.691 28.3944 10.2568L29.4907 9.16155C29.5976 9.05464 29.5976 8.88228 29.4907 8.77537C29.3838 8.66846 29.2114 8.66846 29.1045 8.77537L28.9464 8.93355C28.9354 8.88446 28.9267 8.83319 28.8885 8.79391L28.0093 7.91464C28.1544 7.68337 28.3453 7.47391 28.5667 7.29064Z" fill="black"/>
<path d="M22.1915 28.1796L23.2846 27.0865C23.3915 26.9796 23.3915 26.8072 23.2846 26.7003C23.1777 26.5934 23.0053 26.5934 22.8984 26.7003L21.8053 27.7934L21.1595 27.1476C21.0526 27.0407 20.8802 27.0407 20.7733 27.1476C20.6664 27.2545 20.6664 27.4268 20.7733 27.5338L21.4191 28.1796L20.3162 29.2836L19.6704 28.6388C19.5635 28.5319 19.3911 28.5319 19.2842 28.6388C19.1773 28.7458 19.1773 28.9181 19.2842 29.025L19.93 29.6698L18.3591 31.2407L17.434 30.3167C17.3271 30.2098 17.1548 30.2098 17.0479 30.3167C16.941 30.4236 16.941 30.5959 17.0479 30.7028L17.973 31.6268L16.3966 33.2032C16.2897 33.3101 16.2897 33.4825 16.3966 33.5894C16.5035 33.6963 16.6759 33.6963 16.7828 33.5894L18.3602 32.0119L19.4446 33.0952C19.5515 33.2021 19.7239 33.2021 19.8308 33.0952C19.9377 32.9883 19.9377 32.8159 19.8308 32.709L18.7453 31.6258L20.3162 30.0548L20.685 30.4236C20.7919 30.5305 20.9642 30.5305 21.0711 30.4236C21.178 30.3167 21.178 30.1443 21.0711 30.0374L20.7024 29.6687L21.8075 28.5636L23.3184 30.0745C23.4253 30.1814 23.5977 30.1814 23.7046 30.0745C23.8115 29.9676 23.8115 29.7952 23.7046 29.6883L22.1915 28.1796Z" fill="black"/>
<path d="M44.7254 31.819L46.209 30.3354L47.1429 31.2692C47.2498 31.3761 47.4221 31.3761 47.529 31.2692C47.6359 31.1623 47.6359 30.9899 47.529 30.883L46.5952 29.9492L48.1192 28.4252L48.6778 28.9837C48.7847 29.0906 48.957 29.0906 49.0639 28.9837C49.1708 28.8768 49.1708 28.7044 49.0639 28.5975L48.5054 28.039L49.8505 26.6939C49.9574 26.587 49.9574 26.4146 49.8505 26.3077C49.7436 26.2008 49.5712 26.2008 49.4643 26.3077L48.1192 27.6528L47.4276 26.9612C47.3207 26.8543 47.1483 26.8543 47.0414 26.9612C46.9345 27.0681 46.9345 27.2404 47.0414 27.3474L47.733 28.039L46.209 29.563L45.657 29.011C45.5501 28.9041 45.3778 28.9041 45.2709 29.011C45.1639 29.1179 45.1639 29.2903 45.2709 29.3972L45.8229 29.9492L44.3392 31.4328C44.2323 31.5397 44.2323 31.7121 44.3392 31.819C44.4461 31.9259 44.6196 31.9259 44.7254 31.819Z" fill="black"/>
<path d="M14.5475 50.9129L16.2166 49.2427L17.1886 50.2147C17.2955 50.3216 17.4679 50.3216 17.5748 50.2147C17.6817 50.1078 17.6817 49.9355 17.5748 49.8285L16.6028 48.8566L18.0341 47.4253L19.245 48.6351C19.3519 48.742 19.5243 48.742 19.6312 48.6351C19.7381 48.5282 19.7381 48.3558 19.6312 48.2489L18.4203 47.0391L19.4403 46.0191C19.5472 45.9122 19.5472 45.7398 19.4403 45.6329C19.3334 45.526 19.161 45.526 19.0541 45.6329L18.0341 46.6529L17.9937 46.6126C17.8868 46.5056 17.7145 46.5056 17.6075 46.6126C17.5006 46.7195 17.5006 46.8918 17.6075 46.9987L17.6479 47.0391L16.2177 48.4704L15.3865 47.6391C15.2795 47.5322 15.1072 47.5322 15.0003 47.6391C14.8934 47.746 14.8934 47.9184 15.0003 48.0253L15.8315 48.8566L14.1625 50.5267C14.0555 50.6336 14.0555 50.806 14.1625 50.9129C14.2683 51.0198 14.4406 51.0198 14.5475 50.9129Z" fill="black"/>
<path d="M20.1888 57.5654L21.1618 56.5923C21.2688 56.4854 21.2688 56.3131 21.1618 56.2062C21.0549 56.0992 20.8826 56.0992 20.7757 56.2062L19.8026 57.1793L18.8317 56.2083C18.7248 56.1014 18.5524 56.1014 18.4455 56.2083C18.3386 56.3153 18.3386 56.4876 18.4455 56.5945L19.4164 57.5654L18.3517 58.6302C18.2448 58.7371 18.2448 58.9094 18.3517 59.0163C18.4586 59.1232 18.6309 59.1232 18.7378 59.0163L19.8026 57.9516L21.332 59.4811C21.4389 59.588 21.6113 59.588 21.7182 59.4811C21.8251 59.3742 21.8251 59.2018 21.7182 59.0949L20.1888 57.5654Z" fill="black"/>
<path d="M22.8177 56.6804L22.1729 57.3251C22.066 57.432 22.066 57.6044 22.1729 57.7113C22.2798 57.8182 22.4522 57.8182 22.5591 57.7113L23.2038 57.0666L23.9435 57.8062C24.0504 57.9131 24.2227 57.9131 24.3297 57.8062C24.4366 57.6993 24.4366 57.5269 24.3297 57.42L23.59 56.6804L25.1009 55.1695C25.2078 55.0626 25.2078 54.8902 25.1009 54.7833C24.994 54.6764 24.8217 54.6764 24.7147 54.7833L23.2038 56.2942L20.8824 53.9728C20.7755 53.8659 20.6031 53.8659 20.4962 53.9728C20.3893 54.0797 20.3893 54.252 20.4962 54.3589L22.8177 56.6804Z" fill="black"/>
<path d="M48.6374 48.7705L49.5156 47.8923L49.8832 48.2599C49.9901 48.3669 50.1625 48.3669 50.2694 48.2599C50.3763 48.153 50.3763 47.9807 50.2694 47.8738L49.9018 47.5061L50.7276 46.6803L51.1683 47.121C51.2752 47.2279 51.4476 47.2279 51.5545 47.121C51.6614 47.0141 51.6614 46.8418 51.5545 46.7349L51.1138 46.2941L52.3541 45.0538C52.461 44.9469 52.461 44.7745 52.3541 44.6676C52.2472 44.5607 52.0748 44.5607 51.9679 44.6676L50.7276 45.9079L50.1287 45.309C50.0218 45.2021 49.8494 45.2021 49.7425 45.309C49.6356 45.4159 49.6356 45.5883 49.7425 45.6952L50.3414 46.2941L49.5167 47.1189L48.825 46.4272C48.7181 46.3203 48.5458 46.3203 48.4388 46.4272C48.3319 46.5341 48.3319 46.7065 48.4388 46.8134L49.1305 47.505L48.2523 48.3832C48.1454 48.4901 48.1454 48.6625 48.2523 48.7694C48.3581 48.8774 48.5305 48.8774 48.6374 48.7705Z" fill="black"/>
<path d="M36.8796 47.0896L36.4225 47.5467C36.3156 47.6536 36.3156 47.8259 36.4225 47.9328C36.5294 48.0397 36.7018 48.0397 36.8087 47.9328L37.2658 47.4757L37.4938 47.7037C37.6007 47.8107 37.7731 47.8107 37.88 47.7037C37.9869 47.5968 37.9869 47.4245 37.88 47.3176L37.652 47.0896L38.1636 46.5779L38.8203 47.2347C38.9273 47.3416 39.0996 47.3416 39.2065 47.2347C39.3134 47.1277 39.3134 46.9554 39.2065 46.8485L38.5498 46.1917L38.8672 45.8743C38.9742 45.7674 38.9742 45.595 38.8672 45.4881C38.7603 45.3812 38.588 45.3812 38.4811 45.4881L38.1636 45.8056L37.7043 45.3463C37.5974 45.2394 37.4251 45.2394 37.3182 45.3463C37.2113 45.4532 37.2113 45.6256 37.3182 45.7325L37.7774 46.1917L37.2658 46.7034L36.6102 46.0477C36.5033 45.9408 36.3309 45.9408 36.224 46.0477C36.1171 46.1547 36.1171 46.327 36.224 46.4339L36.8796 47.0896Z" fill="black"/>
<path d="M50.3489 59.7787L51.0755 59.0522L51.3951 59.3718C51.502 59.4787 51.6744 59.4787 51.7813 59.3718C51.8882 59.2649 51.8882 59.0925 51.7813 58.9856L51.4617 58.666L52.0606 58.0671L52.6366 58.6431C52.7435 58.75 52.9158 58.75 53.0228 58.6431C53.1297 58.5362 53.1297 58.3638 53.0228 58.2569L52.4468 57.6809L53.1286 56.9991C53.2355 56.8922 53.2355 56.7198 53.1286 56.6129C53.0217 56.506 52.8493 56.506 52.7424 56.6129L52.0606 57.2947L51.7071 56.9402C51.6002 56.8333 51.4278 56.8333 51.3209 56.9402C51.214 57.0471 51.214 57.2194 51.3209 57.3264L51.6744 57.6809L51.0755 58.2798L50.4809 57.6853C50.374 57.5783 50.2017 57.5783 50.0948 57.6853C49.9878 57.7922 49.9878 57.9645 50.0948 58.0714L50.6893 58.666L49.9628 59.3925C49.8558 59.4994 49.8558 59.6718 49.9628 59.7787C50.0697 59.8845 50.242 59.8845 50.3489 59.7787Z" fill="black"/>
</svg>
