<svg width="60" height="60" viewBox="0 0 60 60" fill="none" xmlns="http://www.w3.org/2000/svg">
<path d="M45.0001 58.1251C48.4811 58.1251 51.8195 56.7423 54.2809 54.2809C56.7423 51.8195 58.1251 48.4811 58.1251 45.0001C58.1251 41.5191 56.7423 38.1807 54.2809 35.7193C51.8195 33.2579 48.4811 31.8751 45.0001 31.8751H33.7501C33.5032 31.8726 33.2583 31.9195 33.0297 32.0128C32.8011 32.1062 32.5934 32.2442 32.4188 32.4188C32.2442 32.5934 32.1062 32.8011 32.0128 33.0297C31.9195 33.2583 31.8726 33.5032 31.8751 33.7501V45.0001C31.8789 48.4799 33.2629 51.8161 35.7235 54.2767C38.1841 56.7373 41.5203 58.1213 45.0001 58.1251Z" fill="white"/>
<path d="M45.0001 1.875C41.5203 1.87877 38.1841 3.26279 35.7235 5.72339C33.2629 8.18399 31.8789 11.5202 31.8751 15V26.25C31.8726 26.4969 31.9195 26.7418 32.0128 26.9704C32.1062 27.199 32.2442 27.4067 32.4188 27.5813C32.5934 27.7559 32.8011 27.8939 33.0297 27.9873C33.2583 28.0806 33.5032 28.1275 33.7501 28.125H45.0001C48.4811 28.125 51.8195 26.7422 54.2809 24.2808C56.7423 21.8194 58.1251 18.481 58.1251 15C58.1251 11.519 56.7423 8.18064 54.2809 5.71922C51.8195 3.25781 48.4811 1.875 45.0001 1.875Z" fill="white"/>
<path d="M15 58.1251C18.4798 58.1213 21.816 56.7373 24.2766 54.2767C26.7372 51.8161 28.1212 48.4799 28.125 45.0001V33.7501C28.1275 33.5032 28.0806 33.2583 27.9873 33.0297C27.8939 32.8011 27.7559 32.5934 27.5813 32.4188C27.4067 32.2442 27.199 32.1062 26.9704 32.0128C26.7418 31.9195 26.4969 31.8726 26.25 31.8751H15C11.519 31.8751 8.18064 33.2579 5.71922 35.7193C3.25781 38.1807 1.875 41.5191 1.875 45.0001C1.875 48.4811 3.25781 51.8195 5.71922 54.2809C8.18064 56.7423 11.519 58.1251 15 58.1251Z" fill="white"/>
<path d="M15 28.125H26.25C26.4969 28.1275 26.7418 28.0806 26.9704 27.9873C27.199 27.8939 27.4067 27.7559 27.5813 27.5813C27.7559 27.4067 27.8939 27.199 27.9873 26.9704C28.0806 26.7418 28.1275 26.4969 28.125 26.25V15C28.125 12.4041 27.3552 9.86654 25.913 7.70815C24.4709 5.54975 22.421 3.86749 20.0227 2.87409C17.6244 1.88069 14.9854 1.62077 12.4394 2.1272C9.89345 2.63363 7.55479 3.88367 5.71923 5.71923C3.88367 7.55479 2.63363 9.89345 2.1272 12.4394C1.62077 14.9854 1.88069 17.6244 2.87409 20.0227C3.86749 22.421 5.54975 24.4709 7.70815 25.913C9.86654 27.3552 12.4041 28.125 15 28.125Z" fill="white"/>
</svg>
