<svg width="70" height="70" viewBox="0 0 70 70" fill="none" xmlns="http://www.w3.org/2000/svg">
<path d="M67.1077 16.1035C70.7252 12.4501 71.4365 9.4086 65.731 4.76896C59.4714 -0.35613 56.4234 0.476234 52.0357 5.06896C48.2077 9.05732 47.9154 9.36714 43.9467 13.4711C43.9259 13.493 43.9063 13.517 43.8899 13.541C41.1245 16.409 39.055 18.5744 35.8488 21.9017C35.4627 21.5133 34.2277 20.2533 33.8765 19.8966C33.8732 19.7613 33.8219 19.6261 33.7194 19.5224C33.619 19.4221 33.4881 19.3719 33.3561 19.3664C27.0037 12.9017 21.4063 7.0086 15.6616 0.768597C15.4685 0.560234 15.1456 0.534052 14.9208 0.71187C9.72484 4.83987 5.02411 9.56023 0.947384 14.7442C0.778293 14.9591 0.794657 15.2657 0.984475 15.461C7.94338 22.6282 15.0932 29.7999 21.8099 36.5068C21.4019 36.929 5.86084 53.0515 6.30047 52.7002C5.46157 54.9115 4.60738 57.0922 3.75429 59.2741C3.66593 59.3733 3.62338 59.4966 3.62011 59.621C1.60957 64.7624 0.734657 67.0391 0.117202 68.6679C-0.0355251 69.0682 0.315748 69.4806 0.736839 69.3955C4.24193 68.6701 17.6034 65.8642 17.6034 65.8642C17.887 65.789 34.1961 49.2508 34.4034 49.0424C40.6576 55.2868 47.3132 61.9642 53.791 68.6515C53.9797 68.8468 54.283 68.873 54.5034 68.7126C59.3361 65.1901 63.9223 60.5417 68.9383 54.0835C69.1139 53.8566 69.0845 53.5337 68.8707 53.3428C62.0121 47.2031 55.2354 40.9064 48.715 34.6195C57.9114 25.3839 63.9823 19.2486 67.1077 16.1035ZM45.0114 13.9391C46.4961 12.4031 47.9732 10.8748 49.4492 9.33878C52.9805 12.2668 58.7547 18.6017 60.7794 20.9373C59.383 22.3435 57.9867 23.7486 56.5805 25.1559C46.5158 15.8515 45.9605 15.4915 45.0114 13.9391ZM52.8245 5.82278C56.803 1.65878 59.2281 0.854779 65.0416 5.61332C67.0805 7.2726 69.1183 9.28096 68.7703 11.5981V11.6013C68.5565 13.0904 67.3237 14.3351 66.3343 15.3344C64.7318 16.9479 63.139 18.5526 61.5474 20.165C58.531 16.7177 53.7125 11.4944 50.203 8.5566L52.8245 5.82278ZM20.4714 33.6257V32.6242H22.3467V33.8482H21.595C21.4445 33.8482 21.3223 33.9704 21.3223 34.121C21.3223 34.2715 21.4445 34.3937 21.595 34.3937H22.3467V35.5021C21.7292 34.8857 21.0954 34.2497 20.4714 33.6257ZM18.7019 31.6075V30.7631H19.9259V32.0799H19.267C19.1721 32.0799 19.1023 32.1355 19.0543 32.2086C18.9125 32.0657 18.7717 31.9261 18.6299 31.7842C18.6714 31.7362 18.7019 31.6762 18.7019 31.6075ZM18.1565 31.3108C17.9721 31.1264 17.7932 30.9475 17.6077 30.7621H18.1565V31.3108ZM19.9259 32.6253V33.0802C19.7743 32.9286 19.6227 32.777 19.471 32.6253H19.9259ZM31.2725 25.8279H32.0743C31.807 26.1061 31.5397 26.3842 31.2725 26.6624V25.8279ZM29.8761 28.1155V27.5973H30.3747C30.2077 27.7697 30.0419 27.9431 29.8761 28.1155ZM27.6539 30.4261C27.3703 30.7217 27.0867 31.0162 26.803 31.3119V29.9253H27.6539V30.4261ZM26.2576 31.8791C25.7252 32.4322 25.1928 32.9864 24.6616 33.5395V31.5082H26.2576V31.8791ZM22.8921 34.3937H23.8401C23.5248 34.7221 23.2085 35.0515 22.8921 35.3799V34.3937ZM15.2034 1.88242C15.8197 2.55114 16.4405 3.21114 17.0579 3.8766L15.0408 5.89369C14.8281 6.10642 14.8281 6.45223 15.0408 6.66496C15.2536 6.87769 15.5994 6.87769 15.8121 6.66496L17.8008 4.67623C18.2121 5.11805 18.6223 5.56096 19.0336 6.00169L18.3092 6.72714C18.0965 6.93987 18.0965 7.28569 18.3092 7.49842C18.5219 7.71114 18.8677 7.71114 19.0805 7.49842L19.7776 6.80132C20.1637 7.21369 20.551 7.62278 20.9383 8.03405L20.1485 8.82387C19.9357 9.0366 19.9357 9.38241 20.1485 9.59514C20.3612 9.80787 20.707 9.80787 20.9197 9.59514L21.6888 8.82714C22.0597 9.21987 22.4307 9.61151 22.8027 10.0031L22.0968 10.709C21.8841 10.9217 21.8841 11.2675 22.0968 11.4802C22.3096 11.693 22.6554 11.693 22.8681 11.4802L23.5532 10.7951C23.8859 11.1453 24.2187 11.4999 24.5514 11.849L22.7732 13.6271C22.5605 13.8399 22.5605 14.1857 22.7732 14.3984C22.9859 14.6111 23.3317 14.6111 23.5445 14.3984L25.303 12.6399C25.7219 13.0773 26.1397 13.5061 26.5587 13.9413L26.0405 14.4595C25.8277 14.6722 25.8277 15.0181 26.0405 15.2308C26.2532 15.4435 26.599 15.4435 26.8117 15.2308L27.3157 14.7268C27.7074 15.1337 28.099 15.5395 28.4907 15.9442L27.8797 16.5551C27.667 16.7679 27.667 17.1137 27.8797 17.3264C28.0925 17.5391 28.4383 17.5391 28.651 17.3264L29.2477 16.7297C29.623 17.117 29.9983 17.5075 30.3736 17.8926L29.827 18.4391C29.6143 18.6519 29.6143 18.9977 29.827 19.2104C30.0397 19.4231 30.3856 19.4231 30.5983 19.2104L31.1383 18.6704C31.579 19.121 32.0187 19.5661 32.4594 20.0144L30.8099 21.6639C30.5972 21.8766 30.5972 22.2224 30.8099 22.4351C31.0227 22.6479 31.3685 22.6479 31.5812 22.4351L33.2241 20.7922C33.6463 21.221 34.0696 21.6562 34.4917 22.0828L34.0772 22.4973C33.775 22.7995 33.9114 23.3559 34.3968 23.4159C33.7521 24.0879 33.1063 24.7577 32.4616 25.4297C32.4147 25.349 32.3427 25.2868 32.2423 25.2868H30.9997C30.8492 25.2868 30.727 25.409 30.727 25.5595C30.727 25.5944 30.7521 25.6184 30.7641 25.649C30.7521 25.6795 30.727 25.7035 30.727 25.7384V27.1239C30.6801 27.0879 30.6277 27.0562 30.5645 27.0562H29.8761V26.8293C29.8761 26.6788 29.7539 26.5566 29.6034 26.5566C29.4528 26.5566 29.3307 26.6788 29.3307 26.8293V27.0519H29.2314C29.0808 27.0519 28.9587 27.1741 28.9587 27.3246C28.9587 27.4751 29.0808 27.5973 29.2314 27.5973H29.3307V28.6282C29.3307 28.6435 29.3438 28.6522 29.347 28.6664C29.0994 28.925 28.8517 29.1824 28.603 29.4399C28.5594 29.4104 28.5136 29.3799 28.4568 29.3799H28.2005V28.2988C28.2005 28.1482 28.0783 28.0261 27.9277 28.0261C27.7772 28.0261 27.655 28.1482 27.655 28.2988V29.3799H26.7168C26.6939 29.3799 26.6787 29.3995 26.6568 29.405C26.6165 29.3821 26.5794 29.3526 26.5303 29.3526C26.3797 29.3526 26.2576 29.4748 26.2576 29.6253V30.9639H24.6616V30.737C24.6616 30.5864 24.5394 30.4642 24.3888 30.4642C24.2383 30.4642 24.1161 30.5864 24.1161 30.737V30.9639H23.551C23.4005 30.9639 23.2783 31.0861 23.2783 31.2366C23.2783 31.3871 23.4005 31.5093 23.551 31.5093H24.1161V33.8504H22.8921V32.6264H23.6525C23.803 32.6264 23.9252 32.5042 23.9252 32.3537C23.9252 32.2031 23.803 32.081 23.6525 32.081H22.8921V30.3486C22.8921 30.1981 22.7699 30.0759 22.6194 30.0759C22.4688 30.0759 22.3467 30.1981 22.3467 30.3486V32.081H20.4714V30.7457C20.599 30.7228 20.7027 30.6246 20.7027 30.4904C20.7027 30.3399 20.5805 30.2177 20.4299 30.2177H18.7019V30.0224C18.7019 29.8719 18.5797 29.7497 18.4292 29.7497C18.2787 29.7497 18.1565 29.8719 18.1565 30.0224V30.2177H17.0656C12.1347 25.2737 7.07175 20.1606 2.09938 15.0442C5.95138 10.205 10.3565 5.78132 15.2034 1.88242ZM11.4757 65.7584L4.83102 59.5151C5.54775 57.6802 6.26338 55.8421 6.97138 53.9875C9.8132 57.6399 12.8154 61.589 16.3608 65.0155C14.7736 65.345 13.1961 65.6755 11.6187 66.0071C11.5914 65.9155 11.5499 65.8282 11.4757 65.7584ZM8.24557 66.6159C8.28811 66.6584 8.34375 66.6704 8.39938 66.6791C8.19538 66.7217 7.9892 66.7642 7.7852 66.8079C7.77538 66.7555 7.76448 66.701 7.72411 66.6606L7.15247 66.089L8.64593 64.5955L9.32884 65.237C9.27429 65.2457 9.21866 65.2577 9.1772 65.3002L8.24666 66.2308C8.13866 66.3366 8.13866 66.509 8.24557 66.6159ZM6.10411 67.1591L6.09211 67.1471L6.7652 66.4741L7.21793 66.9268C6.84702 67.0042 6.47502 67.0817 6.10411 67.1591ZM3.66047 67.6708L3.02557 67.0359L4.11757 65.9439L5.37975 67.2061C5.37975 67.241 5.40593 67.2704 5.42011 67.3031C4.8332 67.4253 4.24738 67.5486 3.66047 67.6708ZM2.00884 66.7904L2.25429 67.0359L1.69684 67.5933C1.80047 67.3239 1.9052 67.0588 2.00884 66.7904ZM2.83466 64.662L3.73138 65.5588L2.63938 66.6508L2.22375 66.2351C2.42775 65.7093 2.63175 65.1857 2.83466 64.662ZM4.40666 60.6126L5.77575 61.8988L4.36847 63.3061L3.89284 62.8293C3.79902 62.7355 3.65938 62.7388 3.55357 62.8097C3.62447 62.6286 4.38593 60.665 4.40666 60.6126ZM6.17284 62.2719L8.24666 64.2213L6.7652 65.7028L5.56193 64.4995L6.33211 63.7293C6.43902 63.6224 6.43902 63.4501 6.33211 63.3431C6.2252 63.2362 6.05284 63.2362 5.94593 63.3431L5.17575 64.1133L4.75466 63.6911L6.17284 62.2719ZM4.50375 65.5588L5.17684 64.8857L6.38011 66.089L5.70702 66.7621L4.50375 65.5588ZM4.79066 64.4995L4.11757 65.1726L3.65938 64.7144C3.70193 64.7024 3.74775 64.6981 3.78157 64.6642L4.36957 64.0762L4.79066 64.4995ZM2.64047 67.4221L3.02338 67.805C2.70047 67.8726 2.37975 67.9402 2.05575 68.0079L2.64047 67.4221ZM3.44993 63.0781C3.46084 63.1271 3.46847 63.1773 3.50666 63.2155L3.98338 63.6911L3.39538 64.2791C3.36157 64.313 3.3572 64.3577 3.3452 64.4013L3.05066 64.1068C3.18375 63.7642 3.31575 63.4195 3.44993 63.0781ZM8.55866 66.6464C8.58266 66.6344 8.61102 66.6366 8.63175 66.6159L9.56229 65.6853C9.60811 65.6395 9.62338 65.5795 9.63102 65.5206L10.4154 66.2581C10.2081 66.3017 8.88048 66.5788 8.55866 66.6464ZM17.4507 64.5868C13.8179 61.1526 10.7394 57.0562 7.52884 52.9282C11.2783 49.0359 32.515 26.9504 36.247 23.0624C38.9208 20.2904 41.0841 18.0279 44.2477 14.7442C45.3114 16.3697 45.9005 16.7679 55.8103 25.9315C53.0634 28.6991 50.3067 31.4777 47.5488 34.2464C39.5841 42.2941 35.8565 46.0271 32.2565 49.6588C32.2477 49.6053 32.2357 49.5497 32.1943 49.5082L31.603 48.917L32.1408 48.3791C32.2477 48.2722 32.2477 48.0999 32.1408 47.993C32.0339 47.8861 31.8616 47.8861 31.7547 47.993L31.2168 48.5308L30.2983 47.6111C30.1914 47.5042 30.019 47.5042 29.9121 47.6111C29.8052 47.7181 29.8052 47.8904 29.9121 47.9973L30.8317 48.917L28.8954 50.8533L27.8787 49.8366C27.8732 49.8311 27.8656 49.8333 27.8601 49.829C27.9343 49.7231 27.9376 49.5802 27.8427 49.4853C27.7357 49.3784 27.5634 49.3784 27.4565 49.4853L22.9456 53.9962C22.8387 54.1031 22.8387 54.2755 22.9456 54.3824C23.0525 54.4893 23.2248 54.4893 23.3317 54.3824L24.8317 52.8824L26.7572 54.8079C26.8641 54.9148 27.0365 54.9148 27.1434 54.8079C27.2503 54.701 27.2503 54.5286 27.1434 54.4217L25.2179 52.4962L27.4925 50.2217L28.5092 51.2395L26.8161 52.9326C26.7092 53.0395 26.7092 53.2119 26.8161 53.3188C26.923 53.4257 27.0954 53.4257 27.2023 53.3188L28.8954 51.6257L29.6045 52.3348C26.4834 55.4821 22.039 59.969 17.4507 64.5868ZM29.9896 51.9453L29.2816 51.2373L31.2179 49.301L31.8092 49.8922C31.8517 49.9348 31.9074 49.9468 31.9619 49.9555L29.9896 51.9453ZM37.6728 50.7693H39.4423L39.4979 52.5944C38.8827 51.9781 38.2816 51.3781 37.6728 50.7693ZM54.2427 67.5497C49.5452 62.7061 44.7605 57.8711 40.1067 53.2053H42.8885C43.039 53.2053 43.1612 53.0831 43.1612 52.9326C43.1612 52.7821 43.039 52.6599 42.8885 52.6599H40.0445L39.9867 50.7693H41.2739C41.4245 50.7693 41.5467 50.6471 41.5467 50.4966C41.5467 50.3461 41.4245 50.2239 41.2739 50.2239H39.9703L39.9408 49.2693C39.9365 49.1188 39.8383 49.013 39.6594 49.0053C39.5088 49.0097 39.391 49.1362 39.3954 49.2868L39.4237 50.2239H37.2321C37.2027 50.2239 37.183 50.2468 37.1568 50.2555C36.5994 49.6981 36.0343 49.1319 35.4834 48.581C35.6187 48.5341 35.6776 48.4511 35.7954 48.3333H37.0707V49.5093C37.0707 49.6599 37.1928 49.7821 37.3434 49.7821C37.4939 49.7821 37.6161 49.6599 37.6161 49.5093V48.3333H38.8957C39.0463 48.3333 39.1685 48.2111 39.1685 48.0606C39.1685 47.9101 39.0463 47.7879 38.8957 47.7879H37.6161V46.7319C37.6161 46.5813 37.4939 46.4591 37.3434 46.4591C37.1928 46.4591 37.0707 46.5813 37.0707 46.7319V47.7879H35.683C35.6612 47.7879 35.6459 47.8064 35.6252 47.8119C36.2754 47.1584 36.9201 46.5061 37.5692 45.8526C37.6052 45.869 37.6347 45.8973 37.6761 45.8973H40.3488C40.399 45.9617 40.4667 46.0086 40.555 46.0086C40.6434 46.0086 40.711 45.9617 40.7612 45.8973H41.1168C41.2674 45.8973 41.3896 45.7751 41.3896 45.6246C41.3896 45.4741 41.2674 45.3519 41.1168 45.3519H40.8288V43.5202C40.8288 43.3697 40.7067 43.2475 40.5561 43.2475C40.4056 43.2475 40.2834 43.3697 40.2834 43.5202V45.3519H38.0677C39.5372 43.8726 41.0045 42.3933 42.4707 40.9151H42.7194V42.8057H41.2205C41.0699 42.8057 40.9477 42.9279 40.9477 43.0784C40.9477 43.229 41.0699 43.3511 41.2205 43.3511H42.7859C42.8361 43.4166 42.9037 43.4646 42.9921 43.4646C43.0805 43.4646 43.1492 43.4166 43.1983 43.3511H43.3237C43.4743 43.3511 43.5965 43.229 43.5965 43.0784C43.5965 42.9279 43.4743 42.8057 43.3237 42.8057H43.2648V40.9151H44.491V41.2086C44.491 41.3591 44.6132 41.4813 44.7637 41.4813C44.9143 41.4813 45.0365 41.3591 45.0365 41.2086V40.8497C45.1019 40.7995 45.1499 40.7319 45.1499 40.6435C45.1499 40.5551 45.1019 40.4864 45.0365 40.4373V39.2046C45.0365 39.0541 44.9143 38.9319 44.7637 38.9319C44.6132 38.9319 44.491 39.0541 44.491 39.2046V40.3719H43.1983C43.1688 40.3337 43.1296 40.3173 43.0848 40.2988C43.759 39.6191 44.4354 38.9395 45.1085 38.2599H46.375V39.6901C46.375 39.8406 46.4972 39.9628 46.6477 39.9628C46.7983 39.9628 46.9205 39.8406 46.9205 39.6901V38.2599H47.7757C47.9263 38.2599 48.0485 38.1377 48.0485 37.9871C48.0485 37.8366 47.9263 37.7144 47.7757 37.7144H46.9205V37.3228C46.9205 37.1722 46.7983 37.0501 46.6477 37.0501C46.4972 37.0501 46.375 37.1722 46.375 37.3228V37.7144H45.6507C46.4154 36.9421 47.1834 36.1719 47.9481 35.3984C48.3779 35.813 48.8176 36.2275 49.2507 36.6421L48.7379 37.1559C48.5252 37.3686 48.5252 37.7144 48.7379 37.9271C48.9507 38.1399 49.2965 38.1399 49.5092 37.9271L50.0405 37.3959C50.4474 37.7853 50.8554 38.1748 51.2645 38.5642L50.5783 39.2504C50.3656 39.4631 50.3656 39.809 50.5783 40.0217C50.791 40.2344 51.1368 40.2344 51.3496 40.0217L52.0543 39.317C52.4459 39.689 52.8354 40.0599 53.2292 40.4319L52.5267 41.1333C52.3139 41.3461 52.3139 41.6919 52.5267 41.9046C52.7394 42.1173 53.0852 42.1173 53.2979 41.9046L54.0245 41.1781C54.3757 41.5097 54.7303 41.8402 55.0837 42.1708L53.203 44.0515C52.9903 44.2642 52.9903 44.6101 53.203 44.8228C53.4157 45.0355 53.7616 45.0355 53.9743 44.8228L55.8801 42.917C56.3208 43.3293 56.7572 43.7428 57.2001 44.1551L56.4703 44.8839C56.2576 45.0966 56.2576 45.4424 56.4703 45.6551C56.683 45.8679 57.0288 45.8679 57.2416 45.6551L57.9987 44.8991C58.4208 45.2908 58.8474 45.6802 59.2707 46.0708C59.2161 46.097 59.1627 46.1275 59.1168 46.1733L58.3107 46.9795C58.0979 47.1922 58.0979 47.5381 58.3107 47.7508C58.5234 47.9635 58.8692 47.9635 59.0819 47.7508L59.8881 46.9446C59.9448 46.8879 59.9841 46.8224 60.0103 46.7526C60.4227 47.1322 60.8328 47.5119 61.2463 47.8904C61.2321 47.9024 61.2147 47.9068 61.2005 47.921L60.2579 48.8635C60.0452 49.0762 60.0452 49.4221 60.2579 49.6348C60.4707 49.8475 60.8165 49.8475 61.0292 49.6348L61.9717 48.6922C61.9957 48.6682 62.0077 48.6377 62.0263 48.6093C62.6154 49.1482 63.2045 49.6839 63.7957 50.2217C63.7074 50.2457 63.6223 50.2839 63.5536 50.3537L62.7463 51.1599C62.5336 51.3726 62.5336 51.7184 62.7463 51.9311C62.959 52.1439 63.3048 52.1439 63.5176 51.9311L64.3248 51.125C64.4077 51.042 64.4492 50.9373 64.4667 50.8293C65.5663 51.8264 66.6637 52.8268 67.7688 53.8162C63.0681 59.8141 58.7525 64.1973 54.2427 67.5497Z" fill="black"/>
<path d="M16.136 12.6168C15.6244 10.9226 14.0982 9.62444 12.3833 9.24807C12.1117 9.03971 10.5953 9.0168 10.3509 9.45426C9.43239 9.86226 8.6633 10.627 8.28912 11.5892C7.08912 14.6721 10.0378 18.1008 13.6324 17.1059C15.6626 16.5463 16.7906 14.7812 16.136 12.6168ZM13.3433 16.0543C10.6913 16.7863 8.40366 14.3066 9.30693 11.9841C10.4589 9.02226 14.3022 10.3183 15.0931 12.9321C15.5655 14.5019 14.7898 15.655 13.3433 16.0543Z" fill="black"/>
<path d="M64.5812 54.0266C64.7939 54.2393 65.1397 54.2393 65.3524 54.0266L66.1597 53.2204C66.3724 53.0076 66.3724 52.6618 66.1597 52.4491C65.947 52.2364 65.6012 52.2364 65.3884 52.4491L64.5812 53.2553C64.3684 53.468 64.3684 53.8138 64.5812 54.0266Z" fill="black"/>
<path d="M51.1936 28.4568L50.6122 29.0382C50.5052 29.1451 50.5052 29.3175 50.6122 29.4244C50.7191 29.5313 50.8914 29.5313 50.9983 29.4244L51.5798 28.843L52.0347 29.2979C52.1416 29.4048 52.314 29.4048 52.4209 29.2979C52.5278 29.191 52.5278 29.0186 52.4209 28.9117L51.966 28.4568L53.0798 27.343L53.19 27.4531C53.2969 27.56 53.4692 27.56 53.5762 27.4531C53.6831 27.3462 53.6831 27.1739 53.5762 27.067L53.4103 26.9011C53.4103 26.8313 53.3842 26.7615 53.3307 26.708C53.2772 26.6546 53.2074 26.6284 53.1376 26.6284L52.7427 26.2335C52.6358 26.1266 52.4634 26.1266 52.3565 26.2335C52.2496 26.3404 52.2496 26.5128 52.3565 26.6197L52.6958 26.959L51.582 28.0728L50.8074 27.2982C50.7005 27.1913 50.5282 27.1913 50.4212 27.2982C50.3143 27.4051 50.3143 27.5775 50.4212 27.6844L51.1936 28.4568Z" fill="black"/>
<path d="M24.065 55.6827L23.382 56.3656L22.0751 55.0587C21.9682 54.9518 21.7959 54.9518 21.689 55.0587C21.582 55.1656 21.582 55.338 21.689 55.4449L22.9959 56.7518L20.8664 58.8812L19.8977 57.9125L20.5315 57.2787C20.6384 57.1718 20.6384 56.9994 20.5315 56.8925C20.4246 56.7856 20.2522 56.7856 20.1453 56.8925L19.4919 57.546C19.3882 57.4892 19.2617 57.486 19.1744 57.5743C19.0871 57.6627 19.0893 57.7882 19.146 57.8918L17.2391 59.7987L16.9479 59.5074C16.841 59.4005 16.6686 59.4005 16.5617 59.5074C16.4548 59.6143 16.4548 59.7867 16.5617 59.8936L16.853 60.1849L15.2079 61.83C15.101 61.9369 15.101 62.1092 15.2079 62.2162C15.3148 62.3231 15.4871 62.3231 15.594 62.2162L17.2391 60.5711L18.3999 61.7329L18.8602 62.1932C18.9671 62.3001 19.1395 62.3001 19.2464 62.1932C19.3533 62.0863 19.3533 61.914 19.2464 61.8071L18.9791 61.5398L20.8664 59.6525L21.053 59.838C21.1599 59.9449 21.3322 59.9449 21.4391 59.838C21.546 59.7311 21.546 59.5587 21.4391 59.4518L21.2526 59.2663L23.382 57.1369L23.6635 57.4183C23.7704 57.5252 23.9428 57.5252 24.0497 57.4183C24.1566 57.3114 24.1566 57.1391 24.0497 57.0322L23.7682 56.7507L24.4511 56.0678C24.558 55.9609 24.558 55.7885 24.4511 55.6816C24.3442 55.5747 24.1719 55.5758 24.065 55.6827ZM18.594 61.1536L17.6253 60.1849L19.5126 58.2976L20.4813 59.2663L18.594 61.1536Z" fill="black"/>
<path d="M32.4255 45.965L33.0549 45.3356L34.5233 46.8039C34.5767 46.8574 34.6466 46.8836 34.7164 46.8836C34.7862 46.8836 34.856 46.8574 34.9095 46.8039C35.0164 46.697 35.0164 46.5247 34.9095 46.4177L33.4411 44.9494L36.5862 41.8043L37.1197 42.3378L35.2324 44.225C35.1255 44.3319 35.1255 44.5043 35.2324 44.6112C35.3393 44.7181 35.5117 44.7181 35.6186 44.6112L37.5058 42.7239L37.9706 43.1887C38.0775 43.2956 38.2498 43.2956 38.3568 43.1887C38.4637 43.0817 38.4637 42.9094 38.3568 42.8025L37.892 42.3378L39.6429 40.5868C39.776 40.6905 39.908 40.6654 39.9997 40.5748C40.0978 40.4767 40.0957 40.325 40.0117 40.2181L40.8658 39.3639C40.9727 39.257 40.9727 39.0847 40.8658 38.9777C40.7589 38.8708 40.5866 38.8708 40.4797 38.9777L39.6342 39.8232L38.4244 38.6134C38.3175 38.5065 38.1451 38.5065 38.0382 38.6134C37.9313 38.7203 37.9313 38.8927 38.0382 38.9996L39.248 40.2094L37.5058 41.9516L36.9538 41.3996C37.0128 41.2959 37.016 41.1672 36.9277 41.0788C36.8207 40.9719 36.6484 40.9719 36.5415 41.0788L33.0364 44.5839C32.9328 44.5272 32.8062 44.5239 32.7178 44.6123C32.6295 44.7007 32.6327 44.8272 32.6895 44.9308L32.0404 45.5799C31.9335 45.6868 31.9335 45.8592 32.0404 45.9661C32.1473 46.0719 32.3197 46.0719 32.4255 45.965Z" fill="black"/>
<path d="M40.9379 38.6135L42.535 37.0165L43.1176 37.599C43.2245 37.7059 43.3968 37.7059 43.5037 37.599C43.6106 37.4921 43.6106 37.3197 43.5037 37.2128L42.9212 36.6303L44.6459 34.9055C44.6906 34.8608 44.7059 34.8019 44.7125 34.7441L45.1968 35.2285L45.0026 35.4226C44.8957 35.5295 44.8957 35.7019 45.0026 35.8088C45.1095 35.9157 45.2819 35.9157 45.3888 35.8088L47.8074 33.3903L47.8575 33.4405C47.9645 33.5474 48.1368 33.5474 48.2437 33.4405C48.3506 33.3335 48.3506 33.1612 48.2437 33.0543L48.1936 33.0041L48.3583 32.8394C48.4652 32.7325 48.4652 32.5601 48.3583 32.4532C48.2514 32.3463 48.079 32.3463 47.9721 32.4532L47.8074 32.6179L47.0328 31.8434C46.9259 31.7365 46.7535 31.7365 46.6466 31.8434C46.5397 31.9503 46.5397 32.1226 46.6466 32.2295L47.4212 33.0041L45.5819 34.8434L43.9368 33.1983C43.8299 33.0914 43.6575 33.0914 43.5506 33.1983C43.4437 33.3052 43.4437 33.4775 43.5506 33.5845L44.4201 34.455C44.3623 34.4626 44.3034 34.4768 44.2586 34.5215L42.5143 36.2659C42.4106 36.2092 42.2841 36.2059 42.1957 36.2943C42.1074 36.3826 42.1106 36.5092 42.1674 36.6128L40.5506 38.2295C40.4437 38.3365 40.4437 38.5088 40.5506 38.6157C40.6586 38.7205 40.8321 38.7205 40.9379 38.6135Z" fill="black"/>
<path d="M46.5485 31.5521L47.9034 30.1972L49.3009 31.5947C49.4078 31.7016 49.5802 31.7016 49.6871 31.5947C49.794 31.4877 49.794 31.3154 49.6871 31.2085L48.2896 29.811L49.6958 28.4048C49.8027 28.2979 49.8027 28.1256 49.6958 28.0187C49.5889 27.9117 49.4165 27.9117 49.3096 28.0187L47.7114 29.6168L47.7103 29.6179L46.1634 31.1648C46.0565 31.2717 46.0565 31.4441 46.1634 31.551C46.2693 31.659 46.4427 31.659 46.5485 31.5521Z" fill="black"/>
</svg>
