<svg width="66" height="66" viewBox="0 0 66 66" fill="none" xmlns="http://www.w3.org/2000/svg">
<path d="M65.6716 48.9219C65.8124 48.8172 65.8953 48.6535 65.8942 48.479L65.7698 27.5324C65.856 27.4299 65.8571 27.2837 65.7676 27.1823L65.7175 18.7572C66.0186 18.4615 65.904 18.0753 65.6269 17.9106C55.8349 12.1146 44.5909 6.12661 34.8087 0.334977C34.644 0.238977 34.4422 0.233522 34.2742 0.322977C28.9593 3.14952 23.6444 5.98916 18.3284 8.83098C17.9826 8.64007 17.5604 8.87352 17.5255 9.2608C12.156 12.1299 6.78655 15.0001 1.41928 17.8539C1.39091 17.8484 1.36582 17.8364 1.33637 17.8353C1.06364 17.8277 0.786551 18.0688 0.778914 18.3688L0.432005 34.4379C0.0654596 34.6353 0.0414598 35.1481 0.411278 35.3739L0.105823 49.5306C0.10146 49.7488 0.226914 49.9495 0.42546 50.039C5.49055 52.3364 10.5666 54.6884 15.5138 56.9859C15.612 57.2706 15.9251 57.4353 16.2273 57.3164C19.6549 58.9081 23.2626 60.5826 26.6182 62.1295C26.6989 62.2746 26.7382 62.2866 26.8909 62.255C28.9429 63.1997 31.0004 64.1433 33.0589 65.0793V65.1972C33.0589 65.4983 33.3033 65.7426 33.6044 65.7426C33.8324 65.7426 34.0266 65.603 34.1084 65.4055C34.1226 65.4012 34.1367 65.4033 34.1509 65.3979C47.2582 60.3273 57.2738 55.0921 65.6716 48.9219ZM1.85564 19.0244C6.60982 20.8059 11.4055 23.2201 16.8775 26.5888L16.2404 40.3877C11.4229 38.2135 6.50946 36.2837 1.51855 34.6233L1.85564 19.0244ZM17.9673 26.6521C22.9549 24.3939 27.7898 22.0343 32.4556 19.5906C32.4546 19.6048 32.448 19.6157 32.448 19.6299L32.4502 23.1601C32.4284 23.1557 32.412 23.1426 32.3902 23.1437L32.0466 22.8001C31.9396 22.6932 31.7673 22.6932 31.6604 22.8001C31.5535 22.907 31.5535 23.0793 31.6604 23.1863L31.9506 23.4764L30.9578 24.4692C30.8509 24.5761 30.8509 24.7484 30.9578 24.8553C31.0647 24.9623 31.2371 24.9623 31.344 24.8553L31.4935 24.7059C31.4935 24.7757 31.5196 24.8455 31.5731 24.899L32.2713 25.5972C32.3215 25.6473 32.3869 25.6692 32.4524 25.6724V25.859C32.3618 25.835 32.2658 25.8415 32.1949 25.9124L31.7149 26.3924C31.608 26.3052 31.4531 26.303 31.3538 26.4023C31.2546 26.5015 31.2546 26.6532 31.3418 26.7601L30.6938 27.4081C30.5869 27.515 30.5869 27.6873 30.6938 27.7943C30.7004 27.8008 30.7113 27.7986 30.7189 27.8041C30.6469 27.9099 30.6436 28.0506 30.7375 28.1444L31.488 28.8961L29.8146 30.5695C29.7076 30.6764 29.7076 30.8488 29.8146 30.9557C29.8364 30.9775 29.8669 30.9753 29.8931 30.9884C29.8047 31.0953 29.8026 31.2513 29.9029 31.3517L30.6982 32.1459L29.9204 32.9237L28.884 31.8873C28.7771 31.7804 28.6047 31.7804 28.4978 31.8873C28.3909 31.9943 28.3909 32.1666 28.4978 32.2735L29.5342 33.3099L28.7433 34.1008C28.6636 34.1444 28.5807 34.1826 28.5 34.2263L28.1324 33.8586L28.8175 33.1735C28.9244 33.0666 28.9244 32.8943 28.8175 32.7873C28.7106 32.6804 28.5382 32.6804 28.4313 32.7873L27.7462 33.4724L27.6971 33.4233C27.5902 33.3164 27.4178 33.3164 27.3109 33.4233C27.204 33.5303 27.204 33.7026 27.3109 33.8095L27.36 33.8586L26.1426 35.0761L25.6767 34.6103C25.5698 34.5033 25.3975 34.5033 25.2906 34.6103C25.1836 34.7172 25.1836 34.8895 25.2906 34.9964L25.7564 35.4622L24.9829 36.2357C24.9731 36.2455 24.9764 36.2597 24.9687 36.2706C24.7931 36.3764 24.612 36.4713 24.4375 36.5782L24.2215 36.3623L25.0855 35.4982C25.1924 35.3913 25.1924 35.219 25.0855 35.1121C24.9786 35.0052 24.8062 35.0052 24.6993 35.1121L23.8004 36.011C23.7066 35.9815 23.6062 35.9859 23.532 36.0601C23.4578 36.1343 23.4545 36.2346 23.4829 36.3284L22.0124 37.799L21.4593 37.2459C21.3524 37.139 21.18 37.139 21.0731 37.2459C21.0426 37.2764 21.0404 37.3179 21.0273 37.3561C20.9378 37.3353 20.8451 37.3419 20.7753 37.4117L19.5895 38.5975C19.4826 38.5103 19.3276 38.5081 19.2284 38.6073C19.128 38.7077 19.1313 38.8615 19.2186 38.9684L18.3022 39.8848L18.1222 39.7037C18.0153 39.5968 17.8429 39.5968 17.736 39.7037C17.6291 39.8106 17.6291 39.983 17.736 40.0899L17.916 40.271L17.34 40.847C17.3302 40.8568 17.3335 40.8699 17.3258 40.8808C17.3182 40.8775 17.3106 40.8742 17.3029 40.871L17.9673 26.6521ZM51.0775 23.2288L51.9469 24.0993L51.9087 24.1375C51.8018 24.2444 51.8018 24.4168 51.9087 24.5237C52.0156 24.6306 52.188 24.6306 52.2949 24.5237L52.3331 24.4855L52.3462 24.4986C51.816 24.779 51.2989 25.0604 50.7895 25.343L49.8764 24.4299L51.0775 23.2288ZM56.8495 21.5543L57.8509 20.5528L58.6113 21.3132C58.3647 21.4375 57.6066 21.8172 57.2651 21.9873C57.1702 21.8684 56.9564 21.6612 56.8495 21.5543ZM64.6298 19.403L64.6669 25.5895L64.4258 25.8306L64.3004 25.7052C64.1935 25.5983 64.0211 25.5983 63.9142 25.7052C63.8073 25.8121 63.8073 25.9844 63.9142 26.0913L64.0396 26.2168L63.8335 26.4219C63.7266 26.5288 63.7266 26.7012 63.8335 26.8081C63.9404 26.915 64.1127 26.915 64.2196 26.8081L64.4258 26.603L64.6746 26.8517L64.6789 27.5532C64.6015 27.5466 64.524 27.5652 64.4651 27.6241L64.0669 28.0223L64.0604 28.0157C63.9535 27.9088 63.7811 27.9088 63.6742 28.0157C63.5673 28.1226 63.5673 28.295 63.6742 28.4019L63.6807 28.4084L63.3556 28.7335C63.2487 28.8404 63.2487 29.0128 63.3556 29.1197C63.5946 29.3586 63.8269 29.0335 64.0658 28.7946L64.6887 29.4175L64.6975 30.9372L64.608 31.0266L64.1564 30.575L64.2676 30.4637C64.3745 30.3568 64.3745 30.1844 64.2676 30.0775C64.1607 29.9706 63.9884 29.9706 63.8815 30.0775L63.7702 30.1888L63.6469 30.0655C63.54 29.9586 63.3676 29.9586 63.2607 30.0655C63.1538 30.1724 63.1538 30.3448 63.2607 30.4517L63.384 30.575L62.6967 31.2623L62.3673 30.9317C62.2604 30.8248 62.088 30.8248 61.9811 30.9317C61.8742 31.0386 61.8742 31.211 61.9811 31.3179L62.3106 31.6484L61.7193 32.2397C61.6124 32.3466 61.6124 32.519 61.7193 32.6259C61.8262 32.7328 61.9986 32.7328 62.1055 32.6259L62.6967 32.0346L63.6851 33.023L62.6346 33.6066L61.0244 31.9953L61.1553 31.8644C61.2622 31.7575 61.2622 31.5852 61.1553 31.4783C61.0484 31.3713 60.876 31.3713 60.7691 31.4783L60.624 31.6233C60.5182 31.5524 60.3786 31.5492 60.2847 31.643C60.1909 31.7368 60.1942 31.8764 60.2651 31.9823L59.7011 32.5462L59.3956 32.2408C59.2887 32.1339 59.1164 32.1339 59.0095 32.2408C58.9026 32.3477 58.9026 32.5201 59.0095 32.627L59.3149 32.9324L58.452 33.7953C58.4029 33.8444 58.3822 33.9088 58.3778 33.9732L57.8815 33.4768C57.7746 33.3699 57.6022 33.3699 57.4953 33.4768C57.3884 33.5837 57.3884 33.7561 57.4953 33.863L58.8949 35.2615C58.9418 35.3084 59.004 35.327 59.0662 35.3324L58.4902 35.9084L54.3993 38.1808L55.6964 36.8837L55.8666 37.0539C55.9735 37.1608 56.1458 37.1608 56.2527 37.0539C56.3596 36.947 56.3596 36.7746 56.2527 36.6677L56.0826 36.4975L57.012 35.5681L57.6207 36.1768C57.7276 36.2837 57.9 36.2837 58.0069 36.1768C58.1138 36.0699 58.1138 35.8975 58.0069 35.7906L57.3982 35.1819L57.5073 35.0728C57.6142 34.9659 57.6142 34.7935 57.5073 34.6866C57.4004 34.5797 57.228 34.5797 57.1211 34.6866L57.012 34.7957L56.4076 34.1913C56.3007 34.0844 56.1284 34.0844 56.0215 34.1913C55.9146 34.2983 55.9146 34.4706 56.0215 34.5775L56.6258 35.1819L55.6964 36.1113L54.8935 35.3084C54.7866 35.2015 54.6142 35.2015 54.5073 35.3084C54.4004 35.4153 54.4004 35.5877 54.5073 35.6946L55.3102 36.4975L54.3415 37.4663L53.2189 36.3437C53.112 36.2368 52.9396 36.2368 52.8327 36.3437C52.7258 36.4506 52.7258 36.623 52.8327 36.7299L53.9553 37.8524L53.2713 38.5364C53.1906 38.6172 53.1906 38.7295 53.232 38.8288L50.9226 40.1117C50.9346 40.0288 50.9215 39.9459 50.8582 39.8826L50.7818 39.8062L51.8902 38.6979L52.1215 38.9292C52.2284 39.0361 52.4007 39.0361 52.5076 38.9292C52.6146 38.8223 52.6146 38.6499 52.5076 38.543L52.2764 38.3117L53.1404 37.4477C53.2473 37.3408 53.2473 37.1684 53.1404 37.0615C53.0335 36.9546 52.8611 36.9546 52.7542 37.0615L51.8902 37.9255L51.3458 37.3812C51.2389 37.2743 51.0666 37.2743 50.9596 37.3812C50.8527 37.4881 50.8527 37.6604 50.9596 37.7673L51.504 38.3117L50.3956 39.4201L49.872 38.8953C49.7651 38.7884 49.5927 38.7884 49.4858 38.8953C49.3789 39.0023 49.3789 39.1746 49.4858 39.2815L50.0095 39.8062L49.2862 40.5295C49.1793 40.6364 49.1793 40.8088 49.2862 40.9157C49.3167 40.9463 49.3571 40.9473 49.3953 40.9604L49.0833 41.1339C49.2513 36.3721 49.6113 31.6179 50.172 26.8986C50.2146 26.8866 50.2604 26.8877 50.2996 26.8648C54.6426 24.3655 59.9346 22.0048 64.6298 19.403ZM61.1684 19.7935L60.9796 19.6048L61.8164 18.7681L62.4142 19.3659C62.028 19.5699 61.6375 19.7728 61.2436 19.9757C61.2404 19.9103 61.2186 19.8437 61.1684 19.7935ZM64.7935 46.8153L64.7542 46.7761L64.7935 46.7368V46.8153ZM63.6524 45.2957C63.5476 45.191 63.3796 45.191 63.2727 45.2935L63.0873 45.1081C62.9804 45.0012 62.808 45.0012 62.7011 45.1081C62.5942 45.215 62.5942 45.3873 62.7011 45.4942L62.8844 45.6775L61.7956 46.7663L61.5807 46.5513C61.4738 46.4444 61.3015 46.4444 61.1946 46.5513C61.0876 46.6582 61.0876 46.8306 61.1946 46.9375L61.4095 47.1524L60.7549 47.807C60.648 47.9139 60.648 48.0862 60.7549 48.1932C60.8618 48.3001 61.0342 48.3001 61.1411 48.1932L61.7956 47.5386L62.3509 48.0939L61.3876 49.0572L60.0753 47.7448C59.9847 47.6542 59.8538 47.6575 59.7491 47.7197C59.7513 47.6477 59.7273 47.5746 59.6727 47.519C59.5658 47.4121 59.3935 47.4121 59.2866 47.519L56.7415 50.0652C56.6346 50.1721 56.6346 50.3444 56.7415 50.4513C56.8484 50.5583 57.0207 50.5583 57.1276 50.4513L58.1269 49.4521L59.5887 50.9139C59.5484 51.0121 59.5484 51.1233 59.628 51.2041C59.7415 51.3175 59.8178 51.2848 59.9182 51.2433L59.976 51.3012C60.036 51.3612 60.0884 51.3819 60.1964 51.3699C58.6756 52.3517 57.0982 53.3106 55.4618 54.2521L56.3302 53.3837C56.3346 53.3837 56.3378 53.3892 56.3422 53.3892C56.412 53.3892 56.4818 53.363 56.5353 53.3095C56.592 53.2528 56.6138 53.1786 56.6106 53.1044L57.5946 52.1204L57.7091 52.235C57.816 52.3419 57.9884 52.3419 58.0953 52.235C58.2022 52.1281 58.2022 51.9557 58.0953 51.8488L57.9807 51.7342L58.8229 50.8921C58.9298 50.7852 58.9298 50.6128 58.8229 50.5059C58.716 50.399 58.5436 50.399 58.4367 50.5059L57.5946 51.3481L56.8146 50.5681C56.7076 50.4612 56.5353 50.4612 56.4284 50.5681C56.3215 50.675 56.3215 50.8473 56.4284 50.9543L57.2084 51.7342L56.2767 52.6659L55.0571 51.4473C54.9502 51.3404 54.7778 51.3404 54.6709 51.4473C54.564 51.5542 54.564 51.7266 54.6709 51.8335L55.8906 53.0521L54.5989 54.3437C54.5902 54.2881 54.5771 54.2313 54.5346 54.1877L53.8691 53.5201L54.3382 53.051C54.4451 52.9441 54.4451 52.7717 54.3382 52.6648C54.2313 52.5579 54.0589 52.5579 53.952 52.6648L53.484 53.1328L53.3629 53.0117C53.256 52.9048 53.0836 52.9048 52.9767 53.0117C52.8698 53.1186 52.8698 53.291 52.9767 53.3979L53.0978 53.519L52.1346 54.4823L51.7942 54.1419C51.6873 54.035 51.5149 54.035 51.408 54.1419C51.3011 54.2488 51.3011 54.4212 51.408 54.5281L51.7484 54.8684L50.5975 56.0193L50.1 55.5219C49.9931 55.415 49.8207 55.415 49.7138 55.5219C49.6069 55.6288 49.6069 55.8012 49.7138 55.9081L50.2113 56.4055L49.5262 57.0906C49.4258 57.191 49.4291 57.3459 49.5164 57.4528C49.4356 57.4932 49.3582 57.5346 49.2775 57.575C49.2775 57.5619 49.284 57.5499 49.2829 57.5357C48.9807 52.5077 48.9044 47.4524 49.0451 42.4015L64.7149 33.6982L64.7487 39.2968L64.212 39.8335L63.9655 39.587C63.8586 39.4801 63.6862 39.4801 63.5793 39.587C63.4724 39.6939 63.4724 39.8662 63.5793 39.9732L63.8258 40.2197L63.4538 40.5917C63.3469 40.6986 63.3469 40.871 63.4538 40.9779C63.5607 41.0848 63.7331 41.0848 63.84 40.9779L64.212 40.6059L64.7444 41.1382C64.7487 41.1426 64.7553 41.1404 64.7596 41.1448L64.7727 43.4073L64.4084 43.043L64.5971 42.8543C64.704 42.7473 64.704 42.575 64.5971 42.4681C64.4902 42.3612 64.3178 42.3612 64.2109 42.4681L64.0222 42.6568L63.7756 42.4102C63.6687 42.3033 63.4964 42.3033 63.3895 42.4102C63.2826 42.5172 63.2826 42.6895 63.3895 42.7964L63.636 43.043L62.7 43.979C62.5931 44.0859 62.5931 44.2582 62.7 44.3652C62.8069 44.4721 62.9793 44.4721 63.0862 44.3652L64.0222 43.4292L64.5807 43.9877C64.6342 44.0412 64.704 44.0673 64.7738 44.0673C64.7749 44.0673 64.7749 44.0662 64.7749 44.0662L64.7869 45.971L64.3669 46.391L63.6546 45.6753C63.756 45.5684 63.7571 45.4004 63.6524 45.2957ZM63.4396 49.1804C63.0644 49.4444 62.6826 49.7063 62.2996 49.967L61.7738 49.4412L62.7371 48.4779L63.4396 49.1804ZM60.36 50.9139L60.3306 50.8844L61.3876 49.8273L61.8415 50.2812C61.3615 50.6052 60.8738 50.9259 60.3818 51.2444C60.4484 51.1397 60.4516 51.0055 60.36 50.9139ZM58.5109 49.0659L59.6182 47.9586C59.6236 48.0208 59.6422 48.083 59.6891 48.1299L61.0015 49.4422L59.9455 50.4993L58.5109 49.0659ZM50.6553 56.8495C50.6618 56.8561 50.6716 56.8539 50.6782 56.8593C50.5778 56.9117 50.4753 56.963 50.3749 57.0143L50.5975 56.7917L50.6553 56.8495ZM51.0415 56.4633L50.9836 56.4055L52.1346 55.2546L52.6516 55.7717C52.6647 55.7848 52.6855 55.7815 52.6996 55.7913C52.176 56.0739 51.6491 56.3564 51.1124 56.6368C51.108 56.5735 51.0895 56.5113 51.0415 56.4633ZM53.0367 55.3855L52.5196 54.8684L53.4829 53.9052L54.1473 54.5695C54.1898 54.6121 54.2476 54.6263 54.3033 54.6339L53.9804 54.9568C53.9346 55.0026 53.9171 55.0637 53.9116 55.1237C53.6455 55.271 53.3826 55.4204 53.1131 55.5666C53.1098 55.5023 53.0869 55.4357 53.0367 55.3855ZM47.136 58.6288L46.8775 58.3703L47.5418 57.7059C47.6749 57.8106 47.808 57.7855 47.8996 57.6939C48.0066 57.587 48.0066 57.4146 47.8996 57.3077L46.3571 55.7663C46.4106 55.7564 46.4651 55.7455 46.5055 55.7052L47.3553 54.8553L47.6389 55.139C47.7458 55.2459 47.9182 55.2459 48.0251 55.139C48.0546 55.1095 48.0556 55.0703 48.0687 55.0343C48.1069 55.8906 48.1429 56.747 48.1942 57.6022C48.204 57.7692 48.2935 57.9077 48.4167 58.0004C47.9924 58.2099 47.5691 58.4204 47.136 58.6288ZM47.9422 43.0146C47.9302 43.535 47.9204 44.0553 47.9127 44.5757L47.4 44.063C47.2931 43.9561 47.1207 43.9561 47.0138 44.063C46.9069 44.1699 46.9069 44.3422 47.0138 44.4492L47.5658 45.0001L46.5382 46.0277C46.4313 46.1346 46.4313 46.307 46.5382 46.4139C46.5731 46.4488 46.62 46.4543 46.6647 46.4663C46.6767 46.5099 46.6822 46.5568 46.7171 46.5917L47.7 47.5746C47.7524 47.627 47.8222 47.6532 47.8909 47.6542C47.8549 47.6673 47.8156 47.6684 47.7862 47.6979L46.9091 48.575L46.8644 48.5303C46.7575 48.4233 46.5851 48.4233 46.4782 48.5303C46.3713 48.6372 46.3713 48.8095 46.4782 48.9164L46.5535 48.9917C46.5175 49.0888 46.5186 49.1957 46.5971 49.2732C46.7084 49.3844 46.7793 49.3528 46.8786 49.3168L47.9171 50.3543C47.9193 50.471 47.9236 50.5866 47.9258 50.7033C47.8189 50.6204 47.6684 50.6172 47.5702 50.7153L46.9996 51.2859L46.8055 51.0917C46.6986 50.9848 46.5262 50.9848 46.4193 51.0917C46.3124 51.1986 46.3124 51.371 46.4193 51.4779L46.6135 51.6721L46.1215 52.1641C46.0146 52.271 46.0146 52.4433 46.1215 52.5503C46.2284 52.6572 46.4007 52.6572 46.5076 52.5503L46.9996 52.0583L47.7164 52.775C47.8222 52.8808 47.8866 52.8535 47.9815 52.8252C47.9913 53.1175 47.9935 53.411 48.0044 53.7033C47.904 53.6564 47.7862 53.6553 47.7033 53.7382L47.3553 54.0863L46.5655 53.2964C46.4586 53.1895 46.2862 53.1895 46.1793 53.2964C46.0724 53.4033 46.0724 53.5757 46.1793 53.6826L46.9691 54.4724L46.1193 55.3223C46.0778 55.3637 46.0669 55.4183 46.0571 55.4706L46.0276 55.4412C45.9207 55.3342 45.7484 55.3342 45.6415 55.4412C45.5346 55.5481 45.5346 55.7204 45.6415 55.8273L47.1458 57.3317L46.4891 57.9884L44.6575 56.1568C44.5506 56.0499 44.3782 56.0499 44.2713 56.1568C44.1644 56.2637 44.1644 56.4361 44.2713 56.543L44.9127 57.1844L43.7498 58.3473L43.0495 57.647C42.9426 57.5401 42.7702 57.5401 42.6633 57.647C42.5564 57.7539 42.5564 57.9263 42.6633 58.0332L43.3636 58.7335L42.528 59.5692L41.9313 58.9724L41.9826 58.9212C42.0895 58.8143 42.0895 58.6419 41.9826 58.535C41.8756 58.4281 41.7033 58.4281 41.5964 58.535L39.8476 60.2837L39.5935 60.0295C39.4866 59.9226 39.3142 59.9226 39.2073 60.0295C39.1004 60.1364 39.1004 60.3088 39.2073 60.4157L39.4615 60.6699L38.4175 61.7139L37.8655 61.1619C37.86 61.1564 37.8502 61.1586 37.8436 61.1532L38.0149 60.9819C38.1218 60.875 38.1218 60.7026 38.0149 60.5957C37.908 60.4888 37.7356 60.4888 37.6287 60.5957L35.7371 62.4884L35.5429 62.2943C35.436 62.1873 35.2636 62.1873 35.1567 62.2943C35.0498 62.4012 35.0498 62.5735 35.1567 62.6804L35.3509 62.8746L34.1444 64.0823V50.6761L47.9422 43.0146ZM35.0236 48.5652L34.116 47.6575L34.7716 47.0019C34.7826 47.0193 34.7793 47.0412 34.7946 47.0564L36.0895 48.3513L35.0291 48.9404C35.1251 48.8324 35.1273 48.6688 35.0236 48.5652ZM39.1767 45.4266L39.9535 46.2033L38.7218 46.8873C38.7087 46.8622 38.7109 46.8328 38.6902 46.8121L38.3782 46.5001L39.144 45.7342C39.2302 45.6492 39.228 45.5292 39.1767 45.4266ZM40.3975 45.9448C40.4007 45.9448 40.4029 45.9481 40.4051 45.9481C40.4193 45.9481 40.4302 45.9339 40.4444 45.9317L40.4018 45.9557C40.4007 45.9513 40.3986 45.9481 40.3975 45.9448ZM42.6186 43.8459L43.1826 44.4099L42.0644 45.0306L41.7491 44.7164L42.6186 43.8459ZM41.568 45.3066L40.6462 45.8182L41.3629 45.1015L41.568 45.3066ZM38.2538 47.1481L37.0778 47.8015L37.992 46.8873L38.2538 47.1481ZM45.4429 42.8062C45.4724 42.923 45.5618 43.0168 45.6884 43.019L45.336 43.2153L45.1855 43.0648L45.4429 42.8062ZM46.6276 41.6226C46.6636 41.5866 46.6702 41.5375 46.6822 41.4917C46.9636 41.6608 47.2484 41.8277 47.5298 41.9968L45.9011 42.9012C45.9338 42.8564 45.9644 42.8073 45.9644 42.7473V42.2859L46.6276 41.6226ZM48.0589 54.8357C48.0458 54.8084 48.048 54.7768 48.0251 54.7539L47.7415 54.4702L48.0273 54.1844C48.036 54.4015 48.0502 54.6175 48.0589 54.8357ZM47.9662 52.2524L47.3847 51.671L47.9367 51.119C47.9455 51.4964 47.9553 51.8739 47.9662 52.2524ZM47.892 46.9964L47.1164 46.2208L47.8964 45.4408C47.8909 45.9601 47.892 46.4783 47.892 46.9964ZM47.8964 48.3579C47.8986 48.7604 47.8953 49.163 47.9007 49.5655L47.2942 48.9601L47.8964 48.3579ZM44.8396 43.4902L44.6596 43.5906L44.7993 43.451L44.8396 43.4902ZM35.7415 63.2532L35.988 63.4997C35.7196 63.6066 35.4447 63.7135 35.1742 63.8204L35.7415 63.2532ZM36.5313 63.2706L36.1276 62.867L37.476 61.5186C37.4815 61.5252 37.4793 61.5339 37.4847 61.5404L38.0367 62.0924L37.128 63.0023C37.116 63.0142 37.1193 63.0328 37.1095 63.047C36.9175 63.1244 36.7298 63.203 36.5356 63.2815C36.5324 63.2782 36.5335 63.2739 36.5313 63.2706ZM38.5396 62.3619C38.6727 62.315 38.6444 62.3444 38.6913 62.2103L39.852 61.0495L40.4269 61.6244C40.4411 61.6386 40.4618 61.6353 40.4771 61.6452C39.7833 61.9419 39.0807 62.2386 38.3673 62.5332L38.5396 62.3619ZM40.812 61.2393L40.2371 60.6644L41.5495 59.3521L42.1462 59.9488L41.2375 60.8575C41.1306 60.9644 41.1306 61.1368 41.2375 61.2437C41.2615 61.2677 41.2964 61.2666 41.3258 61.2808C41.1742 61.3462 41.0269 61.4128 40.8742 61.4793C40.8884 61.3932 40.8786 61.3059 40.812 61.2393ZM42.5313 60.335L42.7396 60.5433C42.7778 60.5815 42.828 60.5892 42.8771 60.6001C42.5193 60.7593 42.1527 60.9186 41.7895 61.0768L42.5313 60.335ZM43.1247 60.1572L42.9164 59.9488L43.752 59.1132L44.5015 59.8626C44.0542 60.0677 43.6069 60.2728 43.152 60.4768C43.2109 60.3732 43.2131 60.2455 43.1247 60.1572ZM44.9902 59.5801L44.1382 58.7281L45.3011 57.5652L46.1062 58.3703L45.2269 59.2495C45.144 59.3324 45.1451 59.4481 45.1909 59.5484C45.1309 59.5757 45.0709 59.6041 45.0109 59.6313C45.0011 59.615 45.0044 59.5943 44.9902 59.5801ZM46.4924 58.7564L46.6135 58.8775C46.4618 58.9495 46.3091 59.0215 46.1564 59.0935L46.4924 58.7564ZM50.5735 40.3048L49.9211 40.667L50.4 40.1881C50.5342 40.3233 50.4818 40.2677 50.5735 40.3048ZM59.2844 34.8732L58.6636 34.2524C58.728 34.2492 58.7924 34.2273 58.8415 34.1783L59.7044 33.3153L60.3938 34.0048L59.3553 35.0444C59.3498 34.9833 59.3313 34.9212 59.2844 34.8732ZM60.6404 32.3793L62.1404 33.8804L61.3647 34.3113C61.3615 34.2459 61.3396 34.1804 61.2895 34.1302L61.1651 34.0059L61.4531 33.7179C61.56 33.611 61.56 33.4386 61.4531 33.3317C61.3462 33.2248 61.1738 33.2248 61.0669 33.3317L60.7789 33.6197L60.0895 32.9303L60.6404 32.3793ZM60.78 34.391L60.9044 34.5153C60.9186 34.5295 60.9404 34.5263 60.9578 34.5372L60.2291 34.9419L60.78 34.391ZM63.6938 32.2561L63.0851 31.6473L63.7724 30.9601L64.224 31.4117L63.7156 31.9201C63.6218 32.0128 63.6251 32.1503 63.6938 32.2561ZM63.7636 32.3259C63.8989 32.4143 64.0091 32.3968 64.0996 32.3052L64.608 31.7968L64.6255 31.8143C64.6473 31.8361 64.6778 31.8339 64.7029 31.847L64.7073 32.6215C64.5796 32.591 64.4411 32.6019 64.3178 32.6706L64.1815 32.7459L63.7636 32.3259ZM64.6844 28.6408L64.4509 28.4084L64.6811 28.1783L64.6844 28.6408ZM64.7542 40.3768L64.5971 40.2197L64.7531 40.0637L64.7542 40.3768ZM52.8393 24.239C52.8316 24.2292 52.8349 24.2161 52.8262 24.2063L52.7182 24.0983L53.8855 22.931L54.3458 23.3913C54.3655 23.411 54.3938 23.4088 54.4178 23.4208C53.8855 23.6935 53.3618 23.9652 52.8393 24.239ZM50.292 25.6157C50.1916 25.6724 50.0836 25.7292 49.9844 25.7859C49.6331 25.6517 49.2873 25.5055 48.9371 25.3692L49.4913 24.815L50.292 25.6157ZM49.1106 26.6084C48.54 31.3812 48.1735 36.1899 48.0022 41.0073C46.7378 40.2481 45.4658 39.4953 44.1949 38.7404C44.1949 38.7404 45.0284 37.907 45.0524 37.883C45.1593 37.7761 45.1593 37.6037 45.0524 37.4968C44.9455 37.3899 44.7731 37.3899 44.6662 37.4968L44.4011 37.7619L43.5393 36.9001C43.5316 36.8433 43.5175 36.7844 43.4738 36.7408C43.3669 36.6339 43.1946 36.6339 43.0876 36.7408L42.4626 37.3659C42.528 37.2612 42.5313 37.127 42.4396 37.0353L41.9727 36.5684L42.6306 35.9106C42.7375 35.8037 42.7375 35.6313 42.6306 35.5244C42.5236 35.4175 42.3513 35.4175 42.2444 35.5244L41.5866 36.1823L40.7367 35.3324L40.8207 35.2484C40.9276 35.1415 40.9276 34.9692 40.8207 34.8623C40.7138 34.7553 40.5415 34.7553 40.4346 34.8623L39.408 35.8877C38.9946 35.6433 38.5833 35.3957 38.1698 35.1503L39.0676 34.2524C39.2095 34.2252 39.2444 34.1892 39.2727 34.0473L39.8204 33.4997C39.9273 33.3928 39.9273 33.2204 39.8204 33.1135C39.7135 33.0066 39.5411 33.0066 39.4342 33.1135L38.9771 33.5706L37.9898 32.5833L38.6291 31.9441C38.736 31.8372 38.736 31.6648 38.6291 31.5579C38.5222 31.451 38.3498 31.451 38.2429 31.5579L37.6036 32.1972L37.3844 31.9779C37.2775 31.871 37.1051 31.871 36.9982 31.9779C36.8913 32.0848 36.8913 32.2572 36.9982 32.3641L37.2175 32.5833L35.9651 33.8357C35.6095 33.6241 35.2538 33.4135 34.8993 33.2008L35.4415 32.6586L36.0066 33.2237C36.1135 33.3306 36.2858 33.3306 36.3927 33.2237C36.4996 33.1168 36.4996 32.9444 36.3927 32.8375L35.8276 32.2724L36.6153 31.4848C36.7222 31.3779 36.7222 31.2055 36.6153 31.0986C36.5084 30.9917 36.336 30.9917 36.2291 31.0986L35.4415 31.8863L34.6604 31.1052L35.9269 29.8386C36.0338 29.7317 36.0338 29.5593 35.9269 29.4524C35.82 29.3455 35.6476 29.3455 35.5407 29.4524L34.2742 30.719L34.0898 30.5346C33.9829 30.4277 33.8106 30.4277 33.7036 30.5346C33.5967 30.6415 33.5967 30.8139 33.7036 30.9208L33.888 31.1052L33.3535 31.6397L33.5367 30.3339V30.0317L34.4455 29.123L34.8753 29.5528C34.9822 29.6597 35.1546 29.6597 35.2615 29.5528C35.3684 29.4459 35.3684 29.2735 35.2615 29.1666L34.8316 28.7368L35.532 28.0364C35.6389 27.9295 35.6389 27.7572 35.532 27.6503C35.4251 27.5433 35.2527 27.5433 35.1458 27.6503L34.4455 28.3506L33.5618 27.467L35.0193 26.0084C35.1262 25.9015 35.1262 25.7292 35.0193 25.6223C34.9986 25.6015 34.968 25.6037 34.9429 25.5906C34.9582 25.5055 34.9462 25.4193 34.8807 25.3539L34.2818 24.755L34.5415 24.4953C34.6484 24.3884 34.6484 24.2161 34.5415 24.1092C34.4346 24.0023 34.2622 24.0023 34.1553 24.1092L33.8956 24.3688L33.5356 24.0088V23.4666C33.5596 23.4546 33.588 23.4568 33.6076 23.4372L34.4346 22.6103C34.4651 22.5797 34.4673 22.5372 34.4804 22.499L34.764 22.7826C34.8709 22.8895 35.0433 22.8895 35.1502 22.7826C35.2571 22.6757 35.2571 22.5033 35.1502 22.3964L34.0746 21.3208L34.2284 21.167C34.3353 21.0601 34.3353 20.8877 34.2284 20.7808C34.1215 20.6739 33.9491 20.6739 33.8422 20.7808L33.6884 20.9346L33.5356 20.7819V19.6212C33.5356 19.5743 33.5204 19.5317 33.5084 19.4881C38.5582 22.1793 43.7684 24.5532 49.1106 26.6084ZM40.3506 35.7197L41.2004 36.5695L40.9571 36.8128C40.6527 36.6317 40.1138 36.3099 39.8913 36.1779L40.3506 35.7197ZM41.5866 36.9557L42.0535 37.4226C42.1636 37.5328 42.2727 37.5143 42.384 37.4455L42.2476 37.5819C41.9782 37.4226 41.7098 37.2612 41.4404 37.1019L41.5866 36.9557ZM43.2338 37.367L44.0149 38.1481L43.7106 38.4524C43.3833 38.2583 43.0582 38.063 42.7309 37.8688L43.2338 37.367ZM36.4495 34.1292L37.6047 32.9739L38.592 33.9612L37.6866 34.8666C37.2742 34.6201 36.8618 34.3746 36.4495 34.1292ZM26.7578 35.2321L27.7473 34.2426L28.0102 34.5055C27.588 34.7401 27.1767 34.991 26.7578 35.2321ZM30.3371 33.2772L31.0833 32.531L31.3211 32.7688C30.9916 32.9346 30.6655 33.107 30.3371 33.2772ZM31.8306 32.5059L31.4695 32.1448C31.5753 32.039 31.9484 31.6757 32.0378 31.5568C32.1851 31.6375 32.1567 31.6146 32.2669 31.5655L32.1567 32.339C32.0466 32.3924 31.9396 32.4524 31.8306 32.5059ZM31.8862 29.2943C31.9931 29.4012 32.1655 29.4012 32.2724 29.2943C32.3793 29.1873 32.3793 29.015 32.2724 28.9081L31.1236 27.7583C31.1215 27.7561 31.1193 27.7572 31.1171 27.7561L31.7204 27.1528L32.1786 27.611C32.2909 27.7233 32.3564 27.6884 32.4513 27.6579L32.4524 30.263L32.3302 31.1183L31.1836 29.9717L31.8731 29.2822L31.8862 29.2943ZM33.5378 28.2197L34.0604 28.7433L33.5378 29.267V28.2197ZM33.5378 25.4248C33.6829 25.3943 33.7746 25.2699 33.8978 25.1477L34.4967 25.7466C34.5011 25.751 34.5076 25.7488 34.5109 25.7532L33.5378 26.7273V25.4248ZM33.5378 21.8684L33.6916 21.7146L34.1629 22.1859C34.1247 22.199 34.0822 22.2012 34.0516 22.2317L33.5389 22.7444L33.5378 21.8684ZM32.4491 23.9739V25.0037L31.956 24.5106C31.9025 24.4572 31.8327 24.431 31.7629 24.431L32.3335 23.8604L32.4491 23.9739ZM32.4502 27.1113L32.1055 26.7666L32.4502 26.4219V27.1113ZM30.7986 30.3579L31.644 31.2033C31.6418 31.2055 31.6396 31.2044 31.6375 31.2055L31.0833 31.7597L30.288 30.9655C30.2695 30.947 30.2411 30.9492 30.2193 30.9372L30.7986 30.3579ZM33.4375 32.3346L34.2753 31.4968L35.0564 32.2779L34.4171 32.9172C34.0909 32.723 33.7626 32.531 33.4375 32.3346ZM18.7669 40.3713C18.756 40.3539 18.7593 40.3321 18.744 40.3168L18.6938 40.2666L19.6036 39.3568L19.8436 39.5968C19.4804 39.8499 19.1258 40.1139 18.7669 40.3713ZM18.336 40.6812C18.2695 40.7292 18.2029 40.7761 18.1364 40.8241L18.3076 40.6528L18.336 40.6812ZM21.1669 37.7935C21.1822 37.7783 21.1789 37.7564 21.1898 37.739L21.6327 38.1808L21.0382 38.7753C20.7895 38.9422 20.5396 39.1048 20.292 39.275L19.9887 38.9717L21.1669 37.7935ZM23.8396 36.7452L23.9716 36.8772C23.7186 37.0343 23.4731 37.2033 23.2211 37.3626L23.8396 36.7452ZM32.7982 33.2259C37.2622 35.9106 39.7124 37.3233 46.248 41.2332C46.2458 41.2353 46.2426 41.2342 46.2415 41.2364L45.7516 41.7262C45.7298 41.7208 45.7146 41.7012 45.6906 41.7012C45.54 41.7012 45.4178 41.8233 45.4178 41.9739V42.0601L44.7993 42.6786L44.5626 42.4419C44.4556 42.335 44.2833 42.335 44.1764 42.4419C44.0695 42.5488 44.0695 42.7212 44.1764 42.8281L44.4131 43.0648L44.0444 43.4335C43.9375 43.5404 43.9375 43.7128 44.0444 43.8197C44.076 43.8513 44.1196 43.8546 44.16 43.8677L43.6778 44.1361L42.8444 43.3026C42.7375 43.1957 42.5651 43.1957 42.4582 43.3026C42.4375 43.3233 42.4407 43.3517 42.4276 43.3757C42.36 43.3768 42.2913 43.4019 42.24 43.4532L41.3629 44.3313L41.1262 44.0946C41.0193 43.9877 40.8469 43.9877 40.74 44.0946C40.6331 44.2015 40.6331 44.3739 40.74 44.4808L40.9767 44.7175L40.2109 45.4833C40.1706 45.5237 40.1596 45.5782 40.1498 45.6306L39.4069 44.8877C39.3 44.7808 39.1276 44.7808 39.0207 44.8877C38.9138 44.9946 38.9138 45.167 39.0207 45.2739L39.0655 45.3186C38.964 45.2684 38.8429 45.2662 38.7578 45.3513L37.992 46.1172L37.6233 45.7484C37.5164 45.6415 37.344 45.6415 37.2371 45.7484C37.1302 45.8553 37.1302 46.0277 37.2371 46.1346L37.6058 46.5033L36.5095 47.5997C36.4026 47.7066 36.4026 47.879 36.5095 47.9859C36.5476 48.0241 36.5978 48.0317 36.6469 48.0426L36.5815 48.0786L35.1764 46.6735C35.1611 46.6582 35.1393 46.6615 35.1218 46.6506L36.6764 45.0961C36.7833 44.9892 36.7833 44.8168 36.6764 44.7099C36.5695 44.603 36.3971 44.603 36.2902 44.7099L33.7276 47.2724L33.6567 47.2015C33.5498 47.0946 33.3775 47.0946 33.2706 47.2015C33.1636 47.3084 33.1636 47.4808 33.2706 47.5877L33.3415 47.6586L32.4109 48.5892C32.3444 48.6557 32.3345 48.7441 32.3509 48.8302C27.9764 46.2044 23.4851 43.7968 18.8967 41.6193C23.28 38.4372 27.936 35.6052 32.7982 33.2259ZM32.7993 48.9732L33.7298 48.0426L34.6375 48.9502C34.7487 49.0615 34.8535 49.0408 34.9636 48.9753L33.996 49.5132C33.8967 49.4095 33.7582 49.3441 33.6044 49.3441C33.5095 49.3441 33.4244 49.3746 33.3458 49.4182C33.1255 49.2841 32.9018 49.1564 32.6815 49.0233C32.7218 49.0103 32.7666 49.0059 32.7993 48.9732ZM33.0589 51.6982L32.7033 51.3426L33.0589 50.987V51.6982ZM33.0589 53.723L32.6444 53.3084L33.0589 52.8939V53.723ZM33.0589 55.5699L33.0011 55.5121L33.0589 55.4543V55.5699ZM33.0589 58.0124L33.0262 57.9797C33.0469 57.9568 33.048 57.9273 33.0589 57.9001V58.0124ZM63.8782 48.8673C63.8706 48.8575 63.8738 48.8444 63.8651 48.8346L63.0949 48.0644C63.1353 47.9652 63.1353 47.8539 63.0556 47.7743C62.9749 47.6935 62.8636 47.6946 62.7655 47.735L62.1818 47.1524L63.2706 46.0637L63.9829 46.7761L63.3916 47.3673C63.2847 47.4742 63.2847 47.6466 63.3916 47.7535C63.4986 47.8604 63.6709 47.8604 63.7778 47.7535L64.3691 47.1622L64.608 47.4012C64.6604 47.4535 64.7302 47.4797 64.7989 47.4797L64.8033 48.2084C64.4978 48.4288 64.1869 48.647 63.8782 48.8673ZM49.3244 9.8717C52.5382 11.6772 58.7466 15.1266 64.2578 18.3699C63.8084 18.6197 63.3436 18.8695 62.8767 19.1193C62.8636 19.0823 62.8615 19.0419 62.832 19.0124L62.2015 18.3819L62.5462 18.0372C62.6531 17.9303 62.6531 17.7579 62.5462 17.651C62.4393 17.5441 62.2669 17.5441 62.16 17.651L61.8153 17.9957L61.6778 17.8583C61.5709 17.7513 61.3986 17.7513 61.2916 17.8583C61.1847 17.9652 61.1847 18.1375 61.2916 18.2444L61.4291 18.3819L60.5924 19.2186L60.0916 18.7179C59.9847 18.611 59.8124 18.611 59.7055 18.7179C59.5986 18.8248 59.5986 18.9972 59.7055 19.1041L60.2062 19.6048L59.9695 19.8415C59.8626 19.9484 59.8626 20.1208 59.9695 20.2277C60.0764 20.3346 60.2487 20.3346 60.3556 20.2277L60.5924 19.991L60.7811 20.1797C60.792 20.1906 60.8073 20.1873 60.8193 20.1961C60.2411 20.4917 59.6596 20.7873 59.076 21.0797C59.0313 20.9226 58.3506 20.2823 58.2349 20.1677L58.7935 19.6092C58.9004 19.5023 58.9004 19.3299 58.7935 19.223C58.6866 19.1161 58.5142 19.1161 58.4073 19.223L57.8236 19.8066C57.7233 19.7608 57.6066 19.7586 57.5236 19.8415C57.4407 19.9244 57.4418 20.0412 57.4887 20.1415L56.4622 21.1681L56.0596 20.7655C55.9527 20.6586 55.7804 20.6586 55.6735 20.7655C55.5666 20.8724 55.5666 21.0448 55.6735 21.1517L56.1 21.5793C56.0542 21.6797 56.052 21.7964 56.1349 21.8793C56.2516 21.9961 56.3346 21.9612 56.4349 21.9143L56.7589 22.2383C56.1044 22.5655 55.452 22.895 54.7975 23.2266C54.8062 23.147 54.7898 23.0673 54.7287 23.0063L54.2684 22.5459L54.8531 21.9612C54.96 21.8543 54.96 21.6819 54.8531 21.575C54.7462 21.4681 54.5738 21.4681 54.4669 21.575L53.8822 22.1597L53.3476 21.6252C53.2407 21.5183 53.0684 21.5183 52.9615 21.6252C52.8546 21.7321 52.8546 21.9044 52.9615 22.0113L53.496 22.5459L52.3287 23.7132L51.4593 22.8426L51.9753 22.3266C52.0822 22.2197 52.0822 22.0473 51.9753 21.9404C51.8684 21.8335 51.696 21.8335 51.5891 21.9404L50.9607 22.5688C50.9215 22.5819 50.8789 22.5841 50.8473 22.6157C50.8156 22.6473 50.8135 22.6899 50.8004 22.7292L49.4869 24.0426L49.1836 23.7393C49.0767 23.6324 48.9044 23.6324 48.7975 23.7393C48.6906 23.8463 48.6906 24.0186 48.7975 24.1255L49.1007 24.4288L48.3807 25.1488C43.5469 23.2408 38.82 21.0819 34.2316 18.6535C36.156 17.6292 48.6916 10.6681 49.3244 9.8717ZM34.5153 1.42916C38.916 4.0288 43.6429 6.68843 48.2706 9.28152C43.4629 12.2979 38.3858 15.2204 33.0785 18.0339C28.3375 15.467 23.7458 12.6295 19.3276 9.53134C24.3906 6.82589 29.4535 4.12152 34.5153 1.42916ZM18.2498 10.1084C22.6418 13.2132 27.2073 16.0626 31.9189 18.6448C27.3196 21.0524 22.5502 23.3761 17.6378 25.6037C17.4818 25.5448 17.4371 25.5568 17.3258 25.5819C12.1167 22.3823 7.50655 20.0335 2.95528 18.2706C8.05201 15.5575 13.152 12.8324 18.2498 10.1084ZM1.49346 35.7699C6.47564 37.439 11.3804 39.3732 16.1858 41.5593L15.528 55.7892C10.8251 53.6063 6.0131 51.3764 1.20328 49.1935L1.49346 35.7699ZM32.5276 61.4684L31.6626 62.3335L30.648 61.3201L31.5131 60.455L32.5276 61.4684ZM31.332 62.7743C31.3309 62.8452 31.356 62.9172 31.4106 62.9706C31.464 63.0241 31.5338 63.0503 31.6036 63.0503C31.6047 63.0503 31.6058 63.0481 31.608 63.0481L31.9189 63.3579C31.1607 63.0121 30.4036 62.6673 29.6466 62.3204L30.264 61.703L31.332 62.7743ZM32.5887 63.6655C32.5931 63.6623 32.5996 63.6633 32.6029 63.6601C32.7098 63.5532 32.7098 63.3808 32.6029 63.2739L32.0466 62.7186L32.9738 61.7913C33.0807 61.6844 33.0807 61.5121 32.9738 61.4052C32.9727 61.4041 32.9706 61.4041 32.9695 61.403C33.0153 61.3026 33.0164 61.187 32.9335 61.1041L31.0789 59.2484C30.972 59.1415 30.7996 59.1415 30.6927 59.2484C30.5858 59.3553 30.5858 59.5277 30.6927 59.6346L31.1258 60.0677L30.2607 60.9328L29.7687 60.4408C29.6618 60.3339 29.4895 60.3339 29.3826 60.4408C29.2756 60.5477 29.2756 60.7201 29.3826 60.827L29.8746 61.319L29.1153 62.0782C28.8142 61.9397 28.5142 61.8012 28.2131 61.6626C28.2153 61.6604 28.2185 61.6615 28.2207 61.6593C28.3276 61.5524 28.3276 61.3801 28.2207 61.2732L28.0866 61.139L29.4251 59.8015C29.532 59.6946 29.532 59.5223 29.4251 59.4153C29.3182 59.3084 29.1458 59.3084 29.0389 59.4153L27.7004 60.7528L27.3284 60.3819C27.2215 60.275 27.0491 60.275 26.9422 60.3819C26.8353 60.4888 26.8353 60.6612 26.9422 60.7681L27.3153 61.1401L27.24 61.2153C23.4415 59.4655 20.064 57.8957 16.5971 56.2855L17.2222 42.7506C17.4371 42.6906 17.7131 42.4757 17.892 42.3415C23.0138 44.747 28.0145 47.4404 32.8669 50.4066L32.2866 50.987C32.1895 50.951 32.0836 50.9532 32.0051 51.0306C31.9266 51.1081 31.9266 51.215 31.9615 51.3121L31.9451 51.3284C31.8382 51.4353 31.8382 51.6077 31.9451 51.7146C32.0378 51.8073 32.1807 51.8324 32.3106 51.7233L32.8931 52.3048C32.9018 52.3135 32.9149 52.3102 32.9236 52.3179C32.8876 52.331 32.8473 52.3321 32.8178 52.3615L32.2266 52.9539C32.1295 52.9179 32.0226 52.919 31.9451 52.9964C31.8676 53.0739 31.8666 53.1819 31.9025 53.279L31.7073 53.4743C31.6004 53.5812 31.6004 53.7535 31.7073 53.8604C31.8142 53.9673 31.9865 53.9673 32.0935 53.8604L32.2582 53.6957L32.8146 54.2521C32.9106 54.3481 32.9695 54.3295 33.0589 54.311V54.6852L32.6149 55.1292L32.2713 54.7866C32.1644 54.6797 31.992 54.6797 31.8851 54.7866C31.7782 54.8935 31.7782 55.0659 31.8851 55.1728L32.2287 55.5164L31.6473 56.0979C31.5404 56.2048 31.5404 56.3772 31.6473 56.4841C31.7007 56.5375 31.7706 56.5637 31.8404 56.5637C31.9102 56.5637 31.98 56.5375 32.0335 56.4841L32.6149 55.9026L32.8986 56.1863C32.9422 56.2299 33.0011 56.2452 33.0578 56.2528V57.7092C33.0447 57.6764 33.0447 57.6404 33.0186 57.6143C32.916 57.5117 32.7556 57.5139 32.6487 57.6077L32.0935 57.0513C31.9865 56.9444 31.8142 56.9444 31.7073 57.0513C31.6004 57.1583 31.6004 57.3306 31.7073 57.4375L32.2582 57.9895L31.2306 59.0182C31.1236 59.1252 31.1236 59.2975 31.2306 59.4044C31.3375 59.5113 31.5098 59.5113 31.6167 59.4044L32.6444 58.3757L32.8124 58.5448C32.8658 58.5983 32.9356 58.6244 33.0055 58.6244C33.0251 58.6244 33.0393 58.607 33.0578 58.6026V63.887C32.9018 63.8084 32.7458 63.7375 32.5887 63.6655Z" fill="black"/>
<path d="M24.8008 59.1885L24.7408 59.2474C24.6328 59.3533 24.6317 59.5267 24.7375 59.6336C24.8444 59.7427 25.0168 59.7427 25.1237 59.638L25.1837 59.5791C25.2917 59.4733 25.2928 59.2998 25.1869 59.1929C25.0822 59.086 24.9088 59.0838 24.8008 59.1885Z" fill="black"/>
</svg>
