<svg width="70" height="62" viewBox="0 0 70 62" fill="none" xmlns="http://www.w3.org/2000/svg">
<path d="M0.219649 15.2758L0.575285 49.7867C0.651649 57.0533 2.47783 59.7544 9.69528 60.5987C16.628 61.4114 46.2909 61.2042 56.2226 61.4965C65.3829 61.7573 69.0549 59.2307 69.2262 48.1558L69.7793 12.5354C69.9015 4.65908 67.544 2.30163 59.984 2.04308L15.3156 0.513628C3.8131 0.135083 0.0985577 3.55072 0.219649 15.2758ZM1.66619 49.7758C1.2571 10.0307 1.31492 15.9129 1.31056 14.6584C26.9513 13.7911 45.5295 13.7289 68.6666 13.922L68.5596 20.7762L67.9018 20.1184C67.7949 20.0114 67.6226 20.0114 67.5156 20.1184C67.4087 20.2253 67.4087 20.3976 67.5156 20.5045L68.4778 21.4667L67.7142 22.2304C67.676 22.2434 67.6335 22.2456 67.6029 22.2762C67.5724 22.3067 67.5702 22.3493 67.5571 22.3874L67.0716 22.8729C66.9647 22.9798 66.9647 23.1522 67.0716 23.2591C67.3226 23.51 67.5702 23.1467 67.8287 22.8882L68.516 23.5754L68.5149 23.6747C68.4778 23.6878 68.4375 23.69 68.408 23.7194L67.5233 24.6042C67.5222 24.6053 67.5189 24.6053 67.5178 24.6064C67.5167 24.6074 67.5167 24.6107 67.5156 24.6118L66.5884 25.5391C66.4815 25.646 66.4815 25.8184 66.5884 25.9253C66.6953 26.0322 66.8677 26.0322 66.9746 25.9253L67.7131 25.1867L68.4811 25.9547L68.4789 26.0747C68.4113 26.0769 68.3437 26.1009 68.2924 26.1522L67.5767 26.8678L67.3869 26.6769C67.28 26.57 67.1077 26.57 67.0007 26.6769C66.8938 26.7838 66.8938 26.9562 67.0007 27.0631L67.1906 27.254L66.3724 28.0722C66.2655 28.1791 66.2655 28.3514 66.3724 28.4584C66.4793 28.5653 66.6516 28.5653 66.7586 28.4584L67.5767 27.6402L68.4418 28.5053L68.4386 28.7518C68.3742 28.7551 68.3087 28.7769 68.2597 28.826L67.3869 29.6987L67.2146 29.5264C67.1077 29.4194 66.9353 29.4194 66.8284 29.5264C66.7215 29.6333 66.7215 29.8056 66.8284 29.9125L67.0007 30.0849L66.7498 30.3358C66.6429 30.4427 66.6429 30.6151 66.7498 30.722C66.8567 30.8289 67.0291 30.8289 67.136 30.722L67.3869 30.4711L68.1996 31.2849L67.3346 32.15L67.0422 31.8576C66.9353 31.7507 66.7629 31.7507 66.656 31.8576C66.5491 31.9645 66.5491 32.1369 66.656 32.2438L66.9484 32.5362L66.5055 32.9747C66.3986 33.0816 66.3986 33.254 66.5055 33.3609C66.6124 33.4678 66.7847 33.4678 66.8916 33.3609L67.3313 32.9213L68.3546 33.9445L68.3491 34.2816C68.3186 34.2947 68.2826 34.2947 68.2575 34.3198L67.4557 35.1216L67.1251 34.7911C67.0182 34.6842 66.8458 34.6842 66.7389 34.7911C66.632 34.898 66.632 35.0704 66.7389 35.1773L67.0695 35.5078L66.9091 35.6682C66.8022 35.7751 66.8022 35.9474 66.9091 36.0544C67.016 36.1613 67.1884 36.1613 67.2953 36.0544L67.4557 35.894L68.2553 36.6936C68.2706 36.7089 68.2935 36.7056 68.3109 36.7165L68.3087 36.8529L67.4098 37.7518L67.0378 37.3798C66.9309 37.2729 66.7586 37.2729 66.6516 37.3798C66.5447 37.4867 66.5447 37.6591 66.6516 37.766L67.0237 38.138L66.5851 38.5765C66.4782 38.6834 66.4782 38.8558 66.5851 38.9627C66.692 39.0696 66.8644 39.0696 66.9713 38.9627L67.4098 38.5242L68.1778 39.2922C68.2029 39.3173 68.2389 39.3173 68.2695 39.3304L68.2597 39.9707C68.2116 39.9816 68.1626 39.9893 68.1255 40.0264L67.4807 40.6711L66.8666 40.0547C66.7597 39.9478 66.5873 39.9478 66.4804 40.0547C66.3735 40.1616 66.3735 40.334 66.4804 40.4409L67.0956 41.0562L66.7204 41.4314C66.6135 41.5384 66.6135 41.7107 66.7204 41.8176C66.8273 41.9245 66.9996 41.9245 67.1066 41.8176L67.4818 41.4424L68.1353 42.0958C68.1331 42.098 68.1298 42.0969 68.1276 42.0991L66.836 43.3907L66.0898 42.6445C65.9829 42.5376 65.8106 42.5376 65.7037 42.6445C65.5967 42.7514 65.5967 42.9238 65.7037 43.0307L66.4498 43.7769L65.9927 44.234C65.8858 44.3409 65.8858 44.5133 65.9927 44.6202C66.0996 44.7271 66.272 44.7271 66.3789 44.6202L66.836 44.1631L67.5844 44.9114C67.6913 45.0184 67.8636 45.0184 67.9706 44.9114C68.0775 44.8045 68.0775 44.6322 67.9706 44.5253L67.2222 43.7769L68.2182 42.7809L68.1844 44.9344C68.1298 44.9431 68.0731 44.9551 68.0306 44.9976L66.5535 46.4747L65.4855 45.4078C65.3786 45.3009 65.2062 45.3009 65.0993 45.4078C64.9924 45.5147 64.9924 45.6871 65.0993 45.794L66.1673 46.8609L65.7244 47.3038C65.6175 47.4107 65.6175 47.5831 65.7244 47.69C65.8313 47.7969 66.0037 47.7969 66.1106 47.69L66.5535 47.2471L67.7273 48.4176C67.8342 48.5245 68.0066 48.5245 68.1135 48.4176C68.1233 48.4078 68.1211 48.3914 68.1287 48.3805C68.1255 48.5518 68.12 48.7264 68.1146 48.8987L66.9931 50.0202L66.1804 49.2074L66.1924 49.1954C66.2993 49.0885 66.2993 48.9162 66.1924 48.8093C66.0855 48.7024 65.9131 48.7024 65.8062 48.8093L65.7942 48.8213L64.7087 47.7358C64.6018 47.6289 64.4295 47.6289 64.3226 47.7358C64.2157 47.8427 64.2157 48.0151 64.3226 48.122L65.408 49.2074L64.2407 50.3747L63.1553 49.2893C63.0484 49.1824 62.876 49.1824 62.7691 49.2893C62.6622 49.3962 62.6622 49.5685 62.7691 49.6754L63.8546 50.7609L63.2993 51.3162C63.1924 51.4231 63.1924 51.5955 63.2993 51.7024C63.4062 51.8093 63.5786 51.8093 63.6855 51.7024L64.2407 51.1471L66.6298 53.5351L65.2029 54.962L64.5386 54.2976L65.456 53.3802C65.5629 53.2733 65.5629 53.1009 65.456 52.994C65.3491 52.8871 65.1767 52.8871 65.0698 52.994L64.1524 53.9114L61.6018 51.3609C61.4949 51.254 61.3226 51.254 61.2156 51.3609C61.1087 51.4678 61.1087 51.6402 61.2156 51.7471L63.7662 54.2976L62.4691 55.5947L61.1982 54.3238L61.9487 53.5733C62.0556 53.4664 62.0556 53.294 61.9487 53.1871C61.8418 53.0802 61.6695 53.0802 61.5626 53.1871L60.812 53.9376L58.9258 52.0514C58.8189 51.9445 58.6466 51.9445 58.5396 52.0514C58.4327 52.1584 58.4327 52.3307 58.5396 52.4376L60.4258 54.3238L58.6106 56.1391L57.6222 55.1507L58.64 54.1329C58.7469 54.026 58.7469 53.8536 58.64 53.7467C58.5331 53.6398 58.3607 53.6398 58.2538 53.7467L57.236 54.7645L56.3349 53.8634C56.228 53.7565 56.0556 53.7565 55.9487 53.8634C55.8418 53.9704 55.8418 54.1427 55.9487 54.2496L56.8498 55.1507L55.0346 56.966L54.3026 56.234L54.9211 55.6154C55.028 55.5085 55.028 55.3362 54.9211 55.2293C54.8142 55.1224 54.6418 55.1224 54.5349 55.2293L53.9164 55.8478L53.2269 55.1584C53.12 55.0514 52.9477 55.0514 52.8407 55.1584C52.7338 55.2653 52.7338 55.4376 52.8407 55.5445L53.5302 56.234L51.7586 58.0056L50.7975 57.0445L51.8797 55.9624C51.9866 55.8554 51.9866 55.6831 51.8797 55.5762C51.7727 55.4693 51.6004 55.4693 51.4935 55.5762L50.4113 56.6584L49.6869 55.934C49.58 55.8271 49.4076 55.8271 49.3007 55.934C49.1938 56.0409 49.1938 56.2133 49.3007 56.3202L50.0251 57.0445L48.4258 58.6438L47.3295 57.5474L49.4502 55.4267C49.5571 55.3198 49.5571 55.1474 49.4502 55.0405C49.3433 54.9336 49.1709 54.9336 49.064 55.0405L46.9433 57.1613L46.3204 56.5384C46.2135 56.4314 46.0411 56.4314 45.9342 56.5384C45.8273 56.6453 45.8273 56.8176 45.9342 56.9245L46.5571 57.5474L44.9142 59.1893L43.8866 58.1605L46.3956 55.6515C46.5026 55.5445 46.5026 55.3722 46.3956 55.2653C46.2887 55.1584 46.1164 55.1584 46.0095 55.2653L43.5004 57.7744L43.04 57.314C42.9331 57.2071 42.7607 57.2071 42.6538 57.314C42.5469 57.4209 42.5469 57.5933 42.6538 57.7002L43.1142 58.1605L41.8171 59.4576L40.7218 58.3624L42.6724 56.4118C42.7793 56.3049 42.7793 56.1325 42.6724 56.0256C42.5655 55.9187 42.3931 55.9187 42.2862 56.0256L40.3455 57.9773L40.1142 57.746C40.0073 57.6391 39.8349 57.6391 39.728 57.746C39.6211 57.8529 39.6211 58.0253 39.728 58.1322L39.9593 58.3634L38.7484 59.5744L37.5986 58.4245L39.2786 56.7445C39.3855 56.6376 39.3855 56.4653 39.2786 56.3584C39.1716 56.2514 38.9993 56.2514 38.8924 56.3584L37.2124 58.0384L37.0062 57.8322C36.8993 57.7253 36.7269 57.7253 36.62 57.8322C36.5131 57.9391 36.5131 58.1115 36.62 58.2184L36.8262 58.4245L35.744 59.5067L34.8233 58.586L36.3331 57.0762C36.44 56.9693 36.44 56.7969 36.3331 56.69C36.2262 56.5831 36.0538 56.5831 35.9469 56.69L34.4371 58.1998L34.4153 58.178C34.3084 58.0711 34.136 58.0711 34.0291 58.178C33.9222 58.2849 33.9222 58.4573 34.0291 58.5642L34.0509 58.586L32.7964 59.8405L31.8255 58.8707C31.808 58.8533 31.7829 58.8565 31.7622 58.8445L33.4378 57.1689C33.5447 57.062 33.5447 56.8896 33.4378 56.7827C33.3309 56.6758 33.1586 56.6758 33.0517 56.7827L29.9851 59.8493L29.2127 59.0769L30.2884 58.0013C30.3953 57.8944 30.3953 57.722 30.2884 57.6151C30.1815 57.5082 30.0091 57.5082 29.9022 57.6151L27.4117 60.1056C27.1378 60.1024 26.8607 60.0991 26.5891 60.0958C26.5858 60.0925 26.588 60.0871 26.5847 60.0849L26.3044 59.8045L27.3549 58.7529C27.4618 58.646 27.4618 58.4736 27.3549 58.3667C27.248 58.2598 27.0757 58.2598 26.9687 58.3667L25.9182 59.4184L25.5724 59.0725C25.4655 58.9656 25.2931 58.9656 25.1862 59.0725C25.0793 59.1795 25.0793 59.3518 25.1862 59.4587L25.532 59.8045L25.2582 60.0784C18.3484 59.9813 12.4356 59.8231 9.81638 59.5154C3.17383 58.7376 1.73492 56.4958 1.66619 49.7758ZM67.6116 53.7445L67.4011 53.534L67.712 53.2231C67.6804 53.3976 67.6498 53.5722 67.6116 53.7445ZM67.8593 52.3798C67.8146 52.3918 67.7666 52.3973 67.7317 52.4333L67.016 53.1489L64.6269 50.7609L65.7942 49.5936L66.6069 50.4064L65.8847 51.1285C65.7778 51.2355 65.7778 51.4078 65.8847 51.5147C65.9917 51.6216 66.164 51.6216 66.2709 51.5147L66.9931 50.7925L67.4731 51.2725C67.58 51.3794 67.7524 51.3794 67.8593 51.2725C67.9662 51.1656 67.9662 50.9933 67.8593 50.8864L67.3793 50.4064L68.0917 49.694C68.0535 50.5929 67.9826 51.4962 67.8593 52.3798ZM68.1124 48.0314L66.9386 46.8587L68.1724 45.6238L68.1342 48.086C68.1244 48.0696 68.1276 48.0467 68.1124 48.0314ZM68.4517 27.746L67.9607 27.2551L68.4669 26.7489L68.4517 27.746ZM68.4047 30.7198L67.7687 30.0838L68.4244 29.4282L68.4047 30.7198ZM68.3873 31.8642L68.3666 33.1842L67.7164 32.534L68.3873 31.8642ZM68.3229 35.9889L67.8418 35.5078L68.3382 35.0104L68.3229 35.9889ZM68.2826 38.6224L67.7971 38.1369L68.2978 37.6362L68.2826 38.6224ZM68.2389 41.4271L67.868 41.0562L68.2509 40.6733L68.2389 41.4271ZM68.4909 25.1965L68.096 24.8016L68.5029 24.3947L68.4909 25.1965ZM68.528 22.8162L68.2138 22.502L68.5378 22.178L68.528 22.8162ZM58.0149 60.0478C58.0117 59.9824 57.9898 59.9158 57.9396 59.8656L56.7975 58.7234L58.6127 56.9082L59.8837 58.1791L58.0149 60.0478ZM60.2687 58.5653L61.7775 60.074C60.7237 60.314 59.5891 60.4067 58.4087 60.4264L60.2687 58.5653ZM52.4458 60.3282L52.8811 59.8929L53.0218 60.0336C53.1287 60.1405 53.3011 60.1405 53.408 60.0336C53.5149 59.9267 53.5149 59.7544 53.408 59.6474L53.2673 59.5067L55.0389 57.7351L56.0273 58.7234L54.3898 60.3609C53.7844 60.35 53.1331 60.3391 52.4458 60.3282ZM50.24 60.2998L51.764 58.7758L52.496 59.5078L51.6866 60.3173C51.2207 60.3107 50.7342 60.3053 50.24 60.2998ZM45.9124 60.2584C45.9015 60.2104 45.8938 60.1602 45.8567 60.1231L45.3091 59.5755L46.952 57.9336L48.0484 59.03L46.8113 60.2671C46.5146 60.2627 46.2124 60.2605 45.9124 60.2584ZM41.828 60.2278L42.0146 60.0413C42.0156 60.0402 42.0189 60.0402 42.02 60.0391C42.0211 60.038 42.0211 60.0347 42.0222 60.0336L43.5091 58.5467L44.5367 59.5755L43.8691 60.2431C43.196 60.2365 42.5175 60.2322 41.828 60.2278ZM44.9229 59.9605L45.2142 60.2529C45.0222 60.2518 44.8291 60.2496 44.6349 60.2485L44.9229 59.9605ZM48.4324 59.414L49.3073 60.2889C48.7466 60.2834 48.1629 60.278 47.5749 60.2725L48.4324 59.414ZM49.7436 60.0238C49.7306 59.9824 49.7273 59.9376 49.6946 59.9049L48.8175 59.0278L50.4167 57.4285L51.3778 58.3896L49.7436 60.0238ZM52.1491 58.3896L53.9207 56.618L54.6527 57.35L52.8811 59.1216L52.1491 58.3896ZM55.424 57.35L57.2393 55.5347L58.2276 56.5231L56.4124 58.3384L55.424 57.35ZM58.9989 56.5231L60.8142 54.7078L62.0851 55.9787L60.2698 57.794L58.9989 56.5231ZM38.1211 60.2016C37.4066 60.1962 36.6898 60.1907 35.9709 60.1864C35.9862 60.1765 36.0058 60.1798 36.02 60.1656C36.0833 60.1024 36.0964 60.0195 36.0855 59.9387L37.2135 58.8107L38.3633 59.9605L38.1211 60.2016ZM33.2458 60.1635L34.4393 58.97L35.36 59.8907L35.0731 60.1776C34.4644 60.1733 33.8546 60.1689 33.2458 60.1635ZM28.832 59.4609L29.4986 60.1285C29.0557 60.1242 28.616 60.1187 28.1786 60.1144L28.832 59.4609ZM31.4175 59.1914C31.4295 59.2122 31.4262 59.2373 31.4436 59.2547L32.3458 60.1558C31.7186 60.1504 31.0935 60.1449 30.4706 60.1384L31.4175 59.1914ZM39.3844 60.2104L39.1346 59.9594L40.3455 58.7485L41.4407 59.8438L41.0633 60.2213C40.6171 60.2191 39.4706 60.2104 39.3844 60.2104ZM56.2542 60.4056C55.9138 60.3958 55.5298 60.3871 55.1447 60.3773L56.4135 59.1085L57.5556 60.2507C57.6058 60.3009 57.6713 60.3227 57.7378 60.326L57.6342 60.4296C57.1771 60.4275 56.7178 60.4198 56.2542 60.4056ZM62.3655 59.9147C62.3567 59.9016 62.36 59.8853 62.348 59.8733L60.6538 58.1791L62.4691 56.3638L64.8146 58.7093L64.8135 58.7104C64.0858 59.2776 63.2567 59.6529 62.3655 59.9147ZM65.2062 58.3296L62.8553 55.9787L64.1524 54.6816L64.8167 55.346L63.9996 56.162C63.8927 56.2689 63.8927 56.4413 63.9996 56.5482C64.1066 56.6551 64.2789 56.6551 64.3858 56.5482L65.2029 55.7322L66.1084 56.6365C66.2153 56.7435 66.3876 56.7435 66.4946 56.6365C66.6015 56.5296 66.6015 56.3573 66.4946 56.2504L65.5891 55.346L67.016 53.9191L67.3247 54.2278C67.3662 54.2693 67.4218 54.2813 67.4764 54.2911C67.0586 55.8631 66.3527 57.2638 65.2062 58.3296ZM15.2786 1.60454L59.9458 3.1329C67.1273 3.37726 68.7986 5.36708 68.6829 12.8322C45.5349 12.6391 26.9535 12.7002 1.31383 13.5664C1.46438 3.44272 5.63274 1.26854 15.2786 1.60454Z" fill="black"/>
<path d="M9.07342 11.534C9.48469 11.534 9.89487 11.4532 10.2723 11.2852C11.4243 10.7725 12.1792 9.4896 12.0658 8.23396C11.9447 6.88887 10.9945 5.84051 9.64396 5.56232C8.2956 5.28523 7.00723 5.87323 6.3636 7.06123C5.7636 8.17178 5.94905 9.64778 6.80542 10.5729C7.38142 11.1947 8.23014 11.534 9.07342 11.534ZM8.33051 10.2849L8.7516 9.86378L9.30905 10.4212C8.97742 10.4605 8.6436 10.4049 8.33051 10.2849ZM9.52833 8.82851L9.93633 9.23651L9.57524 9.5976C9.49996 9.67287 9.49778 9.77542 9.52833 9.86923L9.13669 9.4776L9.49014 9.12414C9.57196 9.04232 9.57196 8.92887 9.52833 8.82851ZM9.90033 10.2412L9.68869 10.0296C9.71596 10.0383 9.73887 10.0623 9.76833 10.0623C9.83814 10.0623 9.90796 10.0361 9.96142 9.98269L10.3225 9.6216L10.4741 9.77323C10.3094 9.96523 10.1218 10.13 9.90033 10.2412ZM10.7774 9.30632L10.7076 9.23651L10.8734 9.07069C10.8461 9.15142 10.8134 9.22887 10.7774 9.30632ZM7.3236 7.58051C7.76323 6.76669 8.59124 6.46232 9.4236 6.63142C10.1141 6.77432 10.8843 7.29469 10.9781 8.33323C10.9814 8.36705 10.9694 8.40196 10.9694 8.43578C10.8734 8.40196 10.7676 8.40305 10.6912 8.48051L10.3203 8.85141L9.33523 7.86632C9.22833 7.75942 9.05596 7.75942 8.94905 7.86632C8.84214 7.97323 8.84214 8.1456 8.94905 8.25251L9.39851 8.70196C9.29923 8.65832 9.18469 8.65723 9.10287 8.73905L8.74942 9.09251L8.62723 8.97032C8.52033 8.86342 8.34796 8.86342 8.24105 8.97032C8.13414 9.07723 8.13414 9.2496 8.24105 9.35651L8.36323 9.47869L7.83633 10.0078C7.75996 9.94887 7.6716 9.90196 7.60614 9.83105C7.06614 9.24851 6.94505 8.28087 7.3236 7.58051Z" fill="black"/>
<path d="M16.6378 11.2809C17.0196 11.2809 17.4014 11.2089 17.7582 11.0583C18.8447 10.599 19.5647 9.46559 19.508 8.30268C19.4502 7.11577 18.5796 6.04995 17.4385 5.76741C16.0607 5.42814 14.6381 6.0325 13.9781 7.23795C13.3869 8.31577 13.6105 9.54959 14.5618 10.4583C15.1236 10.994 15.8807 11.2809 16.6378 11.2809ZM17.0589 8.70304L17.4352 9.07941L17.0338 9.48086C16.9443 9.57032 16.9476 9.70123 17.0087 9.80595L16.5942 9.39141L17.0109 8.97468C17.0872 8.9005 17.0894 8.79795 17.0589 8.70304ZM16.6018 10.1692C16.3771 10.1649 16.1567 10.1223 15.9451 10.0416L16.2102 9.77759L16.6018 10.1692ZM17.2716 10.0678L17.096 9.89214C17.2061 9.9565 17.3098 9.97832 17.4211 9.86705L17.8225 9.46559L17.9447 9.58777C17.6752 9.88995 17.4974 9.98268 17.2716 10.0678ZM18.2469 9.11977L18.2065 9.07941L18.3123 8.97359C18.2949 9.02486 18.2687 9.07177 18.2469 9.11977ZM14.9327 7.76159C15.3298 7.03941 16.2134 6.58995 17.1756 6.82559C17.8432 6.99032 18.3691 7.63723 18.4127 8.33323C18.3178 8.3005 18.2131 8.30268 18.1367 8.37904L17.8203 8.69541L17.0512 7.92632C16.9443 7.81941 16.772 7.81941 16.6651 7.92632C16.5582 8.03323 16.5582 8.20559 16.6651 8.3125L16.8963 8.54377C16.8014 8.51323 16.7 8.51541 16.6247 8.59068L16.208 9.00741L16.0902 8.88959C15.9832 8.78268 15.8109 8.78268 15.704 8.88959C15.5971 8.9965 15.5971 9.16886 15.704 9.27577L15.8218 9.39359L15.4487 9.76559C15.404 9.73068 15.3516 9.70777 15.3102 9.66959C14.7178 9.10014 14.5792 8.40523 14.9327 7.76159Z" fill="black"/>
<path d="M24.0538 11.1379C24.4989 11.1379 24.9953 11.0146 25.532 10.7168C26.5236 10.1692 27.0767 9.21135 27.0516 8.0899C27.0036 6.01608 24.9713 4.27717 22.8516 5.82626C21.3636 6.91172 21.2611 8.79026 22.0193 9.98045C22.4142 10.599 23.1222 11.1379 24.0538 11.1379ZM23.5782 9.9139L23.9022 9.5899L24.3134 10.0012C24.0451 10.0459 23.8018 10.0066 23.5782 9.9139ZM25.0051 9.76226C24.9647 9.78408 24.9287 9.78735 24.8894 9.80699L24.2873 9.20481L24.7465 8.74554C24.8011 8.69099 24.8262 8.62008 24.8251 8.54917L25.1273 8.85135L24.7509 9.22772C24.644 9.33463 24.644 9.50699 24.7509 9.6139C24.8578 9.72081 25.0302 9.72081 25.1371 9.6139L25.5134 9.23754L25.5702 9.29426C25.4316 9.46445 25.2516 9.6259 25.0051 9.76226ZM23.4942 6.70881C24.896 5.68554 25.8822 6.93026 25.9487 8.03863C25.9444 8.0419 25.9389 8.04081 25.9345 8.04408L25.5124 8.46626L24.4673 7.42117C24.3604 7.31426 24.188 7.31426 24.0811 7.42117C23.9742 7.52808 23.9742 7.70044 24.0811 7.80735L24.5567 8.28299C24.4858 8.2819 24.4138 8.30699 24.3604 8.36154L23.9011 8.82081L23.8378 8.75863C23.7309 8.65172 23.5585 8.65172 23.4516 8.75863C23.3447 8.86554 23.3447 9.0379 23.4516 9.14481L23.5138 9.20699L23.1244 9.59645C23.0622 9.52881 22.9902 9.47972 22.9367 9.39681C22.4513 8.62772 22.5254 7.41463 23.4942 6.70881Z" fill="black"/>
<path d="M30.1935 8.88752C40.1153 9.32062 50.5269 9.28025 61.0444 8.67698C61.3444 8.65952 61.5746 8.40207 61.5571 8.10207C61.5397 7.80098 61.2768 7.55334 60.9811 7.58825C50.7833 8.17189 40.4393 8.24389 30.2404 7.79662C29.9229 7.79443 29.6851 8.01807 29.672 8.31916C29.6589 8.62025 29.8935 8.87334 30.1935 8.88752Z" fill="black"/>
<path d="M34.723 34.886C34.7601 34.886 34.7983 34.886 34.8353 34.8849C36.0397 34.8511 37.2463 34.2751 38.1473 33.3042C38.911 32.4816 39.463 31.3722 39.7444 30.0991C39.8633 29.5602 39.9877 28.7572 39.6877 28.0089C39.3997 27.2878 38.7681 26.7063 37.7579 26.2318C36.7826 25.7769 35.3132 25.3253 33.8579 25.7551C32.6088 26.1282 31.5332 27.2267 30.9801 28.694C30.4073 30.2147 30.4913 31.8031 31.2059 32.9431C31.9521 34.1322 33.3223 34.886 34.723 34.886ZM31.9543 29.2536L32.2117 29.5111L31.7633 29.9594C31.8026 29.7249 31.8746 29.4893 31.9543 29.2536ZM32.9328 27.5867L33.535 28.1889L32.5979 29.126L32.1823 28.7103C32.3873 28.2816 32.6339 27.8933 32.9328 27.5867ZM35.4452 27.05L36.3539 27.9587L35.215 29.0976L34.3063 28.1889L35.4452 27.05ZM35.9263 26.7598C36.379 26.8503 36.7979 26.9998 37.1546 27.1569L36.739 27.5725L35.9263 26.7598ZM34.9772 33.6347L34.3346 32.9922L35.0132 32.3136L36.1521 33.4525C35.791 33.6271 35.4103 33.722 35.0295 33.7612C35.0175 33.7176 35.0121 33.6696 34.9772 33.6347ZM34.3161 33.7449C34.1132 33.7176 33.9179 33.6718 33.7248 33.6031L33.9495 33.3783L34.3161 33.7449ZM33.9495 32.6071L33.2132 31.8707L33.8917 31.1922L34.6281 31.9285L33.9495 32.6071ZM32.0753 32.2372C31.9041 31.9274 31.8015 31.5674 31.7513 31.1802L32.4419 31.8707L32.0753 32.2372ZM31.9183 30.5758L32.5968 29.8973L33.5055 30.806L32.827 31.4845L31.9183 30.5758ZM34.2768 30.806L35.2139 29.8689L35.9503 30.6053L35.0132 31.5423L34.2768 30.806ZM35.6001 29.4827L36.739 28.3438L37.4753 29.0802L36.3364 30.2191L35.6001 29.4827ZM34.8288 29.4827L33.8917 30.4198L32.983 29.5111L33.9201 28.574L34.8288 29.4827ZM32.3983 32.6856L32.8281 32.2558L33.5644 32.9922L33.1892 33.3674C32.8859 33.1896 32.6252 32.9551 32.3983 32.6856ZM36.6179 33.17C36.6092 33.158 36.6124 33.1427 36.6026 33.1318L35.3993 31.9274L36.3364 30.9903L37.4808 32.1347C37.5233 32.1773 37.5801 32.1903 37.6357 32.1991C37.5419 32.3234 37.4513 32.4511 37.3477 32.5623C37.1263 32.8012 36.8775 32.9965 36.6179 33.17ZM38.6753 28.4136C38.8183 28.7703 38.8193 29.2307 38.6797 29.8623C38.5172 30.5976 38.2455 31.2554 37.8953 31.8205C37.8833 31.7976 37.8855 31.7693 37.8659 31.7496L36.7215 30.6053L37.8604 29.4663L38.0208 29.6267C38.1277 29.7336 38.3001 29.7336 38.407 29.6267C38.5139 29.5198 38.5139 29.3474 38.407 29.2405L38.2466 29.0802L38.3023 29.0245C38.4092 28.9176 38.4092 28.7452 38.3023 28.6383C38.1953 28.5314 38.023 28.5314 37.9161 28.6383L37.8604 28.694L37.1241 27.9576L37.6652 27.4165C38.1888 27.7176 38.5281 28.0438 38.6753 28.4136ZM34.1699 26.8023C34.4612 26.7151 34.7579 26.678 35.0503 26.6736L33.9201 27.8027L33.3539 27.2354C33.6113 27.0467 33.8819 26.8874 34.1699 26.8023Z" fill="black"/>
<path d="M46.832 43.1039C46.832 43.1028 46.8331 43.1028 46.8331 43.1017C51.0135 37.8359 51.0222 31.0875 47.4517 26.5853C41.1756 18.625 26.2956 19.898 22.3629 31.9962C17.6033 46.6439 37.0029 55.6275 46.832 43.1039ZM43.3356 41.8417L43.2102 41.7162C43.1033 41.6093 42.9309 41.6093 42.824 41.7162C42.7171 41.8231 42.7171 41.9955 42.824 42.1024L43.6596 42.938L42.1564 44.4413L41.5346 43.8195L41.7429 43.6111C41.8498 43.5042 41.8498 43.3319 41.7429 43.225C41.636 43.118 41.4636 43.118 41.3567 43.225L41.1484 43.4333L40.8167 43.1017C40.7098 42.9948 40.5375 42.9948 40.4306 43.1017C40.3237 43.2086 40.3237 43.381 40.4306 43.4879L40.7622 43.8195L39.2589 45.3228L38.1756 44.2395L38.6295 43.7857C38.7364 43.6788 38.7364 43.5064 38.6295 43.3995C38.5226 43.2926 38.3502 43.2926 38.2433 43.3995L37.736 43.9068C37.6629 43.9046 37.5898 43.9275 37.5342 43.9831C37.4786 44.0388 37.4556 44.1119 37.4578 44.185L36.1106 45.5322L34.9389 44.3606C34.832 44.2537 34.6596 44.2537 34.5527 44.3606C34.4458 44.4675 34.4458 44.6399 34.5527 44.7468L35.7244 45.9184L34.5527 47.09C34.4458 47.197 34.4458 47.3693 34.5527 47.4762C34.6596 47.5831 34.832 47.5831 34.9389 47.4762L36.1095 46.3057L37.1938 47.3911C37.1055 47.4839 37.1076 47.618 37.1753 47.7217C36.3887 47.8646 35.5978 47.9279 34.8091 47.9279L32.8433 45.962L34.6695 44.1359C34.7764 44.029 34.7764 43.8566 34.6695 43.7497C34.5626 43.6428 34.3902 43.6428 34.2833 43.7497L32.4571 45.5759L31.496 44.6148C31.3891 44.5079 31.2167 44.5079 31.1098 44.6148C31.0029 44.7217 31.0029 44.894 31.1098 45.001L32.0709 45.962L30.8404 47.1926L29.1909 45.5431L30.5709 44.1631C30.6778 44.0562 30.6778 43.8839 30.5709 43.777C30.464 43.67 30.2916 43.67 30.1847 43.777L28.8047 45.157L27.8851 44.2373C27.7782 44.1304 27.6058 44.1304 27.4989 44.2373C27.392 44.3442 27.392 44.5166 27.4989 44.6235L28.4186 45.5431L28.028 45.9337C26.8935 45.206 26.1549 44.5188 25.4578 43.7115C30.6004 35.6126 40.5986 34.7464 44.6524 40.4726L43.3629 41.7631C43.3476 41.7817 43.3487 41.8133 43.3356 41.8417ZM39.2611 46.093L39.9495 46.7813C39.992 46.8239 40.0487 46.837 40.1044 46.8457C39.3418 47.1631 38.5597 47.4086 37.7644 47.5897L39.2611 46.093ZM37.5822 47.0006L36.4989 45.9173L37.7916 44.6246L38.8749 45.7079L37.5822 47.0006ZM31.3684 47.4391L32.4626 46.345L34.0313 47.9126C33.1738 47.857 32.4386 47.749 31.3684 47.4391ZM28.5178 46.2184L28.8113 45.925L29.7156 46.8293C29.2989 46.6439 29.3513 46.7006 28.5178 46.2184ZM40.3542 46.7344C40.4251 46.6286 40.4284 46.489 40.3346 46.3951L39.6462 45.7068L41.1495 44.2035L41.7713 44.8253L41.5236 45.073C41.4167 45.1799 41.4167 45.3522 41.5236 45.4591C41.6306 45.566 41.8029 45.566 41.9098 45.4591L42.1575 45.2115L42.1782 45.2322C42.2851 45.3391 42.4575 45.3391 42.5644 45.2322C42.6713 45.1253 42.6713 44.953 42.5644 44.846L42.5436 44.8253L44.0469 43.322L44.1724 43.4475C44.2793 43.5544 44.4517 43.5544 44.5586 43.4475C44.6655 43.3406 44.6655 43.1682 44.5586 43.0613L44.4331 42.9359L44.4713 42.8977C44.5782 42.7908 44.5782 42.6184 44.4713 42.5115C44.3644 42.4046 44.192 42.4046 44.0851 42.5115L44.0469 42.5497L43.6738 42.1766C43.7022 42.1635 43.7338 42.1646 43.7567 42.1417L44.9589 40.9395C45.2917 41.4795 45.5873 42.0435 45.7935 42.6435C44.2902 44.4773 42.4684 45.8093 40.3542 46.7344ZM23.4026 32.3333C27.0855 21.002 40.9095 20.053 46.5975 27.2628C49.5135 30.9402 49.9837 36.7013 46.5495 41.6551C43.1404 33.6173 31.0596 33.4362 24.7618 42.8093C22.5811 39.7068 22.2255 35.9551 23.4026 32.3333Z" fill="black"/>
<path d="M10.1709 8.16301C10.2778 8.26992 10.4501 8.26992 10.557 8.16301C10.664 8.0561 10.664 7.88374 10.557 7.77683L9.77923 7.0001C9.67232 6.89319 9.49996 6.89319 9.39305 7.0001C9.28614 7.10701 9.28614 7.27938 9.39305 7.38629L10.1709 8.16301Z" fill="black"/>
<path d="M12.86 24.5201C12.9669 24.627 13.1393 24.627 13.2462 24.5201C13.3531 24.4132 13.3531 24.2408 13.2462 24.1339L12.4477 23.3353L13.5091 22.2739L14.1691 22.935C14.276 23.0419 14.4484 23.0419 14.5553 22.935C14.6622 22.8281 14.6622 22.6557 14.5553 22.5488L13.8953 21.8877L14.7986 20.9844C14.9055 20.8775 14.9055 20.7052 14.7986 20.5982C14.6917 20.4913 14.5193 20.4913 14.4124 20.5982L13.5091 21.5015L12.8557 20.8481C12.7488 20.7412 12.5764 20.7412 12.4695 20.8481C12.3626 20.955 12.3626 21.1273 12.4695 21.2342L13.1229 21.8877L12.0615 22.9492L11.6546 22.5422C11.5477 22.4353 11.3753 22.4353 11.2684 22.5422C11.1615 22.6492 11.1615 22.8215 11.2684 22.9284L11.6753 23.3353L10.508 24.5026L9.60694 23.6015C9.50003 23.4946 9.32767 23.4946 9.22076 23.6015C9.11385 23.7084 9.11385 23.8808 9.22076 23.9877L10.1219 24.8888L9.02549 25.9852L8.05458 25.0132C7.94767 24.9062 7.77531 24.9062 7.6684 25.0132C7.56149 25.1201 7.56149 25.2924 7.6684 25.3993L8.6404 26.3713L6.68004 28.3306C6.57313 28.4375 6.57313 28.6099 6.68004 28.7168C6.78694 28.8237 6.95931 28.8237 7.06622 28.7168L9.02549 26.7564L9.89167 27.6226C9.99858 27.7295 10.1709 27.7295 10.2779 27.6226C10.3848 27.5157 10.3848 27.3433 10.2779 27.2364L9.41167 26.3702L10.508 25.2739L10.9859 25.7517C11.0928 25.8586 11.2651 25.8586 11.372 25.7517C11.4789 25.6448 11.4789 25.4724 11.372 25.3655L10.8942 24.8877L12.0615 23.7204L12.86 24.5201Z" fill="black"/>
<path d="M51.5339 23.4226L52.8233 22.1331L53.0557 22.3655C53.1626 22.4724 53.335 22.4724 53.4419 22.3655C53.5488 22.2586 53.5488 22.0862 53.4419 21.9793L53.2095 21.7469L54.1651 20.7913L54.6779 21.304C54.7848 21.4109 54.9571 21.4109 55.0641 21.304C55.171 21.1971 55.171 21.0247 55.0641 20.9178L54.5513 20.4051L55.6346 19.3218C55.7415 19.2149 55.7415 19.0426 55.6346 18.9357C55.5277 18.8287 55.3553 18.8287 55.2484 18.9357L54.1651 20.0189L53.5117 19.3655C53.4048 19.2586 53.2324 19.2586 53.1255 19.3655C53.0186 19.4724 53.0186 19.6447 53.1255 19.7516L53.779 20.4051L52.8233 21.3607L52.0281 20.5655C51.9211 20.4586 51.7488 20.4586 51.6419 20.5655C51.535 20.6724 51.535 20.8447 51.6419 20.9517L52.4371 21.7469L51.1477 23.0364C51.0408 23.1433 51.0408 23.3157 51.1477 23.4226C51.2546 23.5295 51.427 23.5295 51.5339 23.4226Z" fill="black"/>
<path d="M18.3112 46.9796L17.2127 48.0781L16.664 47.5294C16.5571 47.4225 16.3847 47.4225 16.2778 47.5294C16.1709 47.6363 16.1709 47.8087 16.2778 47.9156L16.8265 48.4643L15.8011 49.4898L15.3232 49.012C15.2163 48.9051 15.044 48.9051 14.9371 49.012C14.8301 49.1189 14.8301 49.2912 14.9371 49.3981L15.4149 49.876L14.2825 51.0083L13.4872 50.2131C13.3803 50.1061 13.208 50.1061 13.1011 50.2131C12.9941 50.32 12.9941 50.4923 13.1011 50.5992L13.8963 51.3945L13.1011 52.1898C12.9941 52.2967 12.9941 52.4691 13.1011 52.576C13.208 52.6829 13.3803 52.6829 13.4872 52.576L14.2825 51.7807L15.0123 52.5105C15.1192 52.6174 15.2916 52.6174 15.3985 52.5105C15.5054 52.4036 15.5054 52.2312 15.3985 52.1243L14.6687 51.3945L15.8011 50.2621L16.5614 51.0225C16.6683 51.1294 16.8407 51.1294 16.9476 51.0225C17.0545 50.9156 17.0545 50.7432 16.9476 50.6363L16.1872 49.876L17.2127 48.8505L18.1149 49.7527C18.2218 49.8596 18.3941 49.8596 18.5011 49.7527C18.608 49.6458 18.608 49.4734 18.5011 49.3665L17.5989 48.4643L18.6974 47.3658C18.8043 47.2589 18.8043 47.0865 18.6974 46.9796C18.5905 46.8727 18.4181 46.8727 18.3112 46.9796Z" fill="black"/>
<path d="M51.5011 45.5149C51.608 45.6218 51.7804 45.6218 51.8873 45.5149L56.2629 41.1392C56.3698 41.0323 56.3698 40.8599 56.2629 40.753C56.156 40.6461 55.9836 40.6461 55.8767 40.753L51.5011 45.1287C51.3942 45.2356 51.3942 45.4079 51.5011 45.5149Z" fill="black"/>
</svg>
