<svg width="129" height="46" viewBox="0 0 129 46" fill="none" xmlns="http://www.w3.org/2000/svg">
<path d="M101.866 12.8952C100.618 12.1487 99.0808 11.7754 97.2546 11.7754C95.9318 11.772 94.6236 12.0523 93.4184 12.5976C92.2462 13.1142 91.184 13.8509 90.2893 14.7677C90.1358 14.9263 89.9938 15.0901 89.8569 15.255L89.719 12.2783H82.7723V36.5284H90.0788V22.0057C90.0749 21.4539 90.1939 20.9081 90.4272 20.408C90.6555 19.9205 90.9719 19.4794 91.3603 19.1067C91.7654 18.7206 92.2477 18.4248 92.7756 18.2389C93.3476 18.0375 93.9504 17.9372 94.5568 17.9424C95.3787 17.9127 96.0699 18.0571 96.6305 18.3758C97.1984 18.7012 97.6406 19.208 97.8861 19.8149C98.1625 20.4536 98.3008 21.2602 98.3008 22.2348V36.5284H105.653V21.6407C105.653 19.5097 105.333 17.7057 104.694 16.2285C104.054 14.7514 103.112 13.6403 101.866 12.8952ZM128.191 26.5065C127.955 25.8455 127.581 25.242 127.095 24.7356C126.487 24.0783 125.665 23.5101 124.63 23.0311C123.435 22.4965 122.197 22.0617 120.93 21.7309C119.773 21.4026 118.86 21.1261 118.19 20.9015C117.52 20.6768 117.033 20.475 116.729 20.296C116.441 20.1333 116.198 19.9022 116.021 19.6231C115.858 19.3688 115.771 19.0731 115.77 18.7708C115.764 18.4983 115.826 18.2286 115.953 17.987C116.085 17.7506 116.273 17.5502 116.5 17.4033C116.771 17.2282 117.074 17.1064 117.391 17.0445C117.789 16.9657 118.195 16.9282 118.602 16.9325H127.287V11.7754H118.37C117.142 11.774 115.92 11.9486 114.742 12.2938C113.625 12.6096 112.573 13.118 111.631 13.7962C110.765 14.4195 110.034 15.2129 109.485 16.128C108.948 17.0381 108.672 18.0782 108.686 19.1347C108.671 20.02 108.842 20.8985 109.188 21.7133C109.531 22.4878 110.01 23.1941 110.604 23.7984C111.273 24.4571 112.134 25.0325 113.184 25.5247C114.381 26.0691 115.628 26.4972 116.906 26.8031C117.911 27.0726 118.733 27.3118 119.372 27.5205C119.843 27.6623 120.301 27.8423 120.743 28.0586C121.29 28.3883 121.564 28.8518 121.565 29.449C121.57 29.7217 121.508 29.9915 121.382 30.2339C121.254 30.4654 121.074 30.6647 120.857 30.8166C120.601 30.994 120.314 31.1229 120.012 31.1971C119.639 31.2917 119.256 31.337 118.871 31.3319H108.687V36.5336H118.46C120.408 36.5336 122.144 36.1973 123.667 35.5248C125.189 34.8522 126.384 33.9257 127.252 32.7451C128.121 31.5705 128.581 30.143 128.561 28.6818C128.566 27.9406 128.441 27.2044 128.191 26.5065ZM67.2056 25.111C66.9567 25.8316 66.7276 26.5044 66.5161 27.1359C66.4476 26.9057 66.3751 26.6735 66.2921 26.436C66.0488 25.7351 65.7899 25.0806 65.5155 24.4723L60.4009 12.2783H52.1354L62.9525 35.8566L58.8592 45.499H66.0837L69.6701 36.5284L79.9906 12.2783H71.6815L67.2056 25.111ZM49.1649 16.663V12.2783H29.9122V10.8786H29.0724V12.2824H27.3886V13.1222H29.0724V18.2151H30.0957L34.0356 13.1181H35.5701L32.2824 17.3753L31.6333 18.2151H40.0689L29.0724 32.3314V36.5326H49.5786V30.5916H38.5717L49.1649 16.663ZM29.9122 13.1222H30.3746L29.9143 13.7174L29.9122 13.1222ZM29.9122 17.0787V15.0922L31.4363 13.1222H32.9719L29.9122 17.0787ZM34.8755 17.3753H33.3399L36.6287 13.1181H38.1632L34.8755 17.3753ZM37.4675 17.3753H35.933L39.2208 13.1181H40.7553L37.4675 17.3753ZM39.6521 17.3753H38.5323L41.8201 13.1181H42.972L39.6521 17.3753ZM23.8821 2.73331H18.8794V0.501038H18.0365V2.73434H15.7959V3.57417H18.0365V14.6536C17.7962 14.4107 17.5417 14.1822 17.2744 13.9693C17.1376 13.8604 16.9976 13.7526 16.8514 13.65C16.0097 13.062 15.0865 12.6002 14.1111 12.2793C14.0582 12.2617 14.0074 12.2492 13.9504 12.2326C13.6601 12.1414 13.3656 12.0667 13.0681 12.0025C12.6126 11.9037 12.1508 11.8368 11.686 11.8024C11.4465 11.7858 11.2049 11.7744 10.9602 11.7744C10.0677 11.7719 9.17834 11.8795 8.31218 12.0947H8.30077C8.08408 12.1497 7.86945 12.2109 7.65898 12.2793C6.82285 12.5487 6.02802 12.9325 5.29711 13.4198C3.6534 14.5161 2.3598 16.016 1.41629 17.9196C0.679432 19.4326 0.227114 21.0683 0.0819096 22.7449C0.0819096 22.7885 0.075688 22.8331 0.0715407 22.8766C0.0518412 23.0985 0.0331789 23.3204 0.0217739 23.5464C0.00829525 23.8367 0 24.1301 0 24.4277C0 24.9824 0.0290314 25.5215 0.0798355 26.0472C0.0798355 26.0794 0.0850198 26.1125 0.0881302 26.1447C0.108175 26.3431 0.131331 26.539 0.157597 26.7325L0.893739 25.7787H0.898923V25.7704L11.0597 12.6183C11.5419 12.6226 12.023 12.6638 12.4988 12.7417L0.471753 28.3199C0.557809 28.66 0.65216 28.9939 0.762062 29.3194L6.87929 21.3992C6.61514 22.2258 6.46787 23.0854 6.44176 23.9528L1.28669 30.6289C1.33335 30.7326 1.37586 30.8363 1.42563 30.9327C1.70271 31.4981 2.02191 32.0419 2.38054 32.5595C2.5485 32.799 2.72372 33.0312 2.90517 33.2531C3.16424 33.572 3.44116 33.8759 3.73462 34.1634C3.93576 34.3594 4.14935 34.546 4.3619 34.7254C4.65263 34.9691 4.95616 35.1972 5.27119 35.4086C5.29296 35.4232 5.31577 35.4346 5.33754 35.4491C5.46922 35.5351 5.60401 35.616 5.73983 35.6948C6.20585 35.9705 6.695 36.205 7.20174 36.3957H7.21107C7.38008 36.4589 7.55322 36.5149 7.72948 36.5678C8.27122 36.7354 8.82617 36.8568 9.38839 36.9307C9.56154 36.9535 9.7378 36.9701 9.9151 36.9836C10.2261 37.0095 10.5455 37.0271 10.869 37.0271C11.237 37.0271 11.5947 37.0033 11.9524 36.9691C12.6775 36.9032 13.3937 36.7617 14.0893 36.5471C14.4641 36.4274 14.8326 36.289 15.1935 36.1323C15.4279 36.0287 15.6539 35.925 15.8737 35.8109C15.939 35.7778 16.0054 35.7446 16.0707 35.7072C16.136 35.6699 16.2273 35.6202 16.304 35.5756C16.4761 35.4719 16.6451 35.3744 16.8068 35.2645C16.897 35.2034 16.981 35.1391 17.0681 35.0758C17.5544 34.7254 17.9981 34.3194 18.3901 33.8659L18.5145 35.5434L18.5839 36.4766V36.5232H24.5498V38.771H25.3979V36.5284H26.8018V35.6886H25.3979V9.48818L17.6767 19.4748C17.4368 19.1381 17.1626 18.8271 16.8587 18.5469L25.3979 7.5006V6.12681L18.8846 14.5593V12.5727L25.3979 4.13923V3.57313H26.9759V2.73331H23.8821ZM2.17317 18.2918C3.04617 16.5292 4.25614 15.1274 5.76886 14.1186C6.04668 13.9361 6.33469 13.7696 6.63149 13.6199L1.35512 20.4515C1.55865 19.7073 1.83257 18.9841 2.17317 18.2918ZM0.846044 24.4723C0.846044 24.4567 0.846044 24.4412 0.846044 24.4267C0.846256 23.7165 0.89371 23.0071 0.98809 22.3033L8.17117 13.002C8.75663 12.8334 9.35695 12.7216 9.96383 12.6681L0.846044 24.4723ZM16.3734 14.3353C16.3931 14.3488 16.4097 14.3643 16.4294 14.3778L14.2656 17.1772C13.8016 17.073 13.3279 17.0181 12.8524 17.0134L15.3822 13.7381C15.723 13.9165 16.0523 14.116 16.3683 14.3353H16.3734ZM13.3988 12.9429C13.5491 12.9843 13.6995 13.0227 13.8457 13.0714C14.107 13.1585 14.3641 13.2581 14.6098 13.3638L11.7399 17.0787C11.0009 17.1794 10.2893 17.4261 9.64656 17.8045L13.3988 12.9429ZM2.25923 30.7316L6.45731 25.2955C6.49849 25.8482 6.58905 26.3961 6.72792 26.9327L2.91968 31.8627C2.67875 31.4982 2.45826 31.1206 2.25923 30.7316ZM4.25511 33.4947C3.96349 33.2031 3.68962 32.8942 3.43498 32.5698L7.04622 27.8896C7.0908 27.9933 7.13435 28.1043 7.18308 28.2079C7.32378 28.5078 7.48523 28.7974 7.66624 29.0747L4.25511 33.4947ZM5.73879 34.7098C5.44045 34.5096 5.1535 34.2929 4.87927 34.0608L8.18672 29.7725C8.45252 30.0825 8.7492 30.3646 9.07216 30.6144L5.85284 34.7814C5.81863 34.7565 5.77819 34.7358 5.73879 34.7098ZM6.59417 35.2023L9.77824 31.0789C10.1464 31.2832 10.5372 31.444 10.9426 31.5579L7.75126 35.6917C7.35417 35.5569 6.96745 35.3934 6.59417 35.2023ZM9.99182 36.151C9.53026 36.1144 9.07188 36.0451 8.62011 35.9436L11.8622 31.7456C12.1539 31.782 12.4475 31.8003 12.7415 31.8005C12.9592 31.8005 13.1697 31.7881 13.3781 31.7705L9.99182 36.151ZM24.5529 35.6886H24.3881L24.5529 35.476V35.6886ZM24.5529 34.1023L23.3243 35.6886H21.7898L24.5498 32.1157L24.5529 34.1023ZM24.5529 30.7409L20.7322 35.6886H19.3667L19.3522 35.4874L24.5529 28.7543V30.7409ZM24.5529 27.3806L19.2589 34.2339L19.2278 33.8119L19.1241 32.4216L24.5529 25.393V27.3806ZM24.5529 24.0192L16.4813 34.4755C16.4346 34.5087 16.39 34.5439 16.3423 34.5792C15.6179 35.0557 14.8321 35.4313 14.0064 35.6958L24.5529 22.0327V24.0192ZM24.5529 20.6578L12.6844 36.0256C12.1367 36.1237 11.5819 36.1771 11.0255 36.1852L14.615 31.5361C15.1525 31.3799 15.6632 31.1433 16.1298 30.8342C17.0964 30.1812 17.8573 29.2667 18.3237 28.1976C18.6474 27.4679 18.8629 26.695 18.9634 25.9031L24.5529 18.6671V20.6578ZM24.5529 17.2975L19.0578 24.407C19.0582 23.8047 19.0093 23.2034 18.9116 22.6091L24.5488 15.3099L24.5529 17.2975ZM24.5529 11.9486V13.9361L18.6721 21.5485C18.5777 21.2275 18.4617 20.9133 18.3247 20.6081C18.2687 20.4826 18.2076 20.3623 18.1454 20.2431L24.5529 11.9486ZM17.1355 20.1788C17.2112 20.296 17.2827 20.4173 17.3522 20.5417L17.3615 20.5583C17.431 20.6858 17.4974 20.8185 17.5596 20.9554C17.7652 21.4166 17.9199 21.8988 18.0209 22.3935C18.1013 22.7758 18.1567 23.163 18.1868 23.5526C18.2096 23.8346 18.2221 24.125 18.2221 24.4267C18.2222 24.8112 18.2007 25.1954 18.1578 25.5775C18.0866 26.2629 17.9238 26.9355 17.6736 27.5776C17.6373 27.6698 17.6 27.7621 17.5596 27.8513C17.1705 28.7472 16.5415 29.5182 15.742 30.0794C15.7161 30.097 15.6912 30.1167 15.6643 30.1343C15.5533 30.209 15.4382 30.2785 15.32 30.3417L15.2547 30.3739C15.151 30.4278 15.0474 30.4775 14.9437 30.5242L14.898 30.5429C14.7819 30.5916 14.6637 30.6372 14.5424 30.6766L14.5258 30.6828C14.3952 30.7253 14.2604 30.7637 14.1235 30.7969C13.67 30.9041 13.2054 30.9574 12.7394 30.9555C12.6492 30.9555 12.5611 30.9555 12.4729 30.9472C12.1464 30.936 11.8214 30.8971 11.5014 30.8311C11.0827 30.7435 10.6777 30.5994 10.2977 30.4029C10.2251 30.3645 10.1536 30.3251 10.082 30.2847C10.0105 30.2443 9.92028 30.1883 9.84252 30.1354C9.75646 30.0773 9.67248 30.0151 9.59057 29.9508C9.26669 29.7009 8.97363 29.4135 8.71757 29.0944C8.62841 28.9835 8.54339 28.8684 8.46148 28.7492L8.45111 28.7336C8.37024 28.6154 8.29248 28.492 8.21886 28.3655C8.12348 28.2007 8.0312 28.0317 7.94722 27.8523C7.83464 27.6107 7.737 27.3625 7.65483 27.1089C7.60092 26.9451 7.55115 26.7761 7.51175 26.604V26.5895C7.47028 26.418 7.43572 26.2435 7.40807 26.0659C7.31501 25.5248 7.26921 24.9767 7.27121 24.4277C7.27121 24.3676 7.27121 24.3095 7.27121 24.2504C7.27746 23.7269 7.32601 23.2047 7.41637 22.689C7.51986 22.0908 7.70002 21.5085 7.9524 20.9564C8.36436 20.0375 9.01977 19.2487 9.8477 18.6754C10.1838 18.4484 10.5489 18.2677 10.9333 18.1384C11.3414 18.0009 11.7648 17.9138 12.194 17.8792C12.3744 17.8636 12.5579 17.8532 12.7477 17.8532C13.0639 17.8532 13.3797 17.8774 13.6922 17.9258C13.8436 17.9486 13.9919 17.9787 14.137 18.0129L14.1609 18.0191C14.306 18.0544 14.447 18.0958 14.586 18.1435C14.9692 18.2726 15.3338 18.4515 15.6705 18.6754C15.6798 18.6806 15.6871 18.6879 15.6964 18.6931C15.8115 18.7708 15.9224 18.8538 16.0303 18.9409L16.0427 18.9512C16.1464 19.0373 16.2501 19.1264 16.3537 19.2208C16.6516 19.5078 16.9141 19.8294 17.1355 20.1788ZM16.2024 18.0253C16.1785 18.0088 16.1557 17.9901 16.1308 17.9735C15.8121 17.7625 15.4722 17.5853 15.1168 17.4447L17.0774 14.9056C17.2008 15.0165 17.3263 15.1254 17.4414 15.2425L17.9515 15.7609L16.2024 18.0253ZM18.8794 3.57313H19.5772L18.8794 4.4762V3.57313ZM18.8794 5.85413L20.642 3.57313H22.1765L18.8836 7.83757L18.8794 5.85413ZM18.8794 11.202V9.21031L23.2341 3.57209H24.7686L18.8794 11.202Z" fill="white"/>
</svg>
