<svg width="25" height="24" viewBox="0 0 25 24" fill="none" xmlns="http://www.w3.org/2000/svg">
<path d="M13.7 14.3997C13.7 15.4597 13.24 16.4197 12.5 17.0797C11.86 17.6597 11.02 17.9997 10.1 17.9997C8.10998 17.9997 6.5 16.3897 6.5 14.3997C6.5 12.7397 7.63002 11.3397 9.15002 10.9297C9.56002 11.9697 10.45 12.7797 11.55 13.0797C11.85 13.1597 12.17 13.2097 12.5 13.2097C12.83 13.2097 13.15 13.1697 13.45 13.0797C13.61 13.4797 13.7 13.9297 13.7 14.3997Z" stroke="white" stroke-width="1.5" stroke-linecap="round" stroke-linejoin="round"/>
<path d="M16.1 9.6C16.1 10.07 16.01 10.52 15.85 10.93C15.44 11.97 14.55 12.78 13.45 13.08C13.15 13.16 12.83 13.21 12.5 13.21C12.17 13.21 11.85 13.17 11.55 13.08C10.45 12.78 9.56002 11.98 9.15002 10.93C8.99002 10.52 8.90002 10.07 8.90002 9.6C8.90002 7.61 10.51 6 12.5 6C14.49 6 16.1 7.61 16.1 9.6Z" stroke="white" stroke-width="1.5" stroke-linecap="round" stroke-linejoin="round"/>
<path d="M18.5 14.3999C18.5 16.3899 16.89 17.9999 14.9 17.9999C13.98 17.9999 13.14 17.6499 12.5 17.0799C13.24 16.4299 13.7 15.4699 13.7 14.3999C13.7 13.9299 13.61 13.4799 13.45 13.0699C14.55 12.7699 15.44 11.9699 15.85 10.9199C17.37 11.3399 18.5 12.7399 18.5 14.3999Z" stroke="white" stroke-width="1.5" stroke-linecap="round" stroke-linejoin="round"/>
<path d="M9.5 22H15.5C20.5 22 22.5 20 22.5 15V9C22.5 4 20.5 2 15.5 2H9.5C4.5 2 2.5 4 2.5 9V15C2.5 20 4.5 22 9.5 22Z" stroke="white" stroke-width="1.5" stroke-linecap="round" stroke-linejoin="round"/>
</svg>
