<svg width="50" height="50" viewBox="0 0 50 50" fill="none" xmlns="http://www.w3.org/2000/svg">
<path d="M4.03975 43.0374C3.66494 43.0374 3.29014 42.8944 3.0041 42.6082C1.06719 40.6728 0 38.0979 0 35.3584C0 32.619 1.06719 30.0441 3.0041 28.1072L6.11113 25.0001L3.0041 21.8931C1.06719 19.9562 0 17.3812 0 14.6418C0 11.9025 1.06719 9.32747 3.0041 7.39202C3.57627 6.81985 4.50332 6.81985 5.07549 7.39202L17.5038 19.8217C18.8871 21.2035 19.6496 23.0432 19.6496 25.0001C19.6496 26.9571 18.8871 28.7967 17.5038 30.1785L5.07549 42.6083C4.78936 42.8944 4.41455 43.0374 4.03975 43.0374Z" fill="#B1FF41"/>
<path d="M45.9602 43.0374C45.5854 43.0374 45.2106 42.8944 44.9246 42.6082L32.4963 30.1785C31.113 28.7967 30.3505 26.9571 30.3505 25.0001C30.3505 23.0432 31.113 21.2035 32.4963 19.8217L44.9246 7.39202C45.4968 6.81985 46.4238 6.81985 46.996 7.39202C48.9328 9.32747 50 11.9024 50 14.6418C50 17.3813 48.9328 19.9562 46.9959 21.8931L43.8888 25.0001L46.9959 28.1072C48.9328 30.0441 50 32.6191 50 35.3584C50 38.0978 48.9328 40.6728 46.9959 42.6082C46.7098 42.8944 46.335 43.0374 45.9602 43.0374Z" fill="#B1FF41"/>
<path d="M35.3583 50.0001C32.6188 50.0001 30.0439 48.933 28.107 46.996L25 43.889L21.893 46.996C18.0191 50.8699 11.2628 50.8699 7.39189 46.996C6.81973 46.4239 6.81973 45.4968 7.39189 44.9247L19.8216 32.4963C22.5854 29.7297 27.4147 29.7297 30.1785 32.4963L42.6082 44.9247C43.1804 45.4968 43.1804 46.4239 42.6082 46.996C40.6727 48.933 38.0978 50.0001 35.3583 50.0001Z" fill="#B1FF41"/>
<path d="M25 19.5508C23.043 19.5508 21.2034 18.7883 19.8216 17.405L7.39177 4.97676C6.8196 4.40459 6.8196 3.47754 7.39177 2.90537C11.2628 -0.968457 18.019 -0.968457 21.8928 2.90537L25 6.0124L28.107 2.90537C31.9808 -0.968457 38.7372 -0.968457 42.6081 2.90537C43.1802 3.47754 43.1802 4.40459 42.6081 4.97676L30.1784 17.4051C28.7966 18.7884 26.9569 19.5508 25 19.5508Z" fill="#B1FF41"/>
</svg>
