<svg width="50" height="50" viewBox="0 0 50 50" fill="none" xmlns="http://www.w3.org/2000/svg">
<g clip-path="url(#clip0_112_1261)">
<path d="M28.686 12.4301C28.686 19.2673 27.1047 24.808 25.157 24.808C23.2093 24.808 21.6279 19.2673 21.6279 12.4301C21.6279 5.59289 23.2093 0.0463867 25.157 0.0463867C27.1047 0.0463867 28.686 5.58708 28.686 12.4301Z" fill="#7E41FF"/>
<path d="M18.8953 13.5582C23.7325 18.3954 26.5348 23.4419 25.1569 24.8082C23.779 26.1744 18.7616 23.3837 13.9069 18.5523C9.05227 13.7209 6.26739 8.66862 7.6453 7.30234C9.0232 5.93606 14.0639 8.7442 18.8953 13.5582Z" fill="#7E41FF"/>
<path d="M12.7733 21.2791C19.6105 21.2791 25.157 22.8604 25.157 24.8081C25.157 26.7558 19.6105 28.343 12.7733 28.343C5.93608 28.343 0.424438 26.7674 0.424438 24.8081C0.424438 22.8488 5.93608 21.2791 12.7733 21.2791Z" fill="#7E41FF"/>
<path d="M18.8961 36.0586C23.7322 31.2224 26.5355 26.1847 25.1573 24.8065C23.7791 23.4283 18.7414 26.2316 13.9052 31.0677C9.06907 35.9039 6.26587 40.9416 7.64407 42.3198C9.02221 43.698 14.0599 40.8947 18.8961 36.0586Z" fill="#7E41FF"/>
<path d="M21.6279 37.1918C21.6279 30.3546 23.2093 24.8081 25.157 24.8081C27.1047 24.8081 28.686 30.3546 28.686 37.1918C28.686 44.029 27.1047 49.5755 25.157 49.5755C23.2093 49.5755 21.6279 44.029 21.6279 37.1918Z" fill="#7E41FF"/>
<path d="M42.6678 42.321C44.046 40.9428 41.2428 35.9051 36.4066 31.0689C31.5704 26.2328 26.5328 23.4296 25.1546 24.8078C23.7764 26.1859 26.5796 31.2236 31.4157 36.0598C36.2519 40.8959 41.2896 43.6992 42.6678 42.321Z" fill="#7E41FF"/>
<path d="M37.5407 28.343C30.6977 28.343 25.157 26.7616 25.157 24.8081C25.157 22.8546 30.6977 21.2791 37.5407 21.2791C44.3837 21.2791 49.9186 22.8604 49.9186 24.8081C49.9186 26.7558 44.3779 28.343 37.5407 28.343Z" fill="#7E41FF"/>
<path d="M36.4069 18.5522C31.5697 23.3836 26.5232 26.186 25.1569 24.8081C23.7906 23.4302 26.5813 18.4127 31.4127 13.5581C36.2441 8.70341 41.2964 5.91852 42.6685 7.30225C44.0406 8.68597 41.2441 13.715 36.4069 18.5522Z" fill="#7E41FF"/>
</g>
<defs>
<clipPath id="clip0_112_1261">
<rect width="50" height="50" fill="white"/>
</clipPath>
</defs>
</svg>
