<svg width="20" height="21" viewBox="0 0 20 21" fill="none" xmlns="http://www.w3.org/2000/svg">
<path d="M20 10.5C20 16.0228 15.5228 20.5 10 20.5C4.47715 20.5 0 16.0228 0 10.5C0 4.97715 4.47715 0.5 10 0.5C15.5228 0.5 20 4.97715 20 10.5Z" fill="#41D259" fill-opacity="0.3"/>
<path d="M17 10.5C17 14.366 13.866 17.5 10 17.5C6.13401 17.5 3 14.366 3 10.5C3 6.63401 6.13401 3.5 10 3.5C13.866 3.5 17 6.63401 17 10.5Z" fill="#41D259" fill-opacity="0.5"/>
<path d="M14 10.5C14 12.7091 12.2091 14.5 10 14.5C7.79086 14.5 6 12.7091 6 10.5C6 8.29086 7.79086 6.5 10 6.5C12.2091 6.5 14 8.29086 14 10.5Z" fill="#41D259"/>
<path d="M12 10.5C12 11.6046 11.1046 12.5 10 12.5C8.89543 12.5 8 11.6046 8 10.5C8 9.39543 8.89543 8.5 10 8.5C11.1046 8.5 12 9.39543 12 10.5Z" fill="#43E35D"/>
</svg>
